<svg width="123" height="105" viewBox="0 0 123 105" fill="none" xmlns="http://www.w3.org/2000/svg">
<path d="M81.7737 72.9186C80.9348 72.159 80.0074 71.4668 79.0065 70.8532C78.5113 70.5568 77.9955 70.2855 77.4622 70.0411L77.0624 69.8603L76.6623 69.7072C76.3947 69.6034 76.1215 69.5109 75.844 69.4301C74.7223 69.0949 73.5522 68.9186 72.3871 68.9092C71.2327 68.8847 70.1026 69.0512 69.0653 69.3988L68.6677 69.5448C68.5328 69.5904 68.4164 69.6581 68.2887 69.7129C68.0383 69.8272 67.7998 69.9567 67.5748 70.1002C67.5152 70.1321 67.4601 70.1691 67.4104 70.2106L67.2544 70.3286C67.146 70.4037 67.0438 70.4843 66.9483 70.5701C66.7592 70.7415 66.5824 70.9218 66.4187 71.1103C66.2633 71.2996 66.1298 71.5011 66.0199 71.7124C65.9063 71.9173 65.8178 72.1321 65.7554 72.3538C65.629 72.7725 65.6334 73.2181 65.7681 73.6518C65.9818 74.2408 66.4108 74.7753 66.9955 75.1815C67.3047 75.4079 67.6425 75.6061 68.002 75.7724C68.0912 75.8171 68.1854 75.855 68.277 75.8967C68.3711 75.9339 68.4675 75.967 68.5624 76.0027C68.7502 76.0793 68.9434 76.1453 69.1406 76.2002C69.3399 76.2506 69.5346 76.3163 69.7372 76.3569L70.3481 76.4712L70.9685 76.5373C71.1754 76.5617 71.384 76.5528 71.5919 76.5634C72.429 76.5709 73.2524 76.4733 74.0331 76.2739C75.5955 75.8818 76.9216 75.0803 77.8159 73.9876L78.1008 73.5665C78.1494 73.4959 78.1923 73.4226 78.2293 73.3469C78.2678 73.2714 78.3138 73.1987 78.3469 73.1212C78.4923 72.8158 78.6044 72.4987 78.6821 72.1735C78.8303 71.5152 78.8518 70.8344 78.746 70.1546C78.5076 68.7574 77.889 67.397 76.936 66.1744C75.9956 64.9252 74.804 63.8038 73.416 62.8617C71.9726 61.9247 70.4197 61.1112 68.785 60.4356C67.1311 59.7427 65.4097 59.1374 63.6584 58.5414C61.5047 57.7929 59.3224 57.0719 57.1412 56.1795C55.9945 55.721 54.92 55.1385 53.9491 54.4491C53.4457 54.0813 52.9945 53.6683 52.6058 53.2191C52.2233 52.7706 51.899 52.2933 51.6386 51.7956C51.392 51.3082 51.1957 50.8077 51.0518 50.2997C50.9179 49.8039 50.8212 49.3042 50.7625 48.8035C50.655 47.8296 50.6441 46.8564 50.7298 45.8934C50.8799 44.0071 51.205 42.1836 51.4046 40.3722C51.6103 38.5646 51.6751 36.758 51.3413 34.9916C51.1724 34.1066 50.9194 33.2283 50.5844 32.3647C49.9033 30.6349 48.8917 28.9841 47.5885 27.4757C46.9362 26.7261 46.2182 26.0137 45.4407 25.3449C44.6606 24.6817 43.8192 24.0681 42.9251 23.5104L42.2476 23.1021L41.546 22.7226C41.3156 22.5915 41.0695 22.4816 40.8292 22.3639C40.5879 22.2477 40.349 22.1278 40.0983 22.0263C38.9043 21.5003 37.6663 21.0527 36.397 20.6882C35.1279 20.3295 33.8302 20.0636 32.52 19.8939C32.2088 19.8452 31.9102 19.8199 31.6245 19.787C31.3389 19.7541 31.0657 19.7184 30.8051 19.7C30.5444 19.6766 30.2953 19.6514 30.0579 19.6245C29.8212 19.6068 29.596 19.5895 29.3812 19.5688C28.9504 19.5203 28.5676 19.4989 28.2211 19.458C27.8735 19.4131 27.5694 19.3841 27.2987 19.3426C26.51 19.2217 26.4347 19.017 27.0496 18.777C27.2398 18.7052 27.4362 18.6433 27.6377 18.5917C27.8777 18.5373 28.1607 18.4871 28.4841 18.4366C29.2806 18.3273 30.0939 18.2807 30.9133 18.2974C32.1779 18.3256 33.4459 18.4514 34.7002 18.6728C35.9746 18.903 37.229 19.2288 38.4467 19.6461C41.2117 20.5832 43.7577 21.9536 45.9305 23.6745C48.0806 25.3919 49.8356 27.4051 51.0997 29.6042C52.3741 31.7979 53.1161 34.1428 53.2822 36.5013C53.4431 38.8475 53.1267 41.1199 52.8654 43.3433C52.7251 44.5687 52.5843 45.8224 52.5677 47.0317C52.5581 47.6274 52.5898 48.2257 52.6628 48.8238C52.7362 49.3921 52.869 49.958 53.0596 50.5153C53.3379 51.3597 53.8532 52.1542 54.5634 52.8339C55.3301 53.5096 56.2336 54.0733 57.2279 54.4962C58.2893 54.9564 59.3744 55.3746 60.4791 55.749C61.5964 56.1407 62.7299 56.5156 63.8697 56.8957C66.1921 57.6437 68.4635 58.5112 70.6694 59.4929C71.7887 60.0043 72.8644 60.5824 73.8869 61.2221C76.5017 62.8464 78.5287 65.0263 79.7143 67.4892C80.4467 68.9895 80.7034 70.5884 80.4595 72.1305C80.3206 72.9088 80.028 73.6542 79.5927 74.3388C79.1584 75.0298 78.5687 75.6417 77.8517 76.1457C77.1511 76.6512 76.3504 77.0596 75.4776 77.3564C74.607 77.6487 73.6812 77.8379 72.7266 77.9187C71.8694 77.9866 70.996 77.9612 70.129 77.8432C69.2532 77.7104 68.3956 77.4774 67.5822 77.1512C66.7557 76.8097 65.9982 76.3571 65.3441 75.8139C65.0049 75.5279 64.7086 75.2106 64.4625 74.8696C64.2104 74.5165 64.0222 74.1385 63.9044 73.7485C63.6875 72.9819 63.7122 72.1982 63.9762 71.4724C64.0968 71.1219 64.2627 70.7854 64.4713 70.4683C64.5729 70.3102 64.6847 70.157 64.8063 70.0094C64.923 69.8582 65.0663 69.7291 65.1965 69.5887L65.3974 69.3826C65.4634 69.3133 65.546 69.2566 65.6199 69.1931C65.7727 69.0703 65.9227 68.9445 66.0801 68.8258C66.7312 68.3765 67.4631 68.0081 68.2548 67.731C68.6498 67.6029 69.0555 67.4943 69.4698 67.4059C69.8805 67.3169 70.2993 67.2482 70.7239 67.2001C70.9349 67.1739 71.1493 67.1664 71.3619 67.1492L71.6815 67.1273C71.7884 67.1237 71.8958 67.1246 72.0029 67.1232C72.8579 67.1075 73.7196 67.1653 74.5738 67.2958C75.4272 67.4288 76.2691 67.6285 77.0876 67.892C77.8928 68.1692 78.6725 68.5006 79.4182 68.8824C80.8727 69.6458 82.2045 70.5629 83.3751 71.6072C83.9564 72.1163 84.5077 72.6471 85.0269 73.1976C85.5489 73.7426 86.0375 74.3034 86.5043 74.8721C87.9973 76.6921 89.164 78.5439 90.2622 80.3012C91.3613 82.0598 92.3649 83.7459 93.4804 85.2995C93.996 86.0115 94.2118 86.3732 94.0386 86.4081C93.9606 86.4198 93.7771 86.3552 93.5113 86.1935C93.3486 86.0972 93.1925 85.9935 93.0438 85.8828C92.8402 85.737 92.6462 85.5824 92.4628 85.4197C92.1729 85.1592 91.8827 84.8948 91.6008 84.624C91.4532 84.4914 91.3321 84.3453 91.201 84.2041C91.0725 84.0616 90.9401 83.9194 90.8145 83.7749C90.3065 83.1979 89.8159 82.6103 89.3425 82.0119C88.4043 80.8149 87.5193 79.5976 86.6273 78.4146C85.8912 77.442 85.1636 76.4735 84.3732 75.543C83.6028 74.6178 82.7493 73.7375 81.8204 72.91C81.8051 72.9133 81.7907 72.9162 81.7737 72.9186Z" fill="#45084A"/>
<path d="M88.3271 83.125C89.1271 83.381 89.9127 83.6711 90.6806 83.9941C90.8825 84.0744 91.0809 84.1602 91.278 84.245C91.4763 84.3282 91.6771 84.4055 91.8778 84.4776C92.5745 84.7167 93.2558 84.9723 93.9326 85.2327C94.2701 85.3638 94.6064 85.4963 94.9391 85.6324L95.4376 85.8371C95.6041 85.9041 95.7676 85.9763 95.9286 86.0526L94.0915 87.1161L93.9758 86.6439L93.9184 86.4052L93.8899 86.2853L93.8757 86.2254L93.8681 86.1955L93.8658 86.188L93.8652 86.1861C93.8695 86.1853 93.8551 86.1866 93.8748 86.1841L93.875 86.1832L93.8757 86.1792L93.8789 86.1635C93.9186 86.0027 93.9131 85.8338 93.8626 85.6692C93.8291 85.5077 93.7904 85.3455 93.7467 85.1825C93.6043 84.6222 93.4612 84.051 93.3506 83.4736C93.2391 82.8893 93.1654 82.3031 93.1297 81.7173C93.0549 80.5191 93.1985 79.3325 93.5559 78.1962C93.5808 78.1094 93.612 78.0242 93.6493 77.9411C93.6905 77.8589 93.7357 77.778 93.7833 77.6982C93.8801 77.5392 93.9805 77.383 94.0913 77.2344C94.1964 77.1067 94.3433 77.0064 94.5173 76.9437C94.6912 76.881 94.886 76.8581 95.0822 76.8772C95.2122 76.8781 95.3427 76.9011 95.4652 76.945C95.5878 76.9888 95.6997 77.0523 95.7937 77.1316C95.8878 77.2108 95.9618 77.3039 96.0111 77.405C96.0605 77.506 96.0839 77.6127 96.0801 77.7181C96.0417 77.9882 95.9562 78.2495 95.826 78.4943C95.5538 79.063 95.3878 79.6675 95.3331 80.2887C95.2805 80.9151 95.3223 81.5503 95.4578 82.1804C95.5666 82.5292 95.6269 82.8838 95.6376 83.2374C95.6122 83.7954 95.6778 84.3595 95.8325 84.9152C95.8687 85.0558 95.8988 85.1962 95.9489 85.337L96.0171 85.548C96.0435 85.6179 96.0762 85.687 96.1079 85.7562C96.1637 85.8207 96.2114 85.8892 96.2505 85.9606L96.3147 86.1738C96.356 86.3153 96.3947 86.4612 96.4285 86.6057L96.4871 86.847L96.4968 86.8871C96.5385 87.0587 96.5207 87.2327 96.4454 87.389C96.37 87.5454 96.2403 87.6778 96.0709 87.771C95.9016 87.8643 95.6995 87.9146 95.4879 87.9163C95.2763 87.918 95.0637 87.8709 94.8744 87.7805C94.0318 87.3779 93.163 87.0203 92.3122 86.6512C91.4771 86.2844 90.6366 85.9398 89.7907 85.6232C88.9559 85.3042 88.0961 85.0385 87.2197 84.8289C86.4942 84.6703 85.8188 84.3597 85.2635 83.9291C85.193 83.8792 85.1359 83.8179 85.0965 83.7498C85.057 83.6816 85.0361 83.6083 85.0354 83.5352C85.0378 83.4561 85.0598 83.3795 85.1002 83.3099C85.1232 83.2693 85.1507 83.2306 85.1824 83.1945C85.2157 83.1606 85.2543 83.1085 85.3005 83.0994C85.5557 83.0074 85.8303 82.9496 86.1141 82.928C86.3922 82.9021 86.6741 82.8943 86.9572 82.9046C87.1874 82.9198 87.4171 82.9516 87.6436 82.9995C87.8681 83.0506 88.0909 83.1097 88.3146 83.1579L88.3271 83.125Z" fill="black"/>
</svg>
