<svg width="25" height="25" viewBox="0 0 25 25" fill="none" xmlns="http://www.w3.org/2000/svg">
<path d="M22.8853 19.0924C22.8853 19.4674 22.802 19.8529 22.6249 20.2279C22.4478 20.6029 22.2187 20.957 21.9166 21.2904C21.4062 21.8529 20.8437 22.2591 20.2083 22.5195C19.5833 22.7799 18.9062 22.9154 18.177 22.9154C17.1145 22.9154 15.9791 22.6654 14.7812 22.1549C13.5833 21.6445 12.3853 20.957 11.1978 20.0924C9.99992 19.2174 8.8645 18.2487 7.78117 17.1758C6.70825 16.0924 5.7395 14.957 4.87492 13.7695C4.02075 12.582 3.33325 11.3945 2.83325 10.2174C2.33325 9.02995 2.08325 7.89453 2.08325 6.8112C2.08325 6.10286 2.20825 5.42578 2.45825 4.80078C2.70825 4.16536 3.10409 3.58203 3.65617 3.0612C4.32284 2.40495 5.052 2.08203 5.82284 2.08203C6.1145 2.08203 6.40617 2.14453 6.66659 2.26953C6.93742 2.39453 7.177 2.58203 7.3645 2.85286L9.78117 6.25911C9.96867 6.51953 10.1041 6.75911 10.1978 6.98828C10.2916 7.20703 10.3437 7.42578 10.3437 7.6237C10.3437 7.8737 10.2708 8.1237 10.1249 8.36328C9.9895 8.60286 9.79158 8.85286 9.54158 9.10286L8.74992 9.92578C8.63533 10.0404 8.58325 10.1758 8.58325 10.3424C8.58325 10.4258 8.59367 10.4987 8.6145 10.582C8.64575 10.6654 8.677 10.7279 8.69784 10.7904C8.88534 11.1341 9.20825 11.582 9.66658 12.1237C10.1353 12.6654 10.6353 13.2174 11.177 13.7695C11.7395 14.3216 12.2812 14.832 12.8333 15.3008C13.3749 15.7591 13.8228 16.0716 14.177 16.2591C14.2291 16.2799 14.2916 16.3112 14.3645 16.3424C14.4478 16.3737 14.5312 16.3841 14.6249 16.3841C14.802 16.3841 14.9374 16.3216 15.052 16.207L15.8437 15.4258C16.1041 15.1654 16.3541 14.9674 16.5937 14.8424C16.8333 14.6966 17.0728 14.6237 17.3333 14.6237C17.5312 14.6237 17.7395 14.6654 17.9687 14.7591C18.1978 14.8529 18.4374 14.9883 18.6978 15.1654L22.1458 17.6133C22.4166 17.8008 22.6041 18.0195 22.7187 18.2799C22.8228 18.5404 22.8853 18.8008 22.8853 19.0924Z" stroke="#FFBAFF" stroke-width="2" stroke-miterlimit="10"/>
</svg>
