<svg width="250" height="250" viewBox="0 0 250 250" fill="none" xmlns="http://www.w3.org/2000/svg">
<path d="M166.667 65.4144C166.667 71.6793 164.193 77.6965 159.774 82.1473C149.603 92.3969 139.74 103.084 129.189 112.962C126.771 115.193 122.935 115.112 120.62 112.779L90.2241 82.1473C81.0366 72.8883 81.0366 57.9404 90.2241 48.6815C99.502 39.3315 114.617 39.3315 123.894 48.6815L124.999 49.7948L126.103 48.6821C130.552 44.1968 136.611 41.667 142.939 41.667C149.268 41.667 155.326 44.1966 159.774 48.6815C164.193 53.1329 166.667 59.1498 166.667 65.4144Z" stroke="#F8EBFC" stroke-width="10" stroke-linejoin="round"/>
<path d="M187.5 208.333L227.336 168.497C228.508 167.325 229.167 165.735 229.167 164.078V109.375C229.167 100.746 222.171 93.75 213.542 93.75C204.912 93.75 197.917 100.746 197.917 109.375V156.25" stroke="#F8EBFC" stroke-width="10" stroke-linecap="round" stroke-linejoin="round"/>
<path d="M187.5 166.667L196.438 157.728C197.385 156.781 197.917 155.498 197.917 154.161C197.917 152.249 196.836 150.502 195.127 149.647L190.513 147.341C182.494 143.33 172.806 144.902 166.465 151.243L157.144 160.565C153.236 164.472 151.042 169.771 151.042 175.296V208.333" stroke="#F8EBFC" stroke-width="10" stroke-linecap="round" stroke-linejoin="round"/>
<path d="M62.5002 208.333L22.6641 168.497C21.4919 167.325 20.8335 165.735 20.8335 164.078V109.375C20.8335 100.746 27.829 93.75 36.4585 93.75C45.088 93.75 52.0835 100.746 52.0835 109.375V156.25" stroke="#F8EBFC" stroke-width="10" stroke-linecap="round" stroke-linejoin="round"/>
<path d="M62.5002 166.667L53.5613 157.728C52.6151 156.781 52.0835 155.498 52.0835 154.161C52.0835 152.249 53.1633 150.502 54.8727 149.647L59.4863 147.341C67.5068 143.33 77.1938 144.902 83.5346 151.243L92.8565 160.565C96.7636 164.472 98.9585 169.771 98.9585 175.296V208.333" stroke="#F8EBFC" stroke-width="10" stroke-linecap="round" stroke-linejoin="round"/>
</svg>
