<svg width="25" height="25" viewBox="0 0 25 25" fill="none" xmlns="http://www.w3.org/2000/svg">
<path d="M24.9354 5.4811C24.8228 4.91343 24.571 4.39395 24.2195 3.96479C24.1454 3.87129 24.068 3.78755 23.984 3.70381C23.3612 3.07793 22.4871 2.6875 21.5322 2.6875H3.46782C2.51289 2.6875 1.64189 3.07793 1.01616 3.70381C0.932422 3.78755 0.85498 3.87129 0.780664 3.96479C0.428955 4.3939 0.177246 4.91343 0.0676758 5.4811C0.0226563 5.7002 0 5.92661 0 6.15552V18.8427C0 19.3294 0.103223 19.7973 0.287305 20.2198C0.458057 20.6231 0.709814 20.988 1.01611 21.294C1.09375 21.3715 1.17085 21.4427 1.25498 21.5135C1.85488 22.0103 2.62925 22.3104 3.46782 22.3104H21.5322C22.371 22.3104 23.1488 22.0103 23.7452 21.5104C23.8291 21.4427 23.9066 21.3715 23.984 21.294C24.2902 20.988 24.5419 20.6231 24.7162 20.2198V20.2167C24.9002 19.7941 24.9999 19.3294 24.9999 18.8427V6.15552C25 5.92661 24.9777 5.7002 24.9354 5.4811ZM2.27095 4.95845C2.58076 4.64897 2.99683 4.46162 3.46782 4.46162H21.5322C22.0032 4.46162 22.4229 4.64897 22.7291 4.95845C22.7838 5.01357 22.8354 5.075 22.881 5.13604L13.4129 13.3877C13.1518 13.6166 12.8292 13.7296 12.5 13.7296C12.1741 13.7296 11.8518 13.6166 11.5872 13.3877L2.12266 5.13252C2.16455 5.07148 2.21616 5.01357 2.27095 4.95845ZM1.77412 18.8427V6.96841L8.62588 12.9457L1.77759 18.9166C1.77412 18.894 1.77412 18.8685 1.77412 18.8427ZM21.5322 20.5359H3.46782C3.16113 20.5359 2.87417 20.4553 2.62925 20.3136L9.85474 14.0168L10.5293 14.6036C11.0938 15.0941 11.8002 15.3426 12.5 15.3426C13.2034 15.3426 13.9098 15.0941 14.4742 14.6036L15.1484 14.0168L22.3711 20.3136C22.1258 20.4553 21.8389 20.5359 21.5322 20.5359ZM23.2259 18.8427C23.2259 18.8685 23.2259 18.894 23.2226 18.9166L16.3743 12.9492L23.2259 6.97158V18.8427Z" fill="#FFBAFF"/>
</svg>
