<svg width="27" height="24" viewBox="0 0 27 24" fill="none" xmlns="http://www.w3.org/2000/svg">
<path d="M24.4688 22.2863H2.53125C1.13063 22.2863 0 21.1377 0 19.7148V4.28627C0 2.86342 1.13063 1.71484 2.53125 1.71484H24.4688C25.8694 1.71484 27 2.86342 27 4.28627V19.7148C27 21.1377 25.8694 22.2863 24.4688 22.2863ZM2.53125 3.42913C2.05875 3.42913 1.6875 3.80627 1.6875 4.28627V19.7148C1.6875 20.1948 2.05875 20.572 2.53125 20.572H24.4688C24.9412 20.572 25.3125 20.1948 25.3125 19.7148V4.28627C25.3125 3.80627 24.9412 3.42913 24.4688 3.42913H2.53125Z" fill="#45084A"/>
<path d="M13.5 15.3594C12.3188 15.3594 11.2388 14.8794 10.4288 14.0051L1.5694 4.43937C1.24877 4.09651 1.26565 3.54794 1.60315 3.22222C1.94065 2.89651 2.48065 2.91365 2.80127 3.25651L11.6606 12.8222C12.6225 13.8679 14.3775 13.8679 15.3394 12.8222L24.1988 3.27365C24.5194 2.93079 25.0594 2.91365 25.3969 3.23937C25.7344 3.56508 25.7513 4.11365 25.4306 4.45651L16.5713 14.0222C15.7613 14.8965 14.6813 15.3765 13.5 15.3765V15.3594Z" fill="#45084A"/>
</svg>
