<svg width="27" height="27" viewBox="0 0 27 27" fill="none" xmlns="http://www.w3.org/2000/svg">
<path d="M9.40568 0.886708C6.70796 1.82257 4.38146 3.59887 2.76788 5.9547C1.15431 8.31052 0.338728 11.1217 0.440929 13.9753C0.543131 16.8289 1.55773 19.5745 3.3357 21.8089C5.11367 24.0433 7.56129 25.6486 10.319 26.3891C12.5548 26.966 14.8973 26.9913 17.145 26.4629C19.1812 26.0055 21.0637 25.0272 22.6083 23.6237C24.2158 22.1183 25.3826 20.2033 25.9833 18.0844C26.6362 15.7803 26.7523 13.3572 26.3229 11.0012H13.7679V16.2092H21.0389C20.8936 17.0399 20.5822 17.8326 20.1233 18.5401C19.6645 19.2476 19.0676 19.8553 18.3684 20.3267C17.4805 20.914 16.4797 21.3092 15.4301 21.4869C14.3774 21.6826 13.2976 21.6826 12.2449 21.4869C11.178 21.2663 10.1686 20.8259 9.28123 20.1938C7.85561 19.1847 6.78516 17.751 6.22264 16.0974C5.65061 14.4129 5.65061 12.5866 6.22264 10.902C6.62305 9.72123 7.28499 8.64612 8.15904 7.75694C9.15929 6.72071 10.4256 5.98 11.8191 5.61609C13.2126 5.25218 14.6795 5.27912 16.0587 5.69397C17.1361 6.02471 18.1213 6.60256 18.9358 7.38147C19.7557 6.56585 20.5741 5.74811 21.3912 4.92827C21.813 4.48741 22.2729 4.06765 22.6884 3.61624C21.4451 2.4592 19.9856 1.55887 18.3937 0.966864C15.4948 -0.0857356 12.3229 -0.114023 9.40568 0.886708Z" fill="white"/>
<path d="M9.40579 0.887733C12.3228 -0.113678 15.4947 -0.0861352 18.3938 0.96578C19.986 1.56181 21.4448 2.46647 22.6864 3.62781C22.2645 4.07922 21.8195 4.50109 21.3892 4.93984C20.5707 5.75687 19.753 6.57109 18.9359 7.3825C18.1214 6.60359 17.1362 6.02573 16.0588 5.695C14.68 5.27869 13.2133 5.25019 11.8194 5.61261C10.4255 5.97503 9.15839 6.71438 8.15704 7.74953C7.28299 8.63871 6.62105 9.71381 6.22063 10.8946L1.8479 7.50906C3.41307 4.40524 6.12307 2.03106 9.40579 0.887733Z" fill="#E33629"/>
<path d="M0.687582 10.8617C0.922611 9.69691 1.31281 8.56888 1.84774 7.50781L6.22047 10.9018C5.64844 12.5864 5.64844 14.4126 6.22047 16.0972C4.7636 17.2222 3.30602 18.3528 1.84774 19.4891C0.508603 16.8235 0.10019 13.7864 0.687582 10.8617Z" fill="#F8BD00"/>
<path d="M13.7678 11H26.3228C26.7522 13.356 26.6361 15.7791 25.9832 18.0833C25.3825 20.2021 24.2157 22.1171 22.6082 23.6225C21.197 22.5214 19.7795 21.4288 18.3683 20.3277C19.068 19.8557 19.6651 19.2474 20.124 18.5392C20.5829 17.8309 20.894 17.0373 21.0388 16.2059H13.7678C13.7657 14.472 13.7678 12.736 13.7678 11Z" fill="#587DBD"/>
<path d="M1.8457 19.4895C3.30398 18.3645 4.76156 17.2339 6.21844 16.0977C6.78208 17.7518 7.85406 19.1856 9.28125 20.1941C10.1714 20.8232 11.1829 21.26 12.2513 21.4766C13.3039 21.6723 14.3837 21.6723 15.4364 21.4766C16.486 21.2989 17.4869 20.9037 18.3748 20.3164C19.7859 21.4175 21.2034 22.5102 22.6146 23.6113C21.0703 25.0155 19.1878 25.9946 17.1513 26.4526C14.9036 26.981 12.5612 26.9557 10.3254 26.3787C8.55711 25.9066 6.90541 25.0743 5.47383 23.934C3.95858 22.731 2.721 21.2149 1.8457 19.4895Z" fill="#319F43"/>
</svg>
