<svg width="30" height="30" viewBox="0 0 30 30" fill="none" xmlns="http://www.w3.org/2000/svg">
<g clip-path="url(#clip0_4598_12459)">
<path fill-rule="evenodd" clip-rule="evenodd" d="M7.47241 9.38672V30H0.0005625V9.38672H7.47241ZM18.7357 9.34863V10.5633C19.8265 9.85927 21.0843 9.45 22.9917 9.45C29.2038 9.45 29.9998 14.2729 29.9998 18.4744V29.9994H22.4904V19.0489C22.4904 17.2072 21.8315 16.858 20.6131 16.858C19.4548 16.858 18.7357 17.226 18.7357 19.0489V29.9994H11.2264V9.34863H18.7357ZM3.73592 0C5.79725 0 7.47184 1.67647 7.47184 3.73592C7.47184 5.79537 5.79725 7.47184 3.73591 7.47184C1.67648 7.47184 0 5.79537 0 3.73591C0 1.67648 1.67647 0 3.73592 0Z" fill="#EFD5F8"/>
</g>
<defs>
<clipPath id="clip0_4598_12459">
<rect width="30" height="30" fill="white"/>
</clipPath>
</defs>
</svg>
