<svg width="19" height="18" viewBox="0 0 19 18" fill="none" xmlns="http://www.w3.org/2000/svg">
<path fill-rule="evenodd" clip-rule="evenodd" d="M18.5 18H14.9V11.7009C14.9 9.97288 14.1377 9.00879 12.7706 9.00879C11.2829 9.00879 10.4 10.0134 10.4 11.7009V18H6.8V6.3H10.4V7.61572C10.4 7.61572 11.5295 5.63379 14.0747 5.63379C16.6208 5.63379 18.5 7.18749 18.5 10.4023V18ZM2.6978 4.42881C1.4837 4.42881 0.5 3.43706 0.5 2.21396C0.5 0.991765 1.4837 0 2.6978 0C3.911 0 4.8947 0.991765 4.8947 2.21396C4.8956 3.43706 3.911 4.42881 2.6978 4.42881ZM0.5 18H5V6.3H0.5V18Z" fill="#45084A"/>
</svg>
