<svg width="64" height="64" viewBox="0 0 64 64" fill="none" xmlns="http://www.w3.org/2000/svg">
<g clip-path="url(#clip0_84_2323)">
<path d="M14.6602 9.85938H61.5431C62.3937 9.85938 63.0442 10.5098 63.0442 11.3604V40.5309C63.0442 41.3815 62.3937 42.032 61.5431 42.032H14.6602C13.8096 42.032 13.1592 41.3815 13.1592 40.5309V11.3604C13.1592 10.5098 13.8096 9.85937 14.6602 9.85938Z" fill="#70169E"/>
<path d="M61.5434 43.0324H14.6604C13.2595 43.0324 12.1587 41.9316 12.1587 40.5306V11.3602C12.1587 9.95917 13.2595 8.8584 14.6604 8.8584H61.5434C62.9443 8.8584 64.0451 9.95917 64.0451 11.3602V40.5306C64.0451 41.8816 62.9443 43.0324 61.5434 43.0324ZM14.6604 10.8598C14.3602 10.8598 14.1601 11.0599 14.1601 11.3602V40.5306C14.1601 40.8308 14.3602 41.031 14.6604 41.031H61.5434C61.8436 41.031 62.0437 40.8308 62.0437 40.5306V11.3602C62.0437 11.0599 61.8436 10.8598 61.5434 10.8598H14.6604Z" fill="#131313"/>
<path d="M10.4073 14.1123H57.3402C58.1908 14.1123 58.8413 14.7628 58.8413 15.6134V44.7838C58.8413 45.6344 58.1908 46.2849 57.3402 46.2849H10.4073C9.55671 46.2849 8.90625 45.6344 8.90625 44.7838V15.6134C8.90625 14.7628 9.55671 14.1123 10.4073 14.1123Z" fill="#70169E"/>
<path d="M57.2904 47.2853H10.4075C9.00653 47.2853 7.90576 46.1845 7.90576 44.7836V15.6131C7.90576 14.2121 9.00653 13.1113 10.4075 13.1113H57.3405C58.7414 13.1113 59.8422 14.2121 59.8422 15.6131V44.7836C59.7922 46.1345 58.6914 47.2853 57.2904 47.2853ZM10.4075 15.1127C10.1073 15.1127 9.90717 15.3129 9.90717 15.6131V44.7836C9.90717 45.0838 10.1073 45.2839 10.4075 45.2839H57.3405C57.6407 45.2839 57.8408 45.0838 57.8408 44.7836V15.6131C57.8408 15.3129 57.6407 15.1127 57.3405 15.1127H10.4075Z" fill="#131313"/>
<path d="M6.50447 18.2656H53.4374C54.288 18.2656 54.9385 18.9161 54.9385 19.7667V48.9372C54.9385 49.7878 54.288 50.4382 53.4374 50.4382H6.50447C5.65387 50.4382 5.00342 49.7878 5.00342 48.9372V19.7667C5.00342 18.9661 5.65387 18.2656 6.50447 18.2656Z" fill="#70169E"/>
<path d="M53.4376 51.4386H6.50469C5.1037 51.4386 4.00293 50.3379 4.00293 48.9369V19.7664C4.00293 18.3654 5.1037 17.2646 6.50469 17.2646H53.4376C54.8386 17.2646 55.9394 18.3654 55.9394 19.7664V48.9369C55.9394 50.2878 54.7886 51.4386 53.4376 51.4386ZM6.50469 19.2661C6.20447 19.2661 6.00433 19.4662 6.00433 19.7664V48.9369C6.00433 49.2371 6.20447 49.4372 6.50469 49.4372H53.4376C53.7378 49.4372 53.938 49.2371 53.938 48.9369V19.7664C53.938 19.4662 53.7378 19.2661 53.4376 19.2661H6.50469Z" fill="#131313"/>
<path d="M2.50154 21.9678H49.4345C50.2851 21.9678 50.9355 22.6182 50.9355 23.4688V52.6393C50.9355 53.4899 50.2851 54.1404 49.4345 54.1404H2.50154C1.65094 54.1404 1.00049 53.4899 1.00049 52.6393V23.4688C1.00049 22.6683 1.65094 21.9678 2.50154 21.9678Z" fill="#70169E"/>
<path d="M49.4347 55.1408H2.50176C1.10077 55.1408 0 54.04 0 52.639V23.4686C0 22.0676 1.10077 20.9668 2.50176 20.9668H49.4347C50.8357 20.9668 51.9364 22.0676 51.9364 23.4686V52.639C51.9364 54.04 50.7856 55.1408 49.4347 55.1408ZM2.50176 22.9682C2.20155 22.9682 2.0014 23.1683 2.0014 23.4686V52.639C2.0014 52.9392 2.20155 53.1394 2.50176 53.1394H49.4347C49.7349 53.1394 49.935 52.9392 49.935 52.639V23.4686C49.935 23.1683 49.7349 22.9682 49.4347 22.9682H2.50176Z" fill="#131313"/>
<path d="M43.13 49.6375H8.80595C8.80595 47.2859 6.85458 45.3345 4.50293 45.3345V30.2239C6.85458 30.2239 8.80595 28.2725 8.80595 25.9209H43.13C43.13 28.2725 45.0814 30.2239 47.4331 30.2239V45.3345C45.0314 45.3345 43.13 47.2859 43.13 49.6375Z" fill="#F8EBFC"/>
<path d="M43.1303 50.638H8.80616C8.25578 50.638 7.80546 50.1877 7.80546 49.6373C7.80546 47.836 6.30441 46.335 4.50314 46.335C3.95276 46.335 3.50244 45.8846 3.50244 45.3343V30.2236C3.50244 29.6733 3.95276 29.2229 4.50314 29.2229C6.30441 29.2229 7.80546 27.7219 7.80546 25.9206C7.80546 25.3702 8.25578 24.9199 8.80616 24.9199H43.1303C43.6806 24.9199 44.131 25.3702 44.131 25.9206C44.131 27.7219 45.632 29.2229 47.4333 29.2229C47.9837 29.2229 48.434 29.6733 48.434 30.2236V45.3343C48.434 45.8846 47.9837 46.335 47.4333 46.335C45.632 46.335 44.131 47.836 44.131 49.6373C44.131 50.1877 43.6806 50.638 43.1303 50.638ZM9.7068 48.6366H42.1796C42.5799 46.5351 44.2811 44.8339 46.3825 44.4336V31.1243C44.2811 30.724 42.5799 29.0228 42.1796 26.9213H9.7068C9.30652 29.0228 7.60532 30.724 5.50385 31.1243V44.3836C7.60532 44.8339 9.30652 46.5351 9.7068 48.6366Z" fill="#131313"/>
<path d="M26.0683 44.5843C24.4672 44.5843 22.766 43.9839 21.5651 42.4328C21.2149 41.9825 21.3149 41.3821 21.7152 41.0318C22.1655 40.6816 22.766 40.7816 23.1162 41.1819C24.317 42.733 26.1683 42.783 27.3692 42.3828C28.3699 42.0325 28.9703 41.3821 28.9703 40.6816C28.9703 40.0311 27.4192 39.5808 26.0683 39.1805C23.9668 38.5301 21.3149 37.7795 21.3149 35.2778C21.3149 34.0769 22.0655 32.9762 23.3664 32.3257C24.9675 31.5251 27.6694 31.2249 30.2212 33.0762C30.6715 33.4265 30.7716 34.0269 30.4213 34.4772C30.0711 34.9275 29.4707 35.0276 29.0204 34.6774C27.3192 33.4265 25.4178 33.4765 24.267 34.0769C23.6666 34.3771 23.2663 34.8275 23.2663 35.2778C23.2663 36.2284 24.6673 36.6788 26.5686 37.2792C28.6201 37.8796 30.8717 38.5801 30.8717 40.6816C30.8717 42.2327 29.7208 43.6336 27.9196 44.2841C27.4192 44.4342 26.7187 44.5843 26.0683 44.5843Z" fill="#131313"/>
<path d="M25.968 33.6766C25.4176 33.6766 24.9673 33.2263 24.9673 32.6759V30.4743C24.9673 29.9239 25.4176 29.4736 25.968 29.4736C26.5184 29.4736 26.9687 29.9239 26.9687 30.4743V32.6759C26.9687 33.2763 26.5184 33.6766 25.968 33.6766Z" fill="#131313"/>
<path d="M25.968 46.4856C25.4176 46.4856 24.9673 46.0353 24.9673 45.4849V43.8337C24.9673 43.2833 25.4176 42.833 25.968 42.833C26.5184 42.833 26.9687 43.2833 26.9687 43.8337V45.4849C26.9687 46.0353 26.5184 46.4856 25.968 46.4856Z" fill="#131313"/>
<path d="M11.0576 38.3796C11.0576 38.6227 11.1055 38.8635 11.1985 39.0881C11.2916 39.3127 11.4279 39.5168 11.5999 39.6887C11.7718 39.8606 11.9758 39.997 12.2005 40.09C12.4251 40.183 12.6658 40.2309 12.9089 40.2309C13.152 40.2309 13.3928 40.183 13.6174 40.09C13.842 39.997 14.0461 39.8606 14.218 39.6887C14.3899 39.5168 14.5263 39.3127 14.6193 39.0881C14.7123 38.8635 14.7602 38.6227 14.7602 38.3796C14.7602 37.8886 14.5652 37.4177 14.218 37.0706C13.8708 36.7234 13.3999 36.5283 12.9089 36.5283C12.4179 36.5283 11.947 36.7234 11.5999 37.0706C11.2527 37.4177 11.0576 37.8886 11.0576 38.3796Z" fill="#FFBAFF"/>
<path d="M12.9091 41.1815C11.358 41.1815 10.0571 39.9307 10.0571 38.3295C10.0571 36.7284 11.308 35.4775 12.9091 35.4775C14.4602 35.4775 15.7611 36.7284 15.7611 38.3295C15.7611 39.9307 14.4602 41.1815 12.9091 41.1815ZM12.9091 37.529C12.4588 37.529 12.0585 37.8792 12.0585 38.3796C12.0585 38.8799 12.4088 39.2302 12.9091 39.2302C13.3594 39.2302 13.7597 38.8799 13.7597 38.3796C13.7597 37.8792 13.3594 37.529 12.9091 37.529Z" fill="#131313"/>
<path d="M37.2764 38.3796C37.2764 38.8706 37.4714 39.3415 37.8186 39.6887C38.1658 40.0359 38.6367 40.2309 39.1277 40.2309C39.6187 40.2309 40.0895 40.0359 40.4367 39.6887C40.7839 39.3415 40.979 38.8706 40.979 38.3796C40.979 37.8886 40.7839 37.4177 40.4367 37.0706C40.0895 36.7234 39.6187 36.5283 39.1277 36.5283C38.6367 36.5283 38.1658 36.7234 37.8186 37.0706C37.4714 37.4177 37.2764 37.8886 37.2764 38.3796Z" fill="#FFBAFF"/>
<path d="M39.1274 41.1815C37.5763 41.1815 36.2754 39.9307 36.2754 38.3295C36.2754 36.7284 37.5263 35.4775 39.1274 35.4775C40.6785 35.4775 41.9794 36.7284 41.9794 38.3295C41.9794 39.9307 40.6785 41.1815 39.1274 41.1815ZM39.1274 37.529C38.6771 37.529 38.2768 37.8792 38.2768 38.3796C38.2768 38.8799 38.627 39.2302 39.1274 39.2302C39.6277 39.2302 39.978 38.8799 39.978 38.3796C39.978 37.8792 39.5777 37.529 39.1274 37.529Z" fill="#131313"/>
</g>
<defs>
<clipPath id="clip0_84_2323">
<rect width="64" height="64" fill="white"/>
</clipPath>
</defs>
</svg>
