<svg width="25" height="24" viewBox="0 0 25 24" fill="none" xmlns="http://www.w3.org/2000/svg">
<path d="M5.61035 15.1337C5.61035 16.508 4.48948 17.6306 3.11491 17.6306C1.74035 17.6306 0.618164 16.508 0.618164 15.1337C0.618164 13.7593 1.74073 12.6367 3.1151 12.6367H5.61054L5.61035 15.1337ZM6.86829 15.1337C6.86829 13.7593 7.99085 12.6367 9.36523 12.6367C10.7396 12.6367 11.8622 13.7591 11.8622 15.1337V21.384C11.8622 22.7583 10.7398 23.8809 9.36523 23.8809C7.99085 23.8809 6.86829 22.7583 6.86829 21.384V15.1337Z" fill="#DE1C59"/>
<path d="M9.36523 5.10938C7.99085 5.10938 6.86829 3.9885 6.86829 2.61394C6.86829 1.23937 7.99085 0.117188 9.36523 0.117188C10.7396 0.117188 11.8622 1.23975 11.8622 2.61412V5.10956L9.36523 5.10938ZM9.36523 6.36731C10.7396 6.36731 11.8622 7.48987 11.8622 8.86425C11.8622 10.2386 10.7398 11.3612 9.36523 11.3612H3.11491C1.74054 11.3612 0.618164 10.2388 0.618164 8.86425C0.618164 7.48987 1.74073 6.36731 3.1151 6.36731H9.36523Z" fill="#35C5F0"/>
<path d="M19.3895 8.86425C19.3895 7.48987 20.5104 6.36731 21.8849 6.36731C23.2595 6.36731 24.3819 7.48987 24.3819 8.86425C24.3819 10.2386 23.2593 11.3612 21.8849 11.3612H19.3895V8.86425ZM18.1316 8.86425C18.1316 10.2386 17.009 11.3612 15.6346 11.3612C14.2603 11.3612 13.1377 10.2388 13.1377 8.86425V2.61394C13.1377 1.23956 14.2601 0.117188 15.6346 0.117188C17.009 0.117188 18.1316 1.23975 18.1316 2.61412V8.86425Z" fill="#2EB57D"/>
<path d="M15.6346 18.8885C17.009 18.8885 18.1316 20.0094 18.1316 21.384C18.1316 22.7585 17.009 23.8809 15.6346 23.8809C14.2603 23.8809 13.1377 22.7583 13.1377 21.384V18.8885H15.6346ZM15.6346 17.6306C14.2603 17.6306 13.1377 16.508 13.1377 15.1337C13.1377 13.7593 14.2601 12.6367 15.6346 12.6367H21.8849C23.2593 12.6367 24.3819 13.7591 24.3819 15.1337C24.3819 16.508 23.2593 17.6306 21.8849 17.6306H15.6346Z" fill="#EBB02E"/>
</svg>
