<svg width="625" height="357" viewBox="0 0 625 357" fill="none" xmlns="http://www.w3.org/2000/svg">
<g clip-path="url(#clip0_219_1841)">
<path d="M271.77 158.58L270.69 213.79C270.642 216.289 271.286 218.753 272.55 220.91L286.55 244.91C287.53 246.589 287.916 248.549 287.645 250.473C287.375 252.398 286.464 254.176 285.06 255.52L262.27 277.34C261.147 278.412 259.826 279.255 258.38 279.82L250.48 282.92C249.138 283.445 247.935 284.272 246.964 285.337C245.993 286.402 245.28 287.675 244.88 289.06L242.4 297.74L209.9 356L191.76 343.85L191.16 343.45L183.35 338.21L180.29 336.16L174.54 332.32L171.16 330L166.37 326.79L164.06 325.24L160.06 322.57L157.85 321.09C157.673 320.981 157.506 320.858 157.35 320.72C154.437 318.599 152.386 315.5 151.57 311.99C150.809 308.672 149.382 305.543 147.376 302.793C145.37 300.043 142.827 297.728 139.9 295.99L23.9 226.99C22.5907 226.214 21.5092 225.107 20.7647 223.779C20.0203 222.452 19.6392 220.952 19.66 219.43L19.81 208.29C22.6019 205.723 25.7938 203.629 29.26 202.09L48.59 213.86C38.9688 204.355 31.5154 192.883 26.74 180.23C24.74 174.97 21.74 166.69 20.44 158.38L20.62 144.77L20.82 129C20.8368 128.549 20.993 128.115 21.267 127.757C21.541 127.399 21.9194 127.134 22.35 127L41.25 121.22C41.5052 121.148 41.7402 121.017 41.9366 120.839C42.1331 120.661 42.2857 120.44 42.3825 120.193C42.4793 119.946 42.5178 119.68 42.4948 119.416C42.4718 119.152 42.388 118.896 42.25 118.67L39.72 114.55C39.5666 114.301 39.4723 114.021 39.4444 113.73C39.4165 113.439 39.4557 113.145 39.5591 112.872C39.6625 112.599 39.8272 112.353 40.0406 112.153C40.254 111.953 40.5104 111.805 40.79 111.72L48.74 109.34C48.95 109.275 49.1383 109.154 49.2848 108.991C49.4313 108.827 49.5304 108.626 49.5715 108.41C49.6127 108.194 49.5942 107.971 49.5182 107.765C49.4422 107.559 49.3114 107.377 49.14 107.24L34.5 95.47C34.2525 95.258 34.0704 94.98 33.9747 94.6685C33.8791 94.3569 33.874 94.0247 33.9599 93.7103C34.0458 93.396 34.2193 93.1125 34.4601 92.8929C34.7008 92.6733 34.9991 92.5267 35.32 92.47L47.75 90.56L25.58 50.56C24.5669 48.7402 24.1861 46.6358 24.4973 44.5764C24.8086 42.517 25.7943 40.6191 27.3 39.18L65.39 2.67C66.9253 1.18472 68.9553 0.319272 71.09 0.239998L77.21 -2.09175e-06C79.0985 -0.0632496 80.9465 0.555929 82.4157 1.74414C83.8849 2.93234 84.8769 4.61005 85.21 6.47L88.49 25.07C88.8224 26.9352 89.7837 28.6303 91.2138 29.873C92.644 31.1158 94.4566 31.8311 96.35 31.9L122.04 32.81C123.8 32.8804 125.516 33.3781 127.04 34.26L171.41 60.08C173.233 61.1638 175.292 61.7883 177.41 61.9L193.54 62.81C195.246 62.9 196.93 63.2368 198.54 63.81L211.44 68.5C213.079 69.0993 214.842 69.2805 216.569 69.0274C218.295 68.7742 219.932 68.0946 221.33 67.05L253.91 42.74C255.335 41.668 257.046 41.0435 258.826 40.9456C260.607 40.8476 262.376 41.2808 263.91 42.19L273.78 48C275.807 49.1951 278.117 49.8237 280.47 49.82H294.39C295.205 49.8119 296.006 50.0352 296.699 50.464C297.393 50.8927 297.95 51.5093 298.307 52.2423C298.664 52.9752 298.806 53.7943 298.716 54.6046C298.627 55.4149 298.309 56.1831 297.8 56.82L273.13 88.64L273.03 93.21L272.61 115.45L272.38 126.61V128L272.12 141.36L272.06 144.45L271.88 152.79L271.77 158.58Z" fill="#FFBAFF"/>
<path d="M336 142.5V101.6H319.92V92.1H363.84V101.6H347.71V142.5H336Z" fill="#70169E"/>
<path d="M381.69 133.14H409.12V142.5H370.12V92.1H408.21V101.46H381.71L381.69 133.14ZM380.83 112.4H405.09V121.48H380.83V112.4Z" fill="#70169E"/>
<path d="M442.53 143.36C438.834 143.396 435.163 142.752 431.7 141.46C428.461 140.246 425.502 138.389 423 136C420.552 133.656 418.606 130.839 417.28 127.72C414.533 121.031 414.533 113.529 417.28 106.84C418.61 103.713 420.571 100.894 423.04 98.56C425.542 96.1914 428.489 94.3424 431.71 93.12C439.074 90.4677 447.154 90.5957 454.43 93.48C457.889 94.9477 460.94 97.2332 463.32 100.14L455.83 107.06C454.241 105.196 452.279 103.687 450.07 102.63C447.905 101.63 445.545 101.125 443.16 101.15C440.948 101.129 438.75 101.519 436.68 102.3C434.764 103.038 433.023 104.169 431.57 105.62C430.116 107.077 428.976 108.816 428.22 110.73C426.633 114.953 426.633 119.607 428.22 123.83C428.976 125.744 430.116 127.483 431.57 128.94C433.023 130.391 434.764 131.522 436.68 132.26C438.75 133.041 440.948 133.431 443.16 133.41C445.545 133.435 447.905 132.93 450.07 131.93C452.292 130.863 454.257 129.328 455.83 127.43L463.32 134.34C460.939 137.256 457.889 139.554 454.43 141.04C450.667 142.629 446.615 143.419 442.53 143.36Z" fill="#70169E"/>
<path d="M482.85 142.5H471.19V92.1H482.85V142.5ZM506.61 121.84H482V112H506.62L506.61 121.84ZM505.75 92.1H517.41V142.5H505.75V92.1Z" fill="#70169E"/>
<path d="M342.161 229.76C338.24 229.775 334.337 229.23 330.571 228.14C327.362 227.293 324.335 225.867 321.641 223.93L325.641 215.15C327.999 216.778 330.583 218.051 333.311 218.93C336.211 219.904 339.251 220.4 342.311 220.4C344.194 220.457 346.076 220.228 347.891 219.72C349.095 219.394 350.18 218.732 351.021 217.81C351.679 217.023 352.034 216.026 352.021 215C352.039 214.377 351.904 213.759 351.626 213.201C351.349 212.643 350.938 212.162 350.431 211.8C349.167 210.911 347.755 210.254 346.261 209.86C344.534 209.347 342.624 208.867 340.531 208.42C338.441 207.96 336.361 207.42 334.271 206.72C332.264 206.089 330.34 205.22 328.541 204.13C326.831 203.088 325.389 201.66 324.331 199.96C323.178 197.946 322.616 195.648 322.711 193.33C322.685 190.528 323.5 187.783 325.051 185.45C326.806 182.912 329.258 180.936 332.111 179.76C335.864 178.228 339.899 177.505 343.951 177.64C347.104 177.638 350.246 178.011 353.311 178.75C356.188 179.416 358.938 180.547 361.451 182.1L357.851 190.96C355.633 189.667 353.261 188.659 350.791 187.96C348.543 187.315 346.219 186.979 343.881 186.96C342.002 186.901 340.128 187.168 338.341 187.75C337.131 188.119 336.054 188.831 335.241 189.8C334.616 190.644 334.285 191.67 334.301 192.72C334.288 193.332 334.427 193.938 334.704 194.484C334.982 195.03 335.389 195.499 335.891 195.85C337.13 196.745 338.523 197.406 340.001 197.8C341.734 198.28 343.644 198.76 345.731 199.24C347.821 199.72 349.901 200.24 351.991 200.89C354 201.484 355.925 202.331 357.721 203.41C359.431 204.456 360.873 205.887 361.931 207.59C363.078 209.577 363.639 211.848 363.551 214.14C363.568 216.915 362.738 219.63 361.171 221.92C359.382 224.436 356.926 226.403 354.081 227.6C350.306 229.161 346.242 229.897 342.161 229.76Z" fill="#70169E"/>
<path d="M371.54 228.9V178.5H383.2V228.9H371.54Z" fill="#70169E"/>
<path d="M411.71 229.76C407.79 229.775 403.887 229.23 400.12 228.14C396.912 227.293 393.885 225.867 391.19 223.93L395.19 215.15C397.55 216.776 400.134 218.049 402.86 218.93C405.761 219.904 408.801 220.4 411.86 220.4C413.744 220.457 415.626 220.228 417.44 219.72C418.644 219.394 419.73 218.732 420.57 217.81C421.229 217.023 421.584 216.026 421.57 215C421.589 214.377 421.454 213.759 421.176 213.201C420.899 212.643 420.488 212.162 419.98 211.8C418.717 210.911 417.305 210.254 415.81 209.86C414.077 209.347 412.167 208.867 410.08 208.42C407.99 207.96 405.91 207.42 403.82 206.72C401.814 206.089 399.89 205.22 398.09 204.13C396.38 203.088 394.939 201.66 393.88 199.96C392.727 197.946 392.166 195.648 392.26 193.33C392.234 190.528 393.05 187.783 394.6 185.45C396.356 182.912 398.808 180.936 401.66 179.76C405.414 178.228 409.449 177.505 413.5 177.64C416.653 177.638 419.795 178.011 422.86 178.75C425.738 179.416 428.488 180.547 431 182.1L427.4 190.96C425.183 189.667 422.811 188.659 420.34 187.96C418.093 187.315 415.768 186.979 413.43 186.96C411.552 186.901 409.678 187.168 407.89 187.75C406.681 188.119 405.604 188.831 404.79 189.8C404.168 190.645 403.842 191.671 403.86 192.72C403.846 193.331 403.983 193.937 404.259 194.483C404.534 195.029 404.94 195.498 405.44 195.85C406.701 196.738 408.115 197.385 409.61 197.76C411.337 198.24 413.247 198.72 415.34 199.2C417.43 199.68 419.51 200.2 421.6 200.85C423.609 201.444 425.535 202.291 427.33 203.37C429.041 204.416 430.483 205.847 431.54 207.55C432.688 209.537 433.249 211.808 433.16 214.1C433.178 216.875 432.348 219.59 430.78 221.88C428.992 224.396 426.536 226.363 423.69 227.56C419.901 229.143 415.815 229.893 411.71 229.76Z" fill="#70169E"/>
<path d="M450.81 228.9V188H434.68V178.5H478.6V188H462.47V228.9H450.81Z" fill="#70169E"/>
<path d="M496.461 219.54H523.891V228.9H484.891V178.5H523.001V187.86H496.461V219.54ZM495.591 198.8H519.861V207.88H495.591V198.8Z" fill="#70169E"/>
<path d="M533.18 228.9V178.5H555C559.002 178.399 562.979 179.149 566.67 180.7C569.753 182.012 572.383 184.203 574.23 187C576.057 189.932 576.982 193.336 576.89 196.79C576.978 200.208 576.053 203.577 574.23 206.47C572.376 209.243 569.746 211.41 566.67 212.7C562.972 214.222 558.997 214.958 555 214.86H539.66L544.84 209.75V228.9H533.18ZM544.84 211L539.66 205.53H554.34C557.94 205.53 560.63 204.75 562.41 203.19C564.115 201.472 565.071 199.15 565.071 196.73C565.071 194.31 564.115 191.988 562.41 190.27C560.63 188.73 557.94 187.96 554.34 187.96H539.66L544.84 182.42V211ZM565.22 228.86L552.62 210.57H565.07L577.82 228.86H565.22Z" fill="#70169E"/>
<path d="M602.661 229.76C598.736 229.776 594.83 229.23 591.061 228.14C587.854 227.296 584.83 225.869 582.141 223.93L586.141 215.15C588.495 216.778 591.076 218.051 593.801 218.93C596.702 219.903 599.741 220.399 602.801 220.4C604.684 220.457 606.566 220.228 608.381 219.72C609.585 219.394 610.67 218.732 611.511 217.81C612.169 217.023 612.524 216.026 612.511 215C612.529 214.377 612.394 213.759 612.116 213.201C611.839 212.643 611.428 212.162 610.921 211.8C609.659 210.908 608.246 210.251 606.751 209.86C605.017 209.347 603.107 208.867 601.021 208.42C598.941 207.96 596.851 207.42 594.761 206.72C592.756 206.091 590.836 205.221 589.041 204.13C587.325 203.091 585.88 201.663 584.821 199.96C583.668 197.946 583.106 195.648 583.201 193.33C583.175 190.528 583.99 187.783 585.541 185.45C587.296 182.912 589.748 180.936 592.601 179.76C596.354 178.228 600.389 177.505 604.441 177.64C607.594 177.638 610.736 178.011 613.801 178.75C616.679 179.414 619.429 180.546 621.941 182.1L618.341 190.96C616.123 189.667 613.751 188.659 611.281 187.96C609.033 187.315 606.709 186.979 604.371 186.96C602.492 186.901 600.618 187.168 598.831 187.75C597.622 188.122 596.546 188.833 595.731 189.8C595.109 190.645 594.782 191.671 594.801 192.72C594.786 193.331 594.923 193.937 595.199 194.483C595.474 195.029 595.88 195.498 596.381 195.85C597.645 196.738 599.062 197.385 600.561 197.76C602.281 198.24 604.187 198.72 606.281 199.2C608.374 199.68 610.461 200.23 612.541 200.85C614.55 201.444 616.475 202.291 618.271 203.37C619.983 204.413 621.426 205.845 622.481 207.55C623.628 209.537 624.189 211.808 624.101 214.1C624.118 216.875 623.288 219.59 621.721 221.88C619.932 224.396 617.476 226.363 614.631 227.56C610.844 229.143 606.762 229.893 602.661 229.76Z" fill="#70169E"/>
<path d="M325.601 315.3V264.9H337.201V315.3H325.601ZM336.001 303.78L335.361 290.32L359.481 264.9H372.481L350.731 288.3L344.251 295.21L336.001 303.78ZM360.001 315.3L342.071 293.3L349.711 285.02L373.611 315.26L360.001 315.3Z" fill="#70169E"/>
<path d="M390.48 305.94H417.91V315.3H378.91V264.9H417V274.26H390.48V305.94ZM389.61 285.2H413.88V294.28H389.61V285.2Z" fill="#70169E"/>
<path d="M427.19 315.3V264.9H436.84L466.58 301.19H461.9V264.9H473.42V315.3H463.84L434 279H438.68V315.3H427.19Z" fill="#70169E"/>
<path d="M497.901 315.3V294.71L500.561 301.76L478.391 264.9H490.771L507.771 293.2H500.651L517.711 264.9H529.161L507.001 301.76L509.591 294.71V315.3H497.901Z" fill="#70169E"/>
<path d="M524.32 315.3L546.79 264.9H558.31L580.84 315.3H568.6L550.17 270.8H554.78L536.27 315.3H524.32ZM535.55 304.5L538.65 295.64H564.57L567.74 304.5H535.55Z" fill="#70169E"/>
<path d="M194.22 265.55C187.51 265.55 182.07 259.2 182.07 251.38C182.07 243.56 187.51 237.22 194.22 237.22C200.93 237.22 206.36 243.56 206.36 251.38C206.36 259.2 200.92 265.55 194.22 265.55Z" fill="#70169E"/>
<path d="M0.310125 108.59C4.12012 84.93 36.5201 56.24 52.1801 43.12C59.2901 37.17 65.1801 32.56 68.6401 29.89C69.0901 29.2 70.1901 27.41 69.5301 26.31C69.1901 25.74 68.2001 25.07 64.7001 25.59C50.7001 27.69 35.7001 37.59 35.7001 37.59C30.7001 40.91 24.2101 45.4 16.8901 51.08C19.8601 45.17 33.2801 20 63.4801 9.14999C104 -5.36001 138.81 18.84 142 21.13C133.828 23.7697 125.815 26.8782 118 30.44C107 35.44 92.7901 43.02 93.3801 44.44C94.0501 46.03 113.38 38.92 145.94 32.44C160.06 29.64 171.66 27.95 179.87 34.44C181.01 35.34 186.55 39.72 186.52 45.75C186.52 50.9 182.42 54.69 180.52 56.4C169 66.84 163.21 72.07 142 83.66C132.22 89 118.92 98.21 105.41 114.93C125.788 106.478 145.378 96.2379 163.95 84.33C178.08 75.22 192.52 64.47 203.87 69.69C209.51 72.29 211.94 77.69 212.52 79.01C217.36 89.84 212.09 105.01 198.52 116.26C206.42 112.54 215.13 113.33 220.52 118.26C225.52 122.91 225.78 129.57 225.84 131.56C226.19 142.64 217.79 149.82 216.53 150.86C216.24 152.13 216.02 153.86 216.9 154.58C218.24 155.68 220.9 153.49 224.65 152.52C228.83 151.43 234.23 151.91 237.57 154.32C242.06 157.58 243.57 164.9 241.44 172.4C241.868 173.727 242.386 175.023 242.99 176.28C245.9 182.28 248.91 183.28 250.99 186.61C253.07 189.94 252.27 196.68 250.47 209.86C249.59 216.29 249.11 217.51 249.7 220.19C250.7 224.82 253.7 228.33 256.85 230.88C258.798 232.494 260.406 234.479 261.58 236.72C261.88 239.04 261.2 239.96 260.8 240.33C260.4 240.7 259.91 240.98 256.41 241.11C253.54 241.22 252.79 241.03 252.28 241.62C251.971 242.138 251.83 242.74 251.876 243.341C251.923 243.943 252.155 244.515 252.54 244.98C254.07 246.92 257.28 245.46 258.48 247.31C258.715 247.747 258.837 248.234 258.837 248.73C258.837 249.226 258.715 249.713 258.48 250.15C257.78 251.56 255.48 250.39 253.31 251.96C252.95 252.22 251.87 252.96 252.03 253.67C252.32 254.94 256.82 254.37 257.12 255.67C257.31 256.45 255.82 257.41 255.6 257.55C254.3 258.4 253.31 258.18 252.2 258.55C250.11 259.22 249.08 261.43 248.63 262.39C247.14 265.52 248.75 267.07 247.53 269.99C246.68 271.84 245.232 273.351 243.42 274.28C238.73 276.68 232.94 273.79 229.64 272.14C225.4 270.01 225.42 268.79 221.77 267.31C219.187 266.274 216.433 265.732 213.65 265.71C214.272 263.391 214.588 261.001 214.59 258.6C214.59 245.49 205.48 234.86 194.24 234.86C183 234.86 173.88 245.49 173.88 258.6C173.88 271.71 182.99 282.36 194.24 282.36C194.972 282.359 195.704 282.312 196.43 282.22C195 285.67 193.87 289.09 192.97 291.81C188.97 304.02 184.5 317.53 190.11 333.31C193.453 342.422 199.279 350.417 206.93 356.39H128.93C137.098 341.721 144.142 326.454 150 310.72C163.89 273.6 165.37 260.63 165.39 255.45C165.352 242.598 162.737 229.884 157.7 218.06C154.368 219.243 150.96 220.202 147.5 220.93C139.39 222.63 135.3 223.49 130.69 222C123.89 219.81 117.41 213 118.34 207.87C119.06 203.95 123.98 201.7 122.99 199.28C122.57 198.28 121.31 197.79 120.49 197.49C118.426 196.874 116.21 197.002 114.23 197.85C107.163 200.376 99.9289 202.407 92.5801 203.93C89.1001 204.57 78.0501 206.56 72.5801 200.53C68.1201 195.66 68.6501 187 71.5001 181C76.1001 171.35 85.5001 171.52 101.73 163.11C114.08 156.72 112.64 154.56 138.73 135.03C145.73 129.81 156.32 122.11 169.86 113.2C158.811 117.506 148.002 122.403 137.48 127.87C121.67 136.09 109.3 142.52 95.0901 153.99C84.1801 162.78 71.7401 169.69 61.4601 179.21C59.3201 181.21 54.3301 185.93 48.2201 185.29C46.0093 184.982 43.9079 184.136 42.1 182.826C40.292 181.517 38.8328 179.784 37.8501 177.78C35.3601 172.66 37.0501 167 38.5601 163.11C51.8701 129 91.1701 93 91.1701 93C99.7501 85.16 111.96 74.36 127.31 62.06C120.451 62.9502 113.685 64.446 107.09 66.53C83.9801 73.83 68.0901 86.83 59.1601 94.25C47.3101 104.14 33.4401 112 23.5601 123.8C22.0592 125.702 19.9933 127.078 17.6601 127.73C11.9401 129.15 4.76012 125.17 1.74012 119.5C0.0773783 116.119 -0.425197 112.285 0.310125 108.59Z" fill="#70169E"/>
<path d="M167.16 329.55L153.16 334.55L150.7 331.65L157.9 318.6L160.27 321.39L153.59 333L152.27 331.44L164.8 326.8L167.16 329.55Z" fill="#FFBAFF"/>
<path d="M171.65 333.57L161.18 306.3L164.29 303.67L174.75 330.94L171.65 333.57Z" fill="#FFBAFF"/>
<path d="M178.661 319.8L176.291 317L182.921 305.39L184.241 306.96L171.711 311.6L169.351 308.81L183.401 303.81L185.861 306.71L178.661 319.8Z" fill="#FFBAFF"/>
</g>
<defs>
<clipPath id="clip0_219_1841">
<rect width="624.04" height="356.34" fill="white"/>
</clipPath>
</defs>
</svg>
