<svg width="24" height="24" viewBox="0 0 24 24" fill="none" xmlns="http://www.w3.org/2000/svg">
<path d="M13.081 10.712L8.29499 4.002C8.23948 3.92404 8.16614 3.86049 8.08107 3.81666C7.996 3.77282 7.90168 3.74996 7.80599 3.75H5.27999C5.16989 3.75014 5.06195 3.78057 4.96799 3.83797C4.87403 3.89536 4.79768 3.9775 4.74729 4.07539C4.6969 4.17328 4.67441 4.28315 4.6823 4.39296C4.69018 4.50278 4.72813 4.60831 4.79199 4.698L10.919 13.288M13.081 10.712L19.208 19.302C19.2718 19.3917 19.3098 19.4972 19.3177 19.607C19.3256 19.7169 19.3031 19.8267 19.2527 19.9246C19.2023 20.0225 19.1259 20.1046 19.032 20.162C18.938 20.2194 18.8301 20.2499 18.72 20.25H16.194C16.0983 20.25 16.004 20.2272 15.9189 20.1833C15.8338 20.1395 15.7605 20.076 15.705 19.998L10.919 13.288M13.081 10.712L18.923 3.75M10.919 13.288L5.07699 20.25" stroke="#EFD5F8" stroke-width="1.5" stroke-linecap="round" stroke-linejoin="round"/>
</svg>
