<svg width="528" height="590" viewBox="0 0 528 590" fill="none" xmlns="http://www.w3.org/2000/svg">
<g opacity="0.4">
<path d="M135.913 1.00781C139.46 0.896596 142.94 1.98516 145.714 4.08594C148.489 6.18774 150.377 9.16679 151.012 12.4863L151.013 12.4893L156.788 43.1553H156.787C157.327 45.9891 158.89 48.5777 161.232 50.4834C163.576 52.3904 166.557 53.4952 169.679 53.6016H169.678L214.91 55.1016H214.914C218.163 55.2233 221.335 56.084 224.156 57.6123L224.159 57.6133L302.281 100.184L302.289 100.188C305.362 101.898 308.838 102.887 312.416 103.063H312.42L340.82 104.563H340.819C343.719 104.707 346.585 105.218 349.338 106.084L349.887 106.263L349.893 106.265L372.606 113.997H372.607C375.345 114.934 378.291 115.219 381.178 114.822C384.064 114.426 386.795 113.363 389.124 111.733L446.488 71.6533C449.154 69.7761 452.349 68.6865 455.666 68.5156C458.984 68.3447 462.286 69.1 465.153 70.6914H465.152L482.529 80.2695C485.947 82.1566 489.848 83.1513 493.824 83.1455H518.334C519.942 83.1322 521.525 83.5451 522.901 84.3418C524.28 85.1403 525.4 86.2946 526.119 87.6777C526.839 89.0616 527.127 90.6137 526.945 92.1514C526.763 93.6889 526.12 95.1397 525.1 96.3359L525.099 96.335L481.893 148.519L481.726 155.706L480.986 192.37V192.372L480.581 210.771V213.062L480.123 235.089L480.018 240.183V240.186L479.7 253.936L479.507 263.479V263.479L477.605 354.504C477.531 358.181 478.473 361.814 480.342 365.05L480.729 365.691L480.729 365.693L505.379 405.262C507.228 408.228 507.96 411.698 507.448 415.111C506.968 418.31 505.425 421.27 503.059 423.576L502.574 424.028L462.448 460.003L462.447 460.004C460.375 461.858 457.937 463.311 455.275 464.285L441.366 469.396V469.397C439.14 470.213 437.149 471.495 435.547 473.141C433.946 474.785 432.773 476.746 432.117 478.872L432.118 478.873L427.752 493.184L427.717 493.3L427.654 493.403L370.432 589.457L369.908 590.336L369.041 589.792L337.102 569.761V569.76L336.047 569.103L336.045 569.101L322.294 560.462L316.907 557.082L306.783 550.752L306.773 550.745L300.831 546.926L292.397 541.634H292.396L288.329 539.078V539.077L281.289 534.677H281.287L277.396 532.236V532.235C277.066 532.043 276.751 531.826 276.456 531.586C271.149 527.957 267.395 522.652 265.899 516.627V516.624C264.594 511.294 262.144 506.262 258.697 501.837C255.25 497.411 250.876 493.683 245.837 490.881L245.836 490.88L41.5957 377.12C39.1422 375.759 37.1073 373.811 35.7031 371.467C34.2985 369.122 33.5769 366.466 33.6162 363.768L33.8799 345.401L33.8867 344.951L34.2275 344.657C39.2249 340.355 44.9361 336.848 51.1348 334.271L51.5879 334.082L52.0137 334.325L79.2236 349.84C64.8946 335.219 53.6596 318.148 46.1553 299.529L45.4746 297.844C41.9786 289.134 37.1673 276.249 35.0029 263.294L34.9883 263.205L34.9893 263.114L35.3057 240.676L35.6582 214.677V214.663L35.6592 214.65C35.6977 213.685 36.055 212.762 36.6709 212.008C37.286 211.255 38.1274 210.708 39.0723 210.433L39.0771 210.431L72.3545 200.901L72.3633 200.898L72.373 200.896C72.682 200.815 72.9618 200.668 73.1914 200.473C73.4206 200.278 73.5933 200.041 73.7012 199.783C73.8088 199.526 73.8503 199.252 73.8252 198.981C73.8 198.71 73.7079 198.444 73.5518 198.204V198.203L69.1006 191.416L68.9727 191.21C68.69 190.72 68.5127 190.178 68.4551 189.615C68.3893 188.972 68.4822 188.325 68.7246 187.725C68.9668 187.125 69.3509 186.591 69.8408 186.162C70.3307 185.733 70.9149 185.418 71.5459 185.238L71.5498 185.237L85.5391 181.315C85.7444 181.256 85.9207 181.148 86.0527 181.01C86.1843 180.872 86.2671 180.71 86.3008 180.544C86.3343 180.379 86.3202 180.208 86.2568 180.047C86.1931 179.885 86.08 179.733 85.9209 179.613H85.9199L60.1436 160.208L60.1309 160.198L60.1191 160.188C59.5374 159.722 59.1 159.103 58.8691 158.398C58.6382 157.693 58.6261 156.94 58.834 156.228C59.0417 155.516 59.4576 154.883 60.0244 154.399C60.5908 153.916 61.2859 153.599 62.0254 153.477L62.0352 153.475L62.0459 153.473L82.4512 150.537L44.1797 85.877L43.8369 85.2715C42.1931 82.2154 41.5961 78.7446 42.1455 75.3408C42.7314 71.7112 44.5851 68.378 47.4004 65.8584L114.461 5.66797C117.344 3.05579 121.146 1.5434 125.132 1.4043L135.907 1.00781H135.913Z" fill="#FFBAFF" stroke="white" stroke-width="2"/>
<path d="M342.002 439.817C330.187 439.817 320.609 429.348 320.609 416.455C320.609 403.562 330.187 393.109 342.002 393.109C353.816 393.109 363.377 403.562 363.377 416.455C363.377 429.348 353.798 439.817 342.002 439.817Z" fill="#70169E"/>
<path d="M0.580427 181.024C7.28872 142.016 64.3356 94.7144 91.9082 73.0835C104.427 63.2737 114.797 55.6732 120.889 51.2711C121.682 50.1335 123.619 47.1824 122.456 45.3688C121.858 44.429 120.115 43.3244 113.952 44.1817C89.3024 47.644 62.8918 63.9661 62.8918 63.9661C54.0883 69.4398 42.6613 76.8425 29.7729 86.2071C35.0022 76.4633 58.6309 34.9655 111.804 17.0771C183.148 -6.84561 244.438 33.053 250.055 36.8285C235.666 41.1806 221.557 46.3056 207.798 52.1779C188.43 60.4214 163.41 72.9186 164.449 75.2597C165.629 77.8812 199.663 66.1589 256.992 55.4753C281.853 50.859 302.277 48.0726 316.733 58.7727C318.74 60.2566 328.494 67.4779 328.441 77.4195C328.441 85.9104 321.223 92.1589 317.877 94.9782C297.594 112.191 287.399 120.813 250.055 139.922C232.835 148.726 209.418 163.91 185.631 191.477C221.511 177.542 256.003 160.659 288.702 141.026C313.581 126.007 339.006 108.283 358.99 116.889C368.92 121.176 373.199 130.079 374.22 132.255C382.742 150.111 373.463 175.122 349.57 193.67C363.48 187.536 378.815 188.839 388.305 196.967C397.109 204.633 397.567 215.614 397.672 218.895C398.289 237.162 383.499 249 381.28 250.715C380.77 252.808 380.382 255.661 381.932 256.848C384.291 258.661 388.975 255.051 395.577 253.451C402.937 251.654 412.445 252.446 418.326 256.419C426.231 261.794 428.89 273.862 425.139 286.228C425.893 288.415 426.805 290.553 427.869 292.625C432.992 302.517 438.292 304.166 441.954 309.656C445.616 315.146 444.208 326.258 441.039 347.988C439.489 358.589 438.644 360.601 439.683 365.019C441.444 372.653 446.726 378.44 452.272 382.644C455.701 385.305 458.532 388.578 460.6 392.272C461.128 396.097 459.931 397.614 459.227 398.224C458.522 398.834 457.66 399.296 451.497 399.51C446.444 399.691 445.123 399.378 444.225 400.351C443.681 401.205 443.433 402.197 443.515 403.189C443.597 404.181 444.005 405.125 444.683 405.89C447.377 409.089 453.029 406.682 455.142 409.732C455.555 410.452 455.771 411.256 455.771 412.073C455.771 412.89 455.555 413.694 455.142 414.414C453.909 416.739 449.86 414.81 446.039 417.398C445.405 417.827 443.504 419.047 443.785 420.218C444.296 422.311 452.219 421.372 452.747 423.515C453.082 424.801 450.458 426.384 450.071 426.615C447.782 428.016 446.039 427.653 444.085 428.263C440.405 429.368 438.591 433.012 437.799 434.594C435.175 439.755 438.01 442.31 435.862 447.124C434.365 450.175 431.817 452.666 428.626 454.197C420.368 458.154 410.173 453.39 404.363 450.669C396.898 447.157 396.933 445.146 390.506 442.706C385.958 440.998 381.109 440.103 376.209 440.068C377.304 436.245 377.861 432.304 377.864 428.346C377.864 406.731 361.824 389.206 342.034 389.206C322.244 389.206 306.186 406.731 306.186 428.346C306.186 449.96 322.226 467.519 342.034 467.519C343.323 467.517 344.611 467.44 345.89 467.288C343.372 472.976 341.383 478.615 339.798 483.099C332.755 503.23 324.885 525.504 334.762 551.52C340.648 566.544 350.907 579.725 364.377 589.572H227.042C241.424 565.388 253.825 540.217 264.14 514.276C288.597 453.076 291.203 431.693 291.238 423.152C291.171 401.963 286.567 381.001 277.698 361.507C271.831 363.458 265.831 365.039 259.739 366.239C245.459 369.042 238.258 370.46 230.141 368.003C218.168 364.393 206.759 353.165 208.397 344.707C209.664 338.244 218.327 334.535 216.584 330.545C215.844 328.896 213.626 328.088 212.182 327.594C208.547 326.578 204.647 326.788 201.16 328.187C188.717 332.351 175.98 335.701 163.041 338.211C156.913 339.266 137.458 342.547 127.827 332.606C119.974 324.576 120.907 310.299 125.925 300.406C134.024 284.497 150.575 284.777 179.151 270.911C200.896 260.376 198.361 256.815 244.297 224.616C256.622 216.009 275.268 203.314 299.108 188.624C279.655 195.723 260.623 203.797 242.096 212.811C214.26 226.363 192.48 236.964 167.46 255.875C148.251 270.367 126.348 281.76 108.248 297.455C104.48 300.753 95.6938 308.535 84.9358 307.479C81.0433 306.971 77.3432 305.576 74.16 303.418C70.9768 301.259 68.4075 298.402 66.6773 295.098C62.2932 286.656 65.2688 277.325 67.9274 270.911C91.3624 214.674 160.558 155.321 160.558 155.321C175.665 142.395 197.163 124.589 224.19 104.31C212.114 105.777 200.2 108.244 188.589 111.68C147.899 123.715 119.921 145.148 104.198 157.382C83.3336 173.687 58.9126 186.646 41.5168 206.101C38.8741 209.236 35.2367 211.505 31.1287 212.58C21.0574 214.921 8.41557 208.359 3.09824 199.011C0.170629 193.438 -0.714258 187.116 0.580427 181.024Z" fill="#70169E"/>
<path d="M294.32 545.346L269.67 553.59L265.338 548.809L278.015 527.293L282.188 531.893L270.427 551.034L268.103 548.462L290.164 540.812L294.32 545.346Z" fill="#FFBAFF"/>
<path d="M302.228 551.982L283.793 507.022L289.269 502.686L307.686 547.646L302.228 551.982Z" fill="#FFBAFF"/>
<path d="M314.599 529.232L310.426 524.616L322.099 505.474L324.423 508.063L302.362 515.713L298.207 511.113L322.944 502.869L327.276 507.65L314.599 529.232Z" fill="#FFBAFF"/>
</g>
</svg>
