<svg width="224" height="262" viewBox="0 0 224 262" fill="none" xmlns="http://www.w3.org/2000/svg">
<path d="M68.4294 175.82C70.0426 173.992 71.5084 171.975 72.8028 169.802C73.4278 168.727 73.9981 167.608 74.51 166.453L74.8884 165.586L75.2074 164.72C75.4236 164.141 75.6154 163.55 75.7818 162.95C76.473 160.524 76.8207 157.998 76.809 155.488C76.8302 153.001 76.4404 150.571 75.6631 148.345L75.3378 147.493C75.2357 147.204 75.0868 146.955 74.9651 146.681C74.7119 146.145 74.4266 145.634 74.1112 145.154C74.0408 145.026 73.9595 144.909 73.8688 144.803L73.6103 144.47C73.4457 144.238 73.2691 144.02 73.0817 143.817C72.7072 143.414 72.3139 143.038 71.9035 142.691C71.4913 142.361 71.0535 142.079 70.5953 141.848C70.1507 141.609 69.6856 141.424 69.2062 141.296C68.3008 141.035 67.3409 141.057 66.4104 141.359C65.1474 141.836 64.0075 142.774 63.1485 144.045C62.6694 144.718 62.2515 145.451 61.9033 146.23C61.8093 146.423 61.7303 146.627 61.6431 146.826C61.5655 147.029 61.4969 147.238 61.4225 147.443C61.2627 147.85 61.1258 148.268 61.0129 148.694C60.9098 149.125 60.7736 149.546 60.6917 149.984L60.4622 151.303L60.3368 152.642C60.2899 153.088 60.3149 153.537 60.2978 153.985C60.3045 155.789 60.5374 157.56 60.9884 159.236C61.8759 162.591 63.639 165.426 66.0176 167.323L66.9327 167.925C67.0861 168.028 67.2452 168.118 67.4093 168.196C67.5729 168.277 67.7308 168.374 67.8987 168.443C68.5608 168.748 69.2469 168.981 69.9496 169.139C71.3718 169.44 72.8391 169.468 74.3006 169.221C77.3042 168.67 80.2178 167.3 82.8255 165.213C85.491 163.153 87.8741 160.555 89.8655 157.539C91.8444 154.403 93.5544 151.036 94.965 147.496C96.4123 143.914 97.669 140.189 98.9048 136.399C100.458 131.739 101.952 127.018 103.814 122.294C104.771 119.811 105.996 117.481 107.454 115.37C108.233 114.275 109.11 113.292 110.067 112.442C111.023 111.606 112.042 110.894 113.108 110.32C114.151 109.775 115.224 109.338 116.314 109.014C117.378 108.712 118.452 108.49 119.529 108.35C121.624 108.092 123.721 108.042 125.798 108.2C129.865 108.471 133.803 109.122 137.711 109.502C141.61 109.896 145.504 109.985 149.3 109.218C151.202 108.83 153.087 108.26 154.939 107.515C158.646 106 162.175 103.776 165.389 100.927C166.986 99.501 168.501 97.9346 169.92 96.2412C171.328 94.5425 172.626 92.713 173.803 90.7716L174.664 89.3007L175.463 87.7789C175.739 87.279 175.969 86.7457 176.216 86.225C176.459 85.7019 176.711 85.1839 176.923 84.6409C178.023 82.0542 178.954 79.3749 179.704 76.6306C180.442 73.8867 180.979 71.0837 181.309 68.2565C181.405 67.5848 181.451 66.9408 181.514 66.3244C181.577 65.708 181.647 65.1186 181.679 64.5567C181.723 63.9943 181.77 63.4571 181.822 62.9449C181.853 62.4345 181.884 61.9489 181.923 61.4855C182.015 60.5561 182.051 59.7308 182.13 58.9832C182.217 58.2332 182.271 57.5774 182.353 56.9931C182.592 55.2906 183.031 55.1228 183.565 56.4408C183.725 56.8487 183.863 57.2701 183.98 57.7026C184.104 58.2183 184.22 58.8266 184.337 59.5219C184.595 61.2347 184.717 62.9856 184.704 64.7512C184.678 67.4765 184.442 70.2115 183.999 72.9197C183.538 75.6716 182.871 78.3829 182.005 81.0177C180.062 87 177.18 92.5225 173.532 97.2507C169.892 101.93 165.603 105.766 160.9 108.549C156.209 111.355 151.178 113.018 146.101 113.441C141.051 113.852 136.147 113.232 131.35 112.731C128.706 112.462 126.002 112.193 123.396 112.191C122.112 112.186 120.824 112.271 119.538 112.444C118.316 112.618 117.1 112.92 115.905 113.346C114.093 113.969 112.396 115.1 110.951 116.649C109.516 118.319 108.327 120.281 107.443 122.435C106.481 124.734 105.61 127.083 104.833 129.473C104.02 131.891 103.244 134.343 102.456 136.809C100.908 141.833 99.1018 146.75 97.0477 151.529C95.9766 153.955 94.7606 156.288 93.4107 158.508C89.9833 164.186 85.3426 168.613 80.0694 171.234C76.8573 172.853 73.42 173.45 70.091 172.967C68.4105 172.689 66.7966 172.079 65.3098 171.16C63.8094 170.244 62.4748 168.99 61.3695 167.459C60.2612 165.964 59.3595 164.25 58.696 162.378C58.0425 160.51 57.6094 158.521 57.4092 156.467C57.2394 154.622 57.2701 152.74 57.5005 150.869C57.7625 148.979 58.2409 147.124 58.9213 145.363C59.6343 143.573 60.5886 141.929 61.7408 140.505C62.3477 139.766 63.0232 139.119 63.7509 138.58C64.5048 138.027 65.3138 137.611 66.1508 137.347C67.7963 136.858 69.4853 136.89 71.0563 137.439C71.8146 137.689 72.544 138.037 73.233 138.478C73.5764 138.692 73.9094 138.929 74.2309 139.187C74.5598 139.434 74.8417 139.739 75.1479 140.016L75.5973 140.443C75.7485 140.583 75.8729 140.76 76.0117 140.917C76.2805 141.243 76.5555 141.563 76.8156 141.899C77.8013 143.289 78.6152 144.856 79.234 146.554C79.5207 147.401 79.7657 148.272 79.9675 149.162C80.1706 150.045 80.3301 150.945 80.4453 151.858C80.5076 152.312 80.5297 152.774 80.5725 153.231L80.6284 153.919C80.6391 154.149 80.6401 154.381 80.6461 154.612C80.7034 156.453 80.6025 158.311 80.3449 160.155C80.0818 161.997 79.6747 163.816 79.1295 165.587C78.5544 167.329 77.8619 169.018 77.0597 170.635C75.4552 173.789 73.516 176.683 71.2984 179.234C70.2177 180.5 69.0893 181.702 67.9176 182.836C66.7577 183.975 65.563 185.043 64.3508 186.065C60.4709 189.331 56.5136 191.895 52.758 194.31C48.9996 196.726 45.3948 198.934 42.0784 201.38C40.5586 202.51 39.7854 202.985 39.7055 202.613C39.6781 202.445 39.8122 202.048 40.1534 201.471C40.3562 201.118 40.5755 200.778 40.8099 200.455C41.1184 200.012 41.4461 199.59 41.7914 199.191C42.3448 198.559 42.9063 197.927 43.482 197.312C43.7636 196.99 44.0751 196.725 44.3756 196.439C44.6792 196.158 44.9819 195.869 45.2896 195.595C46.5187 194.485 47.7712 193.411 49.0473 192.375C51.6003 190.321 54.1984 188.381 56.7224 186.427C58.7975 184.815 60.8639 183.221 62.8469 181.492C64.8188 179.807 66.6919 177.944 68.4491 175.92C68.4417 175.887 68.435 175.856 68.4294 175.82Z" fill="#45084A"/>
<path d="M46.6241 190.219C46.0946 191.95 45.4912 193.65 44.8165 195.313C44.6491 195.751 44.4697 196.18 44.2923 196.607C44.1187 197.037 43.9575 197.472 43.8077 197.906C43.3117 199.413 42.7798 200.888 42.2374 202.353C41.9643 203.084 41.6881 203.812 41.4041 204.532L40.9767 205.612C40.8368 205.973 40.6858 206.327 40.5259 206.676L38.1844 202.747L39.1985 202.485L39.7112 202.355L39.9686 202.29L40.0974 202.258L40.1615 202.241L40.1776 202.235L40.1816 202.234C40.1835 202.243 40.1802 202.212 40.1863 202.255L40.1882 202.255L40.1968 202.257L40.2308 202.263C40.5783 202.344 40.9419 202.328 41.2951 202.214C41.6421 202.138 41.9906 202.05 42.3405 201.951C43.5436 201.629 44.7702 201.305 46.011 201.051C47.2667 200.795 48.5277 200.62 49.7887 200.527C52.3678 200.333 54.928 200.61 57.3859 201.348C57.5736 201.4 57.758 201.465 57.938 201.543C58.1162 201.629 58.2918 201.724 58.4649 201.825C58.8101 202.029 59.1494 202.241 59.4725 202.475C59.7506 202.698 59.9707 203.012 60.1105 203.385C60.2504 203.758 60.3051 204.177 60.2693 204.6C60.271 204.88 60.2249 205.162 60.1339 205.427C60.0429 205.693 59.909 205.935 59.7409 206.14C59.5727 206.345 59.3741 206.507 59.1578 206.616C58.9415 206.725 58.7124 206.779 58.4851 206.773C57.9023 206.698 57.337 206.521 56.806 206.247C55.5733 205.676 54.2666 205.335 52.9267 205.235C51.576 205.138 50.2087 205.246 48.8549 205.555C48.1065 205.799 47.3442 205.939 46.5827 205.971C45.3799 205.932 44.1664 206.089 42.9736 206.437C42.6717 206.519 42.3701 206.588 42.0682 206.7L41.6155 206.852C41.4656 206.911 41.3175 206.984 41.1693 207.054C41.0319 207.176 40.8857 207.281 40.7329 207.367L40.2753 207.511C39.9717 207.604 39.6584 207.691 39.348 207.768L38.8298 207.901L38.7438 207.923C38.3752 208.017 37.9999 207.984 37.661 207.826C37.3221 207.668 37.0333 207.392 36.8278 207.029C36.6222 206.667 36.5082 206.233 36.4988 205.777C36.4894 205.322 36.5849 204.862 36.7745 204.452C37.6187 202.626 38.3652 200.744 39.1371 198.901C39.9044 197.092 40.6237 195.272 41.2825 193.441C41.9468 191.634 42.4955 189.774 42.9231 187.88C43.2448 186.313 43.8954 184.85 44.8077 183.642C44.9133 183.488 45.0438 183.364 45.1896 183.277C45.3353 183.19 45.4927 183.143 45.6501 183.139C45.8205 183.142 45.9862 183.188 46.1373 183.273C46.2254 183.321 46.3094 183.379 46.3882 183.446C46.4622 183.517 46.5753 183.599 46.5962 183.698C46.8014 184.246 46.9335 184.836 46.9878 185.447C47.0513 186.045 47.0759 186.652 47.0614 187.262C47.0349 187.758 46.9728 188.254 46.8758 188.743C46.7719 189.228 46.6507 189.71 46.5531 190.193L46.6241 190.219Z" fill="#45084A"/>
</svg>
