<svg width="169" height="47" viewBox="0 0 169 47" fill="none" xmlns="http://www.w3.org/2000/svg">
<g clip-path="url(#clip0_4469_10532)">
<path d="M163.736 28.6134L168.424 31.2061C166.903 33.0653 163.263 36.2551 156.971 36.2551C149.157 36.2551 143.338 31.2403 143.338 24.8608C143.338 18.0723 149.219 13.4668 156.313 13.4668C163.448 13.4668 166.944 18.1744 168.075 20.7159L168.692 22.0124L150.309 28.3234C151.707 30.6092 153.887 31.769 156.971 31.769C160.056 31.769 162.194 30.5068 163.736 28.6134ZM149.322 24.503L161.598 20.2726C160.919 18.857 158.904 17.8508 156.498 17.8508C153.434 17.8508 149.178 20.1023 149.322 24.503Z" fill="#FF302F"/>
<path d="M134.476 1.84961H140.398V35.2133H134.476V1.84961Z" fill="#20B15A"/>
<path d="M125.141 14.3531H130.857V34.6169C130.857 43.0258 124.874 46.4884 117.8 46.4884C111.138 46.4884 107.129 42.7701 105.627 39.7511L110.871 37.9428C111.816 39.802 114.099 42.0026 117.8 42.0026C122.344 42.0026 125.141 39.6657 125.141 35.2992V33.6618H124.935C123.578 35.0262 120.987 36.2543 117.697 36.2543C110.829 36.2543 104.537 31.2906 104.537 24.8945C104.537 18.4638 110.829 13.4492 117.697 13.4492C120.967 13.4492 123.578 14.6603 124.935 15.9907H125.141V14.3531ZM125.552 24.8945C125.552 20.8689 122.324 17.935 118.211 17.935C114.058 17.935 110.562 20.8689 110.562 24.8945C110.562 28.8685 114.058 31.7512 118.211 31.7512C122.324 31.7684 125.552 28.8685 125.552 24.8945" fill="#3686F7"/>
<path d="M72.0282 24.8094C72.0282 31.3765 65.8597 36.2035 58.2927 36.2035C50.726 36.2035 44.5571 31.3595 44.5571 24.8094C44.5571 18.2084 50.726 13.3984 58.2927 13.3984C65.8597 13.3984 72.0282 18.2084 72.0282 24.8094ZM66.0241 24.8094C66.0241 20.716 62.446 17.9012 58.2927 17.9012C54.1393 17.9012 50.5612 20.716 50.5612 24.8094C50.5612 28.8689 54.1393 31.7177 58.2927 31.7177C62.4464 31.7177 66.0241 28.8689 66.0241 24.8094Z" fill="#FF302F"/>
<path d="M102.029 24.8608C102.029 31.4279 95.8599 36.2549 88.2932 36.2549C80.7261 36.2549 74.5576 31.4276 74.5576 24.8608C74.5576 18.2598 80.7261 13.4668 88.2932 13.4668C95.8599 13.4668 102.029 18.2429 102.029 24.8608ZM96.0038 24.8608C96.0038 20.7674 92.4261 17.9526 88.2724 17.9526C84.1187 17.9526 80.5409 20.7674 80.5409 24.8608C80.5409 28.9203 84.119 31.769 88.2724 31.769C92.4465 31.769 96.0038 28.9034 96.0038 24.8608Z" fill="#FFBA40"/>
<path d="M21.9799 31.2561C13.3642 31.2561 6.62007 25.4908 6.62007 18.3438C6.62007 11.1971 13.3642 5.4318 21.9799 5.4318C26.6271 5.4318 30.0196 6.9498 32.5282 8.8944L36.6615 5.46603C33.1659 2.68577 28.4983 0.570312 21.9799 0.570312C10.1773 0.570586 0.245605 8.5535 0.245605 18.3438C0.245605 28.1342 10.1773 36.1174 21.9799 36.1174C28.3544 36.1174 33.1659 34.3776 36.9288 31.1368C40.7944 27.9299 41.987 23.4268 41.987 19.7767C41.987 18.6338 41.8226 17.457 41.6374 16.5871H21.9799V21.3289H35.9828C35.5716 24.297 34.4407 26.3268 32.7751 27.7081C30.76 29.397 27.5731 31.2561 21.9799 31.2561Z" fill="#3686F7"/>
</g>
<defs>
<clipPath id="clip0_4469_10532">
<rect width="169" height="46" fill="white" transform="translate(0 0.5)"/>
</clipPath>
</defs>
</svg>
