<svg width="40" height="39" viewBox="0 0 40 39" fill="none" xmlns="http://www.w3.org/2000/svg">
<path fill-rule="evenodd" clip-rule="evenodd" d="M27.7143 2H12.2857C6.60507 2 2 6.43238 2 11.9V26.75C2 32.2175 6.60507 36.65 12.2857 36.65H27.7143C33.3948 36.65 38 32.2175 38 26.75V11.9C38 6.43238 33.3948 2 27.7143 2Z" stroke="url(#paint0_linear_69_1809)" stroke-width="3" stroke-linecap="round" stroke-linejoin="round"/>
<path fill-rule="evenodd" clip-rule="evenodd" d="M19.9997 26.7491C15.7392 26.7491 12.2856 23.425 12.2856 19.3242C12.2856 15.2235 15.7392 11.8994 19.9997 11.8994C24.2602 11.8994 27.7139 15.2235 27.7139 19.3242C27.7139 21.2933 26.901 23.1819 25.4544 24.5743C24.0077 25.9667 22.0455 26.7491 19.9997 26.7491Z" stroke="url(#paint1_linear_69_1809)" stroke-width="3" stroke-linecap="round" stroke-linejoin="round"/>
<path d="M31.5719 9.42497C31.5719 8.74153 30.9962 8.1875 30.2862 8.1875C29.5761 8.1875 29.0005 8.74153 29.0005 9.42497C29.0005 10.1084 29.5761 10.6624 30.2862 10.6624C30.9962 10.6624 31.5719 10.1084 31.5719 9.42497Z" stroke="#480A69" stroke-width="3" stroke-linecap="round"/>
<defs>
<linearGradient id="paint0_linear_69_1809" x1="20" y1="2" x2="20" y2="36.65" gradientUnits="userSpaceOnUse">
<stop stop-color="#480A69"/>
<stop offset="0.620212" stop-color="#E90004"/>
<stop offset="1" stop-color="#E9BA00"/>
</linearGradient>
<linearGradient id="paint1_linear_69_1809" x1="19.9997" y1="11.8994" x2="19.9997" y2="26.7491" gradientUnits="userSpaceOnUse">
<stop stop-color="#480A69"/>
<stop offset="0.620212" stop-color="#E90004"/>
<stop offset="1" stop-color="#E9BA00"/>
</linearGradient>
</defs>
</svg>
