<svg width="121" height="121" viewBox="0 0 121 121" fill="none" xmlns="http://www.w3.org/2000/svg">
<rect x="1.20354" y="1.20354" width="117.947" height="117.947" rx="58.9733" fill="#45084A"/>
<rect x="1.20354" y="1.20354" width="117.947" height="117.947" rx="58.9733" stroke="#EFD5F8" stroke-width="2.40708"/>
<circle cx="60.1769" cy="60.1761" r="56.5663" fill="white" stroke="#45084A" stroke-width="2.40708"/>
<path d="M89.7397 55.5045L89.4797 68.794C89.4682 69.3956 89.6232 69.9887 89.9274 70.5078L93.2973 76.2848C93.5332 76.6889 93.6261 77.1606 93.561 77.6239C93.4959 78.0873 93.2767 78.5152 92.9387 78.8387L87.4529 84.0909C87.1827 84.3491 86.8647 84.5519 86.5166 84.6879L84.615 85.4341C84.292 85.5605 84.0024 85.7595 83.7686 86.0158C83.5349 86.2721 83.3632 86.5787 83.267 86.912L82.6701 89.0013L74.8471 103.025L70.4806 100.1L70.3362 100.004L68.4563 98.7428L67.7197 98.2493L66.3357 97.325L65.5221 96.7666L64.3691 95.9939L63.813 95.6208L62.8502 94.9781L62.3183 94.6219C62.2756 94.5957 62.2354 94.5659 62.1979 94.5328C61.4968 94.0222 61.0029 93.2763 60.8066 92.4314C60.6234 91.6328 60.28 90.8796 59.7971 90.2176C59.3143 89.5556 58.702 88.9985 57.9976 88.5801L30.0755 71.9713C29.7603 71.7846 29.5 71.518 29.3208 71.1985C29.1416 70.879 29.0499 70.5178 29.0549 70.1515L29.091 67.4701C29.763 66.8522 30.5313 66.3481 31.3657 65.9777L36.0186 68.8108C33.7027 66.5229 31.9086 63.7615 30.7591 60.7158C30.2777 59.4497 29.5556 57.4566 29.2426 55.4564L29.286 52.1803L29.3341 48.3844C29.3382 48.2759 29.3757 48.1713 29.4417 48.0851C29.5077 47.9989 29.5987 47.9352 29.7024 47.9029L34.2518 46.5117C34.3132 46.4943 34.3697 46.4629 34.417 46.42C34.4643 46.3771 34.5011 46.3239 34.5244 46.2645C34.5477 46.205 34.5569 46.141 34.5514 46.0774C34.5459 46.0138 34.5257 45.9524 34.4925 45.8979L33.8835 44.9061C33.8465 44.8463 33.8238 44.7787 33.8171 44.7087C33.8104 44.6386 33.8199 44.568 33.8447 44.5022C33.8696 44.4364 33.9093 44.3772 33.9606 44.3291C34.012 44.281 34.0737 44.2454 34.141 44.2249L36.0547 43.6521C36.1052 43.6364 36.1505 43.6074 36.1858 43.5679C36.2211 43.5285 36.2449 43.4802 36.2548 43.4283C36.2647 43.3763 36.2603 43.3226 36.242 43.273C36.2237 43.2234 36.1922 43.1797 36.1509 43.1466L32.627 40.3134C32.5674 40.2624 32.5236 40.1955 32.5005 40.1205C32.4775 40.0455 32.4763 39.9655 32.497 39.8899C32.5177 39.8142 32.5594 39.746 32.6174 39.6931C32.6753 39.6403 32.7471 39.605 32.8244 39.5913L35.8164 39.1316L30.4799 29.5033C30.236 29.0652 30.1443 28.5587 30.2193 28.063C30.2942 27.5673 30.5315 27.1104 30.8939 26.764L40.0624 17.9758C40.432 17.6183 40.9206 17.4099 41.4345 17.3909L42.9076 17.3331C43.3622 17.3179 43.807 17.4669 44.1607 17.7529C44.5143 18.0389 44.7531 18.4428 44.8333 18.8905L45.6228 23.3676C45.7028 23.8166 45.9342 24.2246 46.2784 24.5238C46.6227 24.8229 47.059 24.9951 47.5147 25.0117L53.6985 25.2307C54.1221 25.2477 54.5351 25.3674 54.9021 25.5797L65.5822 31.7948C66.0211 32.0557 66.5167 32.206 67.0265 32.2329L70.9091 32.4519C71.3198 32.4736 71.7252 32.5547 72.1126 32.6926L75.2178 33.8216C75.6123 33.9658 76.0366 34.0094 76.4523 33.9485C76.8679 33.8876 77.2618 33.724 77.5984 33.4725L85.4406 27.6209C85.7836 27.3629 86.1955 27.2126 86.624 27.189C87.0526 27.1654 87.4785 27.2697 87.8477 27.4885L90.2235 28.8871C90.7113 29.1747 91.2675 29.326 91.8338 29.3251H95.1845C95.3807 29.3232 95.5734 29.3769 95.7403 29.4802C95.9073 29.5834 96.0415 29.7318 96.1274 29.9082C96.2133 30.0846 96.2475 30.2818 96.2259 30.4768C96.2043 30.6719 96.1278 30.8568 96.0053 31.0101L90.067 38.6694L90.0429 39.7694L89.9418 45.1228L89.8865 47.8091V48.1437L89.8239 51.3595L89.8095 52.1033L89.7661 54.1108L89.7397 55.5045Z" fill="#FFBAFF"/>
<path d="M71.073 81.2489C69.4579 81.2489 68.1484 79.7204 68.1484 77.8381C68.1484 75.9558 69.4579 74.4297 71.073 74.4297C72.6882 74.4297 73.9952 75.9558 73.9952 77.8381C73.9952 79.7204 72.6858 81.2489 71.073 81.2489Z" fill="#70169E"/>
<path d="M24.4075 43.4705C25.3246 37.7754 33.1235 30.8695 36.893 27.7114C38.6044 26.2792 40.0222 25.1695 40.855 24.5269C40.9633 24.3608 41.2281 23.9299 41.0693 23.6651C40.9874 23.5279 40.7491 23.3666 39.9066 23.4918C36.5367 23.9973 32.9261 26.3803 32.9261 26.3803C31.7226 27.1795 30.1604 28.2602 28.3984 29.6275C29.1133 28.2049 32.3436 22.1463 39.613 19.5346C49.3664 16.0419 57.7455 21.867 58.5133 22.4183C56.5462 23.0537 54.6174 23.8019 52.7363 24.6592C50.0886 25.8628 46.6681 27.6873 46.8101 28.0292C46.9714 28.4119 51.6243 26.7004 59.4617 25.1407C62.8605 24.4667 65.6527 24.0599 67.6289 25.6221C67.9033 25.8387 69.2369 26.893 69.2296 28.3445C69.2296 29.5841 68.2427 30.4964 67.7854 30.908C65.0124 33.421 63.6187 34.6799 58.5133 37.4697C56.1592 38.7551 52.9578 40.972 49.7058 44.9966C54.611 42.9621 59.3265 40.4973 63.7969 37.631C67.1981 35.4381 70.6739 32.8505 73.4059 34.107C74.7635 34.7329 75.3484 36.0327 75.488 36.3504C76.653 38.9573 75.3845 42.6088 72.1181 45.3168C74.0197 44.4213 76.1163 44.6115 77.4137 45.7982C78.6172 46.9175 78.6798 48.5206 78.6942 48.9996C78.7785 51.6666 76.7566 53.3949 76.4533 53.6452C76.3835 53.9509 76.3305 54.3674 76.5423 54.5407C76.8649 54.8055 77.5051 54.2783 78.4078 54.0448C79.414 53.7825 80.7138 53.898 81.5177 54.4781C82.5985 55.2628 82.962 57.0248 82.4493 58.8301C82.5523 59.1495 82.677 59.4616 82.8224 59.764C83.5228 61.2083 84.2474 61.449 84.748 62.2505C85.2487 63.0521 85.0561 64.6745 84.6229 67.847C84.4111 69.3947 84.2955 69.6884 84.4375 70.3335C84.6782 71.448 85.4004 72.2929 86.1586 72.9067C86.6274 73.2953 87.0144 73.7731 87.2971 74.3124C87.3693 74.8708 87.2057 75.0923 87.1094 75.1814C87.0131 75.2704 86.8952 75.3378 86.0527 75.3691C85.3618 75.3956 85.1813 75.3498 85.0586 75.4919C84.9841 75.6166 84.9502 75.7614 84.9614 75.9062C84.9726 76.051 85.0284 76.1888 85.1211 76.3006C85.4894 76.7676 86.2621 76.4162 86.5509 76.8615C86.6074 76.9666 86.637 77.084 86.637 77.2033C86.637 77.3226 86.6074 77.44 86.5509 77.5451C86.3825 77.8845 85.8288 77.6029 85.3065 77.9808C85.2198 78.0434 84.9599 78.2215 84.9984 78.3924C85.0682 78.6981 86.1514 78.5609 86.2236 78.8738C86.2693 79.0616 85.9107 79.2926 85.8577 79.3263C85.5448 79.5309 85.3065 79.478 85.0393 79.567C84.5362 79.7283 84.2883 80.2603 84.18 80.4914C83.8213 81.2448 84.2089 81.6179 83.9152 82.3207C83.7105 82.7661 83.3621 83.1298 82.9259 83.3534C81.797 83.9311 80.4033 83.2354 79.6089 82.8383C78.5883 82.3256 78.5932 82.0319 77.7146 81.6756C77.0928 81.4263 76.4299 81.2957 75.76 81.2905C75.9097 80.7323 75.9858 80.157 75.9863 79.5791C75.9863 76.4234 73.7934 73.8647 71.0879 73.8647C68.3823 73.8647 66.1871 76.4234 66.1871 79.5791C66.1871 82.7348 68.3799 85.2983 71.0879 85.2983C71.2641 85.298 71.4402 85.2868 71.615 85.2646C71.2708 86.095 70.9988 86.9183 70.7822 87.573C69.8194 90.512 68.7434 93.764 70.0938 97.5623C70.8984 99.7557 72.3009 101.68 74.1425 103.118H55.3673C57.3334 99.587 59.0288 95.9121 60.439 92.1247C63.7824 83.1897 64.1387 80.0677 64.1435 78.8209C64.1344 75.7272 63.5049 72.6669 62.2924 69.8208C61.4904 70.1056 60.6701 70.3364 59.8372 70.5116C57.8851 70.9208 56.9006 71.1278 55.7909 70.7692C54.1541 70.242 52.5943 68.6028 52.8182 67.368C52.9915 66.4244 54.1758 65.8828 53.9375 65.3003C53.8364 65.0596 53.5331 64.9417 53.3357 64.8694C52.8388 64.7212 52.3056 64.7519 51.8289 64.9561C50.1278 65.5641 48.3865 66.0531 46.6176 66.4196C45.7799 66.5737 43.1201 67.0527 41.8034 65.6012C40.7299 64.4289 40.8574 62.3444 41.5434 60.9002C42.6507 58.5773 44.9134 58.6183 48.82 56.5939C51.7928 55.0558 51.4462 54.5359 57.7262 49.8348C59.4112 48.5784 61.9603 46.7249 65.2194 44.5802C62.5599 45.6166 59.9581 46.7954 57.4253 48.1114C53.6197 50.09 50.6422 51.6377 47.2217 54.3987C44.5956 56.5145 41.6012 58.1778 39.1267 60.4693C38.6116 60.9507 37.4105 62.0869 35.9398 61.9328C35.4076 61.8586 34.9018 61.6549 34.4666 61.3398C34.0314 61.0246 33.6802 60.6075 33.4436 60.1251C32.8443 58.8927 33.2511 57.5303 33.6145 56.5939C36.8184 48.3834 46.2782 39.7179 46.2782 39.7179C48.3434 37.8308 51.2825 35.2311 54.9773 32.2704C53.3264 32.4847 51.6976 32.8447 50.1102 33.3464C44.5475 35.1035 40.7226 38.2327 38.5731 40.0188C35.7207 42.3994 32.3821 44.2914 30.0039 47.1317C29.6426 47.5894 29.1454 47.9207 28.5838 48.0777C27.2069 48.4195 25.4786 47.4615 24.7517 46.0967C24.3515 45.2829 24.2305 44.36 24.4075 43.4705Z" fill="#70169E"/>
<path d="M64.5558 96.6592L61.1859 97.8627L60.5938 97.1647L62.3268 94.0234L62.8973 94.695L61.2894 97.4896L60.9717 97.1141L63.9877 95.9972L64.5558 96.6592Z" fill="#FFBAFF"/>
<path d="M65.6452 97.6229L63.125 91.0588L63.8736 90.4258L66.3914 96.9899L65.6452 97.6229Z" fill="#FFBAFF"/>
<path d="M67.3269 94.3098L66.7564 93.6359L68.3523 90.8413L68.6701 91.2192L65.654 92.3361L65.0859 91.6645L68.4679 90.4609L69.06 91.159L67.3269 94.3098Z" fill="#FFBAFF"/>
</svg>
