<svg width="71" height="70" viewBox="0 0 71 70" fill="none" xmlns="http://www.w3.org/2000/svg">
<path d="M40.8203 12.9429C41.4344 10.8293 43.6074 9.49196 45.7868 9.92713C47.9923 10.3678 49.3964 12.4609 48.996 14.6453L48.9511 14.8574L46.981 23.1782C47.7384 23.6748 48.4394 24.2675 49.0616 24.9609L53.7823 21.931C55.7242 20.6847 58.3236 21.1673 59.5724 23.1129C60.821 25.0586 60.1771 27.6228 58.2353 28.8691L53.6083 31.8388C54.5368 33.5003 55.1401 35.264 55.4368 37.0636C55.4632 37.0689 55.4899 37.073 55.5162 37.0788L55.517 37.0783L64.332 38.8402L64.5422 38.8875C66.6953 39.433 68.0138 41.5808 67.4959 43.7697C66.984 45.9326 64.863 47.3509 62.6855 47.0288L62.4743 46.9926L54.6487 45.4288C53.5794 48.4142 51.6679 51.151 49.0039 53.2419L48.139 53.9212L34.9357 33.3494C34.7882 33.1194 34.4261 33.0106 34.1144 33.2105C33.8026 33.4106 33.7501 33.7856 33.8977 34.0156L47.0958 54.5792L46.118 55.0825C43.107 56.6338 39.8221 57.2329 36.6621 56.9613L34.8213 64.7187L34.8199 64.7184C34.2913 66.9506 32.0489 68.3902 29.7992 67.9408C27.5228 67.4857 26.1011 65.2704 26.6354 63.0113L28.7059 54.2629L28.7259 54.1839C27.223 53.1666 25.874 51.8835 24.751 50.3482L20.1232 53.3184C18.1813 54.5646 15.5827 54.0815 14.3339 52.136C13.0852 50.1904 13.7285 47.6267 15.6702 46.3804L20.3983 43.3458C20.0327 42.4934 19.7811 41.6101 19.6409 40.7174L11.2516 39.042C8.97489 38.587 7.55251 36.371 8.08722 34.1117L8.31053 33.1723L8.43444 33.1972C9.28061 31.5044 11.1993 30.5068 13.1231 30.8912L21.5507 32.5757C22.4148 31.3208 23.5465 30.2087 24.9123 29.3321L34.4375 23.2186C35.8053 22.3408 37.2822 21.7803 38.7855 21.5153L40.7661 13.1495L40.8203 12.9429ZM21.239 13.1314L21.2395 13.1323C26.1823 9.96615 32.7274 11.2393 35.8344 16.0803L36.0243 16.3762C37.1673 18.1574 36.5761 20.502 34.8047 21.6392L23.3152 29.0133C21.5436 30.1503 19.1651 29.7117 18.0216 27.9306L17.8317 27.6347C14.7247 22.7936 16.2939 16.3125 21.2313 13.1375L21.2307 13.1367L21.239 13.1314Z" fill="white"/>
<path d="M40.8203 12.9429C41.4344 10.8293 43.6074 9.49196 45.7868 9.92713C47.9923 10.3678 49.3964 12.4609 48.996 14.6453L48.9511 14.8574L46.981 23.1782C47.7384 23.6748 48.4394 24.2675 49.0616 24.9609L53.7823 21.931C55.7242 20.6847 58.3236 21.1673 59.5724 23.1129C60.821 25.0586 60.1771 27.6228 58.2353 28.8691L53.6083 31.8388C54.5368 33.5003 55.1401 35.264 55.4368 37.0636C55.4632 37.0689 55.4899 37.073 55.5162 37.0788L55.517 37.0783L64.332 38.8402L64.5422 38.8875C66.6953 39.433 68.0138 41.5808 67.4959 43.7697C66.984 45.9326 64.863 47.3509 62.6855 47.0288L62.4743 46.9926L54.6487 45.4288C53.5794 48.4142 51.6679 51.151 49.0039 53.2419L48.139 53.9212L34.9357 33.3494C34.7882 33.1194 34.4261 33.0106 34.1144 33.2105C33.8026 33.4106 33.7501 33.7856 33.8977 34.0156L47.0958 54.5792L46.118 55.0825C43.107 56.6338 39.8221 57.2329 36.6621 56.9613L34.8213 64.7187L34.8199 64.7184C34.2913 66.9506 32.0489 68.3902 29.7992 67.9408C27.5228 67.4857 26.1011 65.2704 26.6354 63.0113L28.7059 54.2629L28.7259 54.1839C27.223 53.1666 25.874 51.8835 24.751 50.3482L20.1232 53.3184C18.1813 54.5646 15.5827 54.0815 14.3339 52.136C13.0852 50.1904 13.7285 47.6267 15.6702 46.3804L20.3983 43.3458C20.0327 42.4934 19.7811 41.6101 19.6409 40.7174L11.2516 39.042C8.97489 38.587 7.55251 36.371 8.08722 34.1117L8.31053 33.1723L8.43444 33.1972C9.28061 31.5044 11.1993 30.5068 13.1231 30.8912L21.5507 32.5757C22.4148 31.3208 23.5465 30.2087 24.9123 29.3321L34.4375 23.2186C35.8053 22.3408 37.2822 21.7803 38.7855 21.5153L40.7661 13.1495L40.8203 12.9429ZM21.239 13.1314L21.2395 13.1323C26.1823 9.96615 32.7274 11.2393 35.8344 16.0803L36.0243 16.3762C37.1673 18.1574 36.5761 20.502 34.8047 21.6392L23.3152 29.0133C21.5436 30.1503 19.1651 29.7117 18.0216 27.9306L17.8317 27.6347C14.7247 22.7936 16.2939 16.3125 21.2313 13.1375L21.2307 13.1367L21.239 13.1314Z" stroke="#70169E" stroke-width="2"/>
<path d="M40.8203 12.9429C41.4344 10.8293 43.6074 9.49196 45.7868 9.92713C47.9923 10.3678 49.3964 12.4609 48.996 14.6453L48.9511 14.8574L46.981 23.1782C47.7384 23.6748 48.4394 24.2675 49.0616 24.9609L53.7823 21.931C55.7242 20.6847 58.3236 21.1673 59.5724 23.1129C60.821 25.0586 60.1771 27.6228 58.2353 28.8691L53.6083 31.8388C54.5368 33.5003 55.1401 35.264 55.4368 37.0636C55.4632 37.0689 55.4899 37.073 55.5162 37.0788L55.517 37.0783L64.332 38.8402L64.5422 38.8875C66.6953 39.433 68.0138 41.5808 67.4959 43.7697C66.984 45.9326 64.863 47.3509 62.6855 47.0288L62.4743 46.9926L54.6487 45.4288C53.5794 48.4142 51.6679 51.151 49.0039 53.2419L48.139 53.9212L34.9357 33.3494C34.7882 33.1194 34.4261 33.0106 34.1144 33.2105C33.8026 33.4106 33.7501 33.7856 33.8977 34.0156L47.0958 54.5792L46.118 55.0825C43.107 56.6338 39.8221 57.2329 36.6621 56.9613L34.8213 64.7187L34.8199 64.7184C34.2913 66.9506 32.0489 68.3902 29.7992 67.9408C27.5228 67.4857 26.1011 65.2704 26.6354 63.0113L28.7059 54.2629L28.7259 54.1839C27.223 53.1666 25.874 51.8835 24.751 50.3482L20.1232 53.3184C18.1813 54.5646 15.5827 54.0815 14.3339 52.136C13.0852 50.1904 13.7285 47.6267 15.6702 46.3804L20.3983 43.3458C20.0327 42.4934 19.7811 41.6101 19.6409 40.7174L11.2516 39.042C8.97489 38.587 7.55251 36.371 8.08722 34.1117L8.31053 33.1723L8.43444 33.1972C9.28061 31.5044 11.1993 30.5068 13.1231 30.8912L21.5507 32.5757C22.4148 31.3208 23.5465 30.2087 24.9123 29.3321L34.4375 23.2186C35.8053 22.3408 37.2822 21.7803 38.7855 21.5153L40.7661 13.1495L40.8203 12.9429ZM21.239 13.1314L21.2395 13.1323C26.1823 9.96615 32.7274 11.2393 35.8344 16.0803L36.0243 16.3762C37.1673 18.1574 36.5761 20.502 34.8047 21.6392L23.3152 29.0133C21.5436 30.1503 19.1651 29.7117 18.0216 27.9306L17.8317 27.6347C14.7247 22.7936 16.2939 16.3125 21.2313 13.1375L21.2307 13.1367L21.239 13.1314Z" stroke="#70169E" stroke-width="2"/>
</svg>
