<svg width="402" height="194" viewBox="0 0 402 194" fill="none" xmlns="http://www.w3.org/2000/svg">
<g opacity="0.14">
<path d="M200.294 153C258.324 153 305.368 118.75 305.368 76.4999C305.368 34.2502 258.324 0 200.294 0C142.263 0 95.2202 34.2502 95.2202 76.4999C95.2202 118.75 142.263 153 200.294 153Z" fill="#45084A"/>
<path d="M201.737 45.1196H143.069C138.308 45.1196 134.413 42.2834 134.413 38.8176C134.413 35.3518 138.308 32.5156 143.069 32.5156H201.737C206.498 32.5156 210.393 35.3518 210.393 38.8176C210.393 42.2834 206.497 45.1196 201.737 45.1196Z" fill="#EFD5F8"/>
<path d="M191.638 71.9048H132.97C128.21 71.9048 124.314 69.0686 124.314 65.6028C124.314 62.137 128.21 59.3008 132.97 59.3008H191.638C196.398 59.3008 200.294 62.137 200.294 65.6028C200.294 69.0686 196.398 71.9048 191.638 71.9048Z" fill="#EFD5F8"/>
<path d="M275.313 100.788H132.97C128.21 100.788 124.314 97.9514 124.314 94.4856C124.314 91.0192 128.21 88.1836 132.97 88.1836H275.313C280.073 88.1836 283.968 91.0198 283.968 94.4856C283.968 97.9514 280.073 100.788 275.313 100.788Z" fill="#EFD5F8"/>
<path d="M212.196 121.272H144.151C139.39 121.272 135.495 118.436 135.495 114.97C135.495 111.504 139.39 108.668 144.151 108.668H212.196C216.957 108.668 220.852 111.504 220.852 114.97C220.852 118.436 216.957 121.272 212.196 121.272Z" fill="#EFD5F8"/>
<path d="M273.87 71.9048H215.202C210.441 71.9048 206.546 69.0686 206.546 65.6028C206.546 62.137 210.441 59.3008 215.202 59.3008H273.87C278.63 59.3008 282.526 62.137 282.526 65.6028C282.526 69.0686 278.63 71.9048 273.87 71.9048Z" fill="#EFD5F8"/>
<path d="M163.863 144.075L220.916 137.773L222.613 177.424L163.863 144.075Z" fill="#45084A"/>
<path d="M146.199 155.326C135.177 163.35 121.169 169.211 105.472 171.932L67.4148 193.537L68.3234 172.372C29.3289 166.554 0 141.43 0 111.327C0 76.9073 38.331 49 85.607 49H85.6501C82.3608 57.1715 80.6007 65.8158 80.6007 74.7652C80.6015 109.5 107.103 139.739 146.199 155.326Z" fill="#45084A"/>
<path d="M254.87 155.326C265.891 163.35 279.9 169.211 295.596 171.932L333.654 193.537L332.745 172.372C371.74 166.554 401.068 141.43 401.068 111.327C401.068 76.9073 362.737 49 315.462 49H315.418C318.708 57.1715 320.468 65.8158 320.468 74.7652C320.467 109.5 293.965 139.739 254.87 155.326Z" fill="#45084A"/>
<g opacity="0.04">
<path d="M305.368 76.4985C305.368 60.5986 298.697 45.8366 287.294 33.6016L141.489 139.756C151.768 144.819 163.298 148.638 175.732 150.81L222.612 177.422L221.5 151.438C269.365 144.296 305.368 113.459 305.368 76.4985Z" fill="#070405"/>
<path d="M68.3508 193.008L105.472 171.933C121.168 169.213 135.177 163.352 146.199 155.327C140.661 153.12 135.409 150.587 130.416 147.82L68.3508 193.008Z" fill="#070405"/>
<path d="M401.068 111.328C401.068 76.9079 362.736 49 315.46 49H315.417C318.707 57.1715 320.467 65.8158 320.467 74.7652C320.467 109.5 293.965 139.739 254.869 155.326C265.891 163.351 279.899 169.212 295.596 171.932L333.653 193.538L332.745 172.374C371.739 166.555 401.068 141.431 401.068 111.328Z" fill="#070405"/>
</g>
</g>
</svg>
