<svg width="126" height="116" viewBox="0 0 126 116" fill="none" xmlns="http://www.w3.org/2000/svg">
<g clip-path="url(#clip0_854_570)">
<path d="M37.9636 35.3243C46.0147 30.6404 55.3336 30.5495 62.5169 34.2822L62.9535 34.5084L63.1878 34.0761C64.4974 31.6512 66.535 29.4839 69.1768 27.947C76.2993 23.8036 85.0651 25.7388 88.7856 32.1338C89.6438 33.6091 90.1624 35.2021 90.3713 36.8151L90.4511 37.4319L91.0365 37.2224C99.7776 34.0823 109.372 37.0047 113.765 44.5562C118.781 53.1791 115.202 64.705 105.635 70.2713L54.7915 99.8504C44.0079 106.124 30.697 103.211 25.0359 93.4807C20.5624 85.7912 22.1438 76.0728 28.3147 69.2291L28.5694 68.9465L28.3649 68.626C28.1525 68.2928 27.9467 67.9692 27.755 67.6397C21.4423 56.7889 25.9502 42.3133 37.9636 35.3243Z" fill="#45084A" stroke="#70169E"/>
</g>
<defs>
<clipPath id="clip0_854_570">
<rect width="102.297" height="74.5555" fill="white" transform="translate(0 51.4414) rotate(-30.1896)"/>
</clipPath>
</defs>
</svg>
