<svg width="54" height="44" viewBox="0 0 54 44" fill="none" xmlns="http://www.w3.org/2000/svg">
<g clip-path="url(#clip0_854_578)">
<path d="M33.1425 0.100934C31.7081 -0.312503 30.2147 0.522809 29.8012 1.95718L19.0012 39.7572C18.5878 41.1916 19.4231 42.685 20.8575 43.0984C22.2918 43.5119 23.7853 42.6766 24.1987 41.2422L34.9987 3.44218C35.4122 2.00781 34.5768 0.514372 33.1425 0.100934ZM39.9431 10.2344C38.8884 11.2891 38.8884 13.0019 39.9431 14.0566L47.4778 21.5997L39.9347 29.1428C38.88 30.1975 38.88 31.9103 39.9347 32.965C40.9893 34.0197 42.7021 34.0197 43.7568 32.965L53.2068 23.515C54.2615 22.4603 54.2615 20.7475 53.2068 19.6928L43.7568 10.2428C42.7021 9.18812 40.9893 9.18812 39.9347 10.2428L39.9431 10.2344ZM14.0653 10.2344C13.0106 9.17968 11.2978 9.17968 10.2431 10.2344L0.793091 19.6844C-0.261597 20.7391 -0.261597 22.4519 0.793091 23.5066L10.2431 32.9566C11.2978 34.0112 13.0106 34.0112 14.0653 32.9566C15.12 31.9019 15.12 30.1891 14.0653 29.1344L6.52215 21.5997L14.0653 14.0566C15.12 13.0019 15.12 11.2891 14.0653 10.2344Z" fill="#45084A"/>
</g>
<defs>
<clipPath id="clip0_854_578">
<rect width="54" height="43.2" fill="white"/>
</clipPath>
</defs>
</svg>
