<svg width="57" height="67" viewBox="0 0 57 67" fill="none" xmlns="http://www.w3.org/2000/svg">
<path d="M32.8992 9.79234C33.6441 8.84919 34.1047 7.66005 34.1047 6.36795C34.1047 3.31477 31.6284 0.831055 28.5752 0.831055C25.5221 0.831055 23.0421 3.31477 23.0421 6.36795C23.0421 7.66029 23.4373 8.84919 24.1817 9.79234C21.9022 11.2374 20.3334 13.781 20.3334 16.674V23.4105C20.3334 24.4358 21.2701 25.3257 22.2954 25.3257H34.8702C35.8955 25.3257 36.6674 24.4355 36.6674 23.4105V16.674C36.6671 13.781 35.1793 11.2371 32.8992 9.79234Z" fill="#EFD5F8"/>
<path d="M16.1261 31.6517V24.9153C16.1261 22.0225 14.7021 19.4783 12.422 18.0336C13.1669 17.0904 13.6594 15.9013 13.6594 14.6092C13.6594 11.556 11.199 9.07227 8.1458 9.07227C5.09262 9.07227 2.62053 11.5562 2.62053 14.6094C2.62053 15.9018 3.07961 17.0907 3.82403 18.0338C1.54424 19.4788 0.0395508 22.0225 0.0395508 24.9155V31.6519C0.0395508 32.6773 0.856486 33.4925 1.88155 33.4925H14.4563C15.4816 33.4922 16.1261 32.677 16.1261 31.6517Z" fill="#EFD5F8"/>
<path d="M53.2597 18.0345C54.0041 17.0914 54.4986 15.9022 54.4986 14.6101C54.4986 11.557 52.0389 9.07324 48.9857 9.07324C45.9325 9.07324 43.4607 11.557 43.4607 14.6101C43.4607 15.9025 43.9168 17.0914 44.6615 18.0345C42.3817 19.4796 40.874 22.0232 40.874 24.9162V31.6527C40.874 32.678 41.6971 33.4932 42.7225 33.4932H55.2972C56.3225 33.4932 56.9605 32.678 56.9605 31.6527V24.9162C56.9605 22.0232 55.5393 19.4793 53.2597 18.0345Z" fill="#EFD5F8"/>
<path d="M32.8992 50.6896C33.6441 49.7464 34.1047 48.5575 34.1047 47.2654C34.1047 44.2122 31.6284 41.7285 28.5752 41.7285C25.5221 41.7285 23.0421 44.2122 23.0421 47.2654C23.0421 48.5575 23.4373 49.7466 24.1817 50.6898C21.9022 52.1348 20.3334 54.6785 20.3334 57.5715V64.3079C20.3334 65.3333 21.2701 66.1601 22.2954 66.1601H34.8702C35.8955 66.1601 36.6674 65.333 36.6674 64.3079V57.5715C36.6671 54.6782 35.1793 52.1348 32.8992 50.6896ZM28.5827 45.4407C29.5887 45.4407 30.4073 46.2594 30.4073 47.2654C30.4073 48.2717 29.5887 49.0901 28.5827 49.0901C27.5767 49.0901 26.758 48.2714 26.758 47.2654C26.758 46.2594 27.5764 45.4407 28.5827 45.4407ZM32.9549 62.4479H24.0456V57.5715C24.0456 55.1279 26.0569 53.1401 28.5005 53.1401C30.9436 53.1401 32.9549 55.1279 32.9549 57.5715V62.4479Z" fill="#EFD5F8"/>
<path d="M30.2324 35.1213V28.9704C30.2324 27.9451 29.4016 27.1143 28.3763 27.1143C27.3509 27.1143 26.5201 27.9451 26.5201 28.9704V35.1213C26.5201 36.1466 27.3509 36.9774 28.3763 36.9774C29.4013 36.9774 30.2324 36.1463 30.2324 35.1213Z" fill="#EFD5F8"/>
<path d="M10.5188 35.5219C9.77416 34.8173 8.60011 34.8492 7.89454 35.5934C7.18971 36.3378 7.22189 37.5126 7.96606 38.2177L17.2983 47.0545C17.6574 47.3943 18.1163 47.5628 18.5743 47.5628C19.0661 47.5628 19.5573 47.3683 19.9224 46.983C20.6272 46.2386 20.595 45.0638 19.8509 44.3587L10.5188 35.5219Z" fill="#EFD5F8"/>
<path d="M46.6287 35.4958L37.3219 44.3529C36.5793 45.0595 36.5503 46.2345 37.2569 46.977C37.6216 47.3606 38.1112 47.5536 38.6017 47.5536C39.0612 47.5536 39.5218 47.3838 39.8809 47.0421L49.1877 38.185C49.9304 37.4784 49.9593 36.3036 49.2528 35.5612C48.5462 34.818 47.3712 34.7895 46.6287 35.4958Z" fill="#EFD5F8"/>
</svg>
