<svg width="33" height="38" viewBox="0 0 33 38" fill="none" xmlns="http://www.w3.org/2000/svg">
<path d="M18.9852 5.31257C19.406 4.77975 19.6662 4.10795 19.6662 3.378C19.6662 1.65315 18.2672 0.25 16.5424 0.25C14.8175 0.25 13.4165 1.65315 13.4165 3.378C13.4165 4.10809 13.6397 4.77975 14.0603 5.31257C12.7725 6.12892 11.8862 7.56591 11.8862 9.2003V13.006C11.8862 13.5852 12.4154 14.088 12.9947 14.088H20.0986C20.6779 14.088 21.1139 13.5851 21.1139 13.006V9.2003C21.1138 7.56591 20.2732 6.12879 18.9852 5.31257Z" fill="#45084A"/>
<path d="M9.50927 17.6622V13.8565C9.50927 12.2223 8.70479 10.785 7.41671 9.96882C7.83754 9.436 8.11577 8.7642 8.11577 8.03425C8.11577 6.3094 6.72576 4.90625 5.00091 4.90625C3.27606 4.90625 1.87948 6.30954 1.87948 8.03439C1.87948 8.76448 2.13883 9.43614 2.55938 9.96896C1.27144 10.7853 0.421387 12.2223 0.421387 13.8567V17.6624C0.421387 18.2416 0.882904 18.7021 1.462 18.7021H8.56596C9.1452 18.702 9.50927 18.2415 9.50927 17.6622Z" fill="#45084A"/>
<path d="M30.4874 9.96882C30.9079 9.436 31.1873 8.7642 31.1873 8.03425C31.1873 6.3094 29.7977 4.90625 28.0728 4.90625C26.348 4.90625 24.9515 6.3094 24.9515 8.03425C24.9515 8.76434 25.2092 9.436 25.6299 9.96882C24.342 10.7852 23.4902 12.2222 23.4902 13.8566V17.6622C23.4902 18.2415 23.9552 18.702 24.5345 18.702H31.6384C32.2177 18.702 32.5781 18.2415 32.5781 17.6622V13.8566C32.5781 12.2222 31.7752 10.785 30.4874 9.96882Z" fill="#45084A"/>
<path d="M18.9852 28.4169C19.406 27.8841 19.6662 27.2124 19.6662 26.4825C19.6662 24.7576 18.2672 23.3545 16.5424 23.3545C14.8175 23.3545 13.4165 24.7576 13.4165 26.4825C13.4165 27.2124 13.6397 27.8842 14.0603 28.4171C12.7725 29.2334 11.8862 30.6704 11.8862 32.3048V36.1105C11.8862 36.6897 12.4154 37.1568 12.9947 37.1568H20.0986C20.6779 37.1568 21.1139 36.6896 21.1139 36.1105V32.3048C21.1138 30.6703 20.2732 29.2334 18.9852 28.4169ZM16.5466 25.4517C17.1149 25.4517 17.5774 25.9142 17.5774 26.4825C17.5774 27.051 17.1149 27.5133 16.5466 27.5133C15.9782 27.5133 15.5157 27.0508 15.5157 26.4825C15.5157 25.9142 15.9781 25.4517 16.5466 25.4517ZM19.0166 35.0596H13.9834V32.3048C13.9834 30.9243 15.1196 29.8013 16.5001 29.8013C17.8804 29.8013 19.0166 30.9243 19.0166 32.3048V35.0596Z" fill="#45084A"/>
<path d="M17.4785 19.6221V16.1472C17.4785 15.568 17.0092 15.0986 16.4299 15.0986C15.8507 15.0986 15.3813 15.568 15.3813 16.1472V19.6221C15.3813 20.2013 15.8507 20.6707 16.4299 20.6707C17.009 20.6707 17.4785 20.2012 17.4785 19.6221Z" fill="#45084A"/>
<path d="M6.3415 19.8486C5.92081 19.4506 5.25754 19.4686 4.85894 19.889C4.46076 20.3096 4.47893 20.9733 4.89935 21.3716L10.1715 26.3638C10.3744 26.5558 10.6336 26.651 10.8924 26.651C11.1702 26.651 11.4477 26.5411 11.6539 26.3234C12.0521 25.9029 12.0339 25.2392 11.6135 24.8409L6.3415 19.8486Z" fill="#45084A"/>
<path d="M26.7412 19.8339L21.4834 24.8376C21.0639 25.2367 21.0475 25.9006 21.4467 26.32C21.6528 26.5367 21.9293 26.6458 22.2064 26.6458C22.466 26.6458 22.7262 26.5498 22.9291 26.3568L28.1868 21.3531C28.6064 20.9539 28.6228 20.2902 28.2236 19.8708C27.8245 19.4509 27.1606 19.4348 26.7412 19.8339Z" fill="#45084A"/>
</svg>
