<svg width="40" height="40" viewBox="0 0 40 40" fill="none" xmlns="http://www.w3.org/2000/svg">
<g clip-path="url(#clip0_6845_18603)">
<path d="M20 13.125C15.875 13.125 12.5 16.5 12.5 20.625C12.5 24.75 15.875 28.125 20 28.125C24.125 28.125 27.5 24.75 27.5 20.625C27.5 16.5 24.125 13.125 20 13.125ZM20 25.625C17.25 25.625 15 23.375 15 20.625C15 17.875 17.25 15.625 20 15.625C22.75 15.625 25 17.875 25 20.625C25 23.375 22.75 25.625 20 25.625Z" fill="#45084A"/>
<path d="M20 31.5C15.3438 31.5 10.875 33.4375 7.6875 36.8437L6.84375 37.75L8.65625 39.4688L9.5 38.5625C12.25 35.625 15.9688 34 20 34C24.0312 34 27.75 35.625 30.5 38.5625L31.3438 39.4688L33.1562 37.75L32.3125 36.8437C29.125 33.4687 24.6562 31.5 20 31.5Z" fill="#45084A"/>
<path d="M30.3125 14.9688V17.4688C33.25 17.4688 35.9688 18.6562 38 20.8125L39.8125 19.0937C37.375 16.4687 33.9063 14.9688 30.3125 14.9688Z" fill="#45084A"/>
<path d="M36.2812 6.25C36.2812 2.96875 33.5938 0.28125 30.3125 0.28125C27.0312 0.28125 24.3438 2.96875 24.3438 6.25C24.3438 9.53125 27.0312 12.2187 30.3125 12.2187C33.5938 12.2187 36.2812 9.53125 36.2812 6.25ZM26.8438 6.25C26.8438 4.34375 28.4062 2.78125 30.3125 2.78125C32.2187 2.78125 33.7812 4.34375 33.7812 6.25C33.7812 8.15625 32.2187 9.71875 30.3125 9.71875C28.4062 9.71875 26.8438 8.15625 26.8438 6.25Z" fill="#45084A"/>
<path d="M9.6875 14.9688C6.09375 14.9688 2.625 16.4687 0.1875 19.0937L2 20.8125C4 18.6562 6.75 17.4688 9.6875 17.4688V14.9688Z" fill="#45084A"/>
<path d="M15.6562 6.25C15.6562 2.96875 12.9688 0.28125 9.6875 0.28125C6.40625 0.28125 3.71875 2.96875 3.71875 6.25C3.71875 9.53125 6.40625 12.2187 9.6875 12.2187C12.9688 12.2187 15.6562 9.53125 15.6562 6.25ZM9.6875 9.71875C7.78125 9.71875 6.21875 8.15625 6.21875 6.25C6.21875 4.34375 7.78125 2.78125 9.6875 2.78125C11.5938 2.78125 13.1562 4.34375 13.1562 6.25C13.1562 8.15625 11.5938 9.71875 9.6875 9.71875Z" fill="#45084A"/>
</g>
<defs>
<clipPath id="clip0_6845_18603">
<rect width="40" height="40" fill="white"/>
</clipPath>
</defs>
</svg>
