<svg width="27" height="27" viewBox="0 0 27 27" fill="none" xmlns="http://www.w3.org/2000/svg">
<path d="M9.40593 0.887684C6.70821 1.82355 4.3817 3.59985 2.76813 5.95567C1.15456 8.3115 0.338972 11.1227 0.441174 13.9763C0.543375 16.8299 1.55797 19.5755 3.33594 21.8099C5.11391 24.0442 7.56153 25.6496 10.3193 26.39C12.5551 26.9669 14.8975 26.9923 17.1452 26.4639C19.1814 26.0065 21.064 25.0281 22.6085 23.6246C24.216 22.1193 25.3828 20.2042 25.9835 18.0854C26.6364 15.7813 26.7526 13.3582 26.3231 11.0021H13.7681V16.2102H21.0391C20.8938 17.0408 20.5824 17.8336 20.1236 18.5411C19.6647 19.2486 19.0678 19.8562 18.3687 20.3277C17.4808 20.915 16.4799 21.3102 15.4303 21.4878C14.3776 21.6836 13.2978 21.6836 12.2451 21.4878C11.1782 21.2672 10.1689 20.8269 9.28147 20.1948C7.85585 19.1856 6.7854 17.752 6.22288 16.0984C5.65085 14.4138 5.65085 12.5876 6.22288 10.903C6.6233 9.7222 7.28523 8.64709 8.15929 7.75792C9.15953 6.72168 10.4259 5.98097 11.8194 5.61706C13.2129 5.25315 14.6797 5.2801 16.0589 5.69495C17.1363 6.02568 18.1215 6.60354 18.9361 7.38245C19.7559 6.56682 20.5744 5.74909 21.3914 4.92925C21.8133 4.48839 22.2731 4.06862 22.6887 3.61722C21.4453 2.46017 19.9859 1.55985 18.394 0.967841C15.4951 -0.084759 12.3231 -0.113047 9.40593 0.887684Z" fill="white"/>
<path d="M9.40555 0.887733C12.3225 -0.113678 15.4944 -0.0861352 18.3936 0.96578C19.9858 1.56181 21.4446 2.46647 22.6862 3.62781C22.2643 4.07922 21.8192 4.50109 21.3889 4.93984C20.5705 5.75687 19.7527 6.57109 18.9357 7.3825C18.1212 6.60359 17.1359 6.02573 16.0585 5.695C14.6798 5.27869 13.213 5.25019 11.8191 5.61261C10.4253 5.97503 9.15814 6.71438 8.1568 7.74953C7.28274 8.63871 6.6208 9.71381 6.22039 10.8946L1.84766 7.50906C3.41283 4.40524 6.12283 2.03106 9.40555 0.887733Z" fill="#E33629"/>
<path d="M0.687338 10.8637C0.922367 9.69886 1.31256 8.57084 1.84749 7.50977L6.22023 10.9037C5.6482 12.5883 5.6482 14.4146 6.22023 16.0991C4.76335 17.2241 3.30578 18.3548 1.84749 19.491C0.508359 16.8254 0.0999457 13.7883 0.687338 10.8637Z" fill="#F8BD00"/>
<path d="M13.7675 11H26.3225C26.752 13.356 26.6358 15.7791 25.9829 18.0833C25.3823 20.2021 24.2154 22.1171 22.6079 23.6225C21.1968 22.5214 19.7793 21.4288 18.3681 20.3277C19.0677 19.8557 19.6649 19.2474 20.1237 18.5392C20.5826 17.8309 20.8938 17.0373 21.0386 16.2059H13.7675C13.7654 14.472 13.7675 12.736 13.7675 11Z" fill="#587DBD"/>
<path d="M1.8457 19.4905C3.30398 18.3655 4.76156 17.2349 6.21844 16.0986C6.78208 17.7528 7.85406 19.1865 9.28125 20.195C10.1714 20.8242 11.1829 21.261 12.2513 21.4775C13.3039 21.6733 14.3837 21.6733 15.4364 21.4775C16.486 21.2999 17.4869 20.9047 18.3748 20.3174C19.7859 21.4185 21.2034 22.5111 22.6146 23.6122C21.0703 25.0165 19.1878 25.9956 17.1513 26.4536C14.9036 26.982 12.5612 26.9566 10.3254 26.3797C8.55711 25.9076 6.90541 25.0753 5.47383 23.935C3.95858 22.732 2.721 21.2159 1.8457 19.4905Z" fill="#319F43"/>
</svg>
