<svg width="24" height="24" viewBox="0 0 24 24" fill="none" xmlns="http://www.w3.org/2000/svg">
<path d="M0.0619698 5.26389C0.170158 4.71892 0.411798 4.22022 0.749252 3.80823C0.820408 3.71847 0.894753 3.63808 0.97533 3.55769C1.57322 2.95684 2.41238 2.58203 3.32911 2.58203H20.6709C21.5876 2.58203 22.4238 2.95684 23.0245 3.55769C23.1049 3.63808 23.1792 3.71847 23.2506 3.80823C23.5882 4.22017 23.8298 4.71892 23.935 5.26389C23.9782 5.47422 24 5.69158 24 5.91133V18.091C24 18.5583 23.9009 19.0074 23.7242 19.413C23.5603 19.8002 23.3186 20.1505 23.0245 20.4443C22.95 20.5187 22.876 20.587 22.7952 20.655C22.2193 21.1319 21.4759 21.42 20.6709 21.42H3.32911C2.5238 21.42 1.77717 21.1319 1.2046 20.652C1.12406 20.587 1.04967 20.5187 0.97533 20.4443C0.681423 20.1505 0.439783 19.8002 0.272486 19.413V19.41C0.0958138 19.0044 4.95911e-05 18.5582 4.95911e-05 18.091V5.91133C1.90735e-06 5.69158 0.0214233 5.47422 0.0619698 5.26389ZM21.8199 4.76214C21.5225 4.46505 21.123 4.28519 20.6709 4.28519H3.32911C2.87696 4.28519 2.47402 4.46505 2.18011 4.76214C2.12752 4.81506 2.07797 4.87403 2.03424 4.93263L11.1236 12.8543C11.3743 13.074 11.684 13.1825 12 13.1825C12.3128 13.1825 12.6223 13.074 12.8763 12.8543L21.9623 4.92925C21.922 4.87066 21.8725 4.81506 21.8199 4.76214ZM22.2968 18.091V6.6917L15.7192 12.4299L22.2935 18.162C22.2968 18.1403 22.2968 18.1158 22.2968 18.091ZM3.32911 19.7165H20.6709C20.9653 19.7165 21.2408 19.6391 21.4759 19.5031L14.5395 13.4582L13.8919 14.0215C13.35 14.4924 12.6718 14.7309 12 14.7309C11.3247 14.7309 10.6466 14.4924 10.1048 14.0215L9.4575 13.4582L2.52375 19.5031C2.7592 19.6391 3.03469 19.7165 3.32911 19.7165ZM1.70316 18.091C1.70316 18.1158 1.70316 18.1403 1.70635 18.162L8.28066 12.4332L1.70316 6.69475V18.091Z" fill="#EFD5F8"/>
</svg>
