<svg width="40" height="40" viewBox="0 0 40 40" fill="none" xmlns="http://www.w3.org/2000/svg">
<path fill-rule="evenodd" clip-rule="evenodd" d="M19.6456 5.0594C19.2449 5.65407 18.7877 6.5842 18.1016 7.9903L14.3472 15.6836C14.0161 16.3622 13.7283 16.9518 13.4531 17.3998C13.1713 17.8585 12.7996 18.3477 12.2207 18.639C11.6983 18.902 11.1097 18.9985 10.5271 18.9065C9.87166 18.8028 9.37426 18.4305 8.98483 18.0705C8.60731 17.7215 8.18475 17.2403 7.70543 16.6947L7.66396 16.6474C6.64925 15.4922 5.95096 14.6996 5.41013 14.194C5.14248 13.9438 4.96655 13.8155 4.85841 13.755C4.85791 13.7548 4.85743 13.7545 4.85693 13.7542C4.80065 13.7747 4.7353 13.8154 4.67078 13.8899C4.6707 13.8898 4.67091 13.8898 4.67078 13.8899C4.67508 13.8921 4.57756 14.0903 4.5836 14.8663C4.58991 15.6785 4.69516 16.8088 4.84748 18.4273L5.22948 22.4862C5.54696 25.8595 5.77705 28.2838 6.1628 30.1222C6.54411 31.9393 7.04633 33.0125 7.79398 33.7773C8.52325 34.5233 9.46 34.9502 11.0212 35.1785C12.6334 35.4142 14.7416 35.4173 17.7334 35.4173H22.2666C25.2584 35.4173 27.3666 35.4142 28.9787 35.1785C30.5399 34.9502 31.4767 34.5233 32.2059 33.7773C32.9536 33.0125 33.4557 31.9393 33.8371 30.1222C34.2229 28.2838 34.4529 25.8595 34.7704 22.4862L35.1524 18.4273C35.3047 16.8088 35.4101 15.6785 35.4164 14.8663C35.4224 14.0903 35.3246 13.8921 35.3289 13.8898C35.3296 13.8895 35.3326 13.8937 35.3387 13.9011C35.2711 13.8195 35.2021 13.7758 35.1431 13.7542C35.1426 13.7545 35.1421 13.7548 35.1416 13.755C35.0334 13.8155 34.8574 13.9438 34.5897 14.194C34.0489 14.6996 33.3507 15.4922 32.3359 16.6474L32.2946 16.6947C31.8152 17.2403 31.3926 17.7215 31.0151 18.0705C30.6257 18.4305 30.1282 18.8028 29.4727 18.9065C28.8902 18.9985 28.3017 18.902 27.7792 18.639C27.2004 18.3477 26.8286 17.8585 26.5467 17.3998C26.2716 16.9518 25.9839 16.3621 25.6527 15.6835L21.8984 7.99028C21.2122 6.5842 20.7549 5.65407 20.3544 5.0594C20.1847 4.80755 20.0681 4.68163 19.9999 4.62098C19.9319 4.68163 19.8152 4.80755 19.6456 5.0594ZM20.0734 4.56892C20.0734 4.5697 20.0681 4.57287 20.0579 4.5761C20.0684 4.56975 20.0734 4.56813 20.0734 4.56892ZM19.9419 4.5761C19.9317 4.57287 19.9266 4.5697 19.9266 4.56892C19.9264 4.56813 19.9316 4.56975 19.9419 4.5761ZM17.5722 3.66262C18.0751 2.91625 18.8227 2.08398 19.9999 2.08398C21.1772 2.08398 21.9249 2.91623 22.4277 3.6626C22.9381 4.4201 23.4706 5.51145 24.1019 6.80535L27.8732 14.5333C28.2382 15.2814 28.4731 15.7594 28.6769 16.091C28.8182 16.3212 28.8956 16.3953 28.9137 16.411C28.9657 16.4352 29.0142 16.4429 29.0591 16.4398C29.0879 16.4237 29.1689 16.3726 29.3179 16.2349C29.5881 15.9851 29.9244 15.6047 30.4577 14.9975L30.5062 14.9423C31.4607 13.8557 32.2404 12.968 32.8826 12.3677C33.2119 12.0599 33.5579 11.7762 33.9217 11.5728C34.2916 11.3661 34.7561 11.1999 35.2861 11.2465C36.0744 11.3157 36.7741 11.7145 37.2646 12.3071C37.8564 13.0221 37.9229 14.0216 37.9162 14.8857C37.9091 15.8191 37.7924 17.058 37.6476 18.5973L37.2519 22.8003C36.9436 26.0765 36.7021 28.6423 36.2839 30.6357C35.8577 32.6665 35.2171 34.2733 33.9937 35.5248C32.7519 36.7952 31.2261 37.3763 29.3404 37.6521C27.5266 37.9173 25.2356 37.9173 22.3656 37.9173H17.6344C14.7644 37.9173 12.4733 37.9173 10.6595 37.6521C8.77385 37.3763 7.24805 36.7952 6.00628 35.5248C4.7829 34.2733 4.14225 32.6665 3.7161 30.6357C3.2978 28.6423 3.05631 26.0765 2.748 22.8003L2.35243 18.5973C2.20755 17.058 2.09093 15.8191 2.08368 14.8857C2.07695 14.0216 2.14355 13.0221 2.73533 12.3071C3.22585 11.7145 3.92546 11.3157 4.71391 11.2465C5.24388 11.1999 5.70835 11.3661 6.07823 11.5728C6.442 11.7762 6.7881 12.0599 7.11738 12.3677C7.75956 12.968 8.53923 13.8556 9.49371 14.9423L9.54221 14.9975C10.0756 15.6047 10.4119 15.9851 10.6821 16.2349C10.831 16.3726 10.912 16.4237 10.9409 16.4398C10.9856 16.4429 11.0342 16.4352 11.0863 16.411C11.1044 16.3953 11.1816 16.3212 11.323 16.091C11.5268 15.7594 11.7617 15.2814 12.1267 14.5333L15.898 6.80538C16.5294 5.51147 17.0619 4.4201 17.5722 3.66262Z" fill="#45084A"/>
</svg>
