<svg width="64" height="47" viewBox="0 0 64 47" fill="none" xmlns="http://www.w3.org/2000/svg">
<path d="M11.713 6.5405C11.713 2.9172 14.6266 -0.00488281 18.2916 -0.00488281C21.9332 -0.00488281 24.8701 2.9172 24.8701 6.5405C24.8467 10.1873 21.9099 13.0859 18.2916 13.0859C14.6499 13.0859 11.713 10.1638 11.713 6.5405ZM48 34.6134H36.0635V24.0005C36.0635 18.8302 31.5223 14.651 26.4127 14.651H10.4127C4.80307 14.651 -0.00251839 19.4875 2.12877e-05 24.2532V43.7102C-0.00658189 45.8664 1.52408 46.9923 3.04764 46.9951C4.575 46.9979 6.09526 45.8719 6.09526 43.7102V24.7586H8.127V46.9951H27.9365V24.7586H29.9683L29.9888 37.4865C29.9754 39.6922 31.3455 40.6314 32.7619 40.6779H48C52.1557 40.6779 52.1557 34.6134 48 34.6134ZM42.6895 28.679H59.8982V31.6653H42.6895V28.679ZM61.999 15.1407C60.894 15.1407 59.998 16.032 59.998 17.1317C59.998 17.4488 60.0744 17.7477 60.2072 18.0138L56.0546 20.0586L52.3119 13.7666C52.8996 13.4197 53.2947 12.7839 53.2947 12.0549C53.2947 10.9555 52.399 10.064 51.2937 10.064C50.1884 10.064 49.2927 10.9552 49.2927 12.0549C49.2927 12.7839 49.6879 13.4197 50.2756 13.7666L46.5486 20.032L42.4785 18.0176C42.6123 17.7505 42.6895 17.4503 42.6895 17.1317C42.6895 16.0322 41.7938 15.1407 40.6885 15.1407C39.5835 15.1407 38.6875 16.0322 38.6875 17.1317C38.6875 18.2311 39.5832 19.1226 40.6885 19.1226C40.8216 19.1226 40.9511 19.109 41.0768 19.0844L42.5892 26.6881H59.998L61.5909 19.0809C61.7227 19.1079 61.8591 19.1226 61.999 19.1226C63.104 19.1226 64 18.2314 64 17.1317C64 16.0322 63.1043 15.1407 61.999 15.1407Z" fill="#EFD5F8"/>
</svg>
