<svg width="36" height="27" viewBox="0 0 36 27" fill="none" xmlns="http://www.w3.org/2000/svg">
<path d="M6.58858 3.87085C6.58858 1.86647 8.22744 0.25 10.289 0.25C12.3374 0.25 13.9894 1.86647 13.9894 3.87085C13.9763 5.88823 12.3243 7.4917 10.289 7.4917C8.24058 7.4917 6.58858 5.87523 6.58858 3.87085ZM27 19.4005H20.2857V13.5296C20.2857 10.6694 17.7313 8.35753 14.8572 8.35753H5.85715C2.70173 8.35753 -0.0014166 11.033 1.19743e-05 13.6694V24.4328C-0.00370231 25.6256 0.857297 26.2485 1.7143 26.25C2.57344 26.2515 3.42858 25.6287 3.42858 24.4328V13.9489H4.57144V26.25H15.7143V13.9489H16.8572L16.8687 20.9899C16.8612 22.2101 17.6319 22.7297 18.4286 22.7554H27C29.3376 22.7554 29.3376 19.4005 27 19.4005ZM24.0129 16.1177H33.6927V17.7697H24.0129V16.1177ZM34.8744 8.62843C34.2529 8.62843 33.7489 9.12145 33.7489 9.72979C33.7489 9.90522 33.7919 10.0706 33.8666 10.2178L31.5307 11.3489L29.4254 7.86828C29.756 7.67635 29.9783 7.32466 29.9783 6.92138C29.9783 6.31317 29.4744 5.82001 28.8527 5.82001C28.231 5.82001 27.7271 6.31303 27.7271 6.92138C27.7271 7.32466 27.9494 7.67635 28.28 7.86828L26.1836 11.3342L23.8941 10.2199C23.9694 10.0721 24.0129 9.90606 24.0129 9.72979C24.0129 9.12159 23.509 8.62843 22.8873 8.62843C22.2657 8.62843 21.7617 9.12159 21.7617 9.72979C21.7617 10.338 22.2656 10.8312 22.8873 10.8312C22.9621 10.8312 23.035 10.8236 23.1057 10.8101L23.9564 15.0163H33.7489L34.6449 10.8081C34.719 10.8231 34.7957 10.8312 34.8744 10.8312C35.496 10.8312 36 10.3381 36 9.72979C36 9.12159 35.4961 8.62843 34.8744 8.62843Z" fill="#45084A"/>
</svg>
