<svg width="19" height="18" viewBox="0 0 19 18" fill="none" xmlns="http://www.w3.org/2000/svg">
<path fill-rule="evenodd" clip-rule="evenodd" d="M16.9151 1.28181C17.034 1.141 17.1008 0.950011 17.1008 0.750868C17.1008 0.551726 17.034 0.360739 16.9151 0.219924C16.7961 0.0791091 16.6348 4.92097e-09 16.4667 0C16.2985 -4.92097e-09 16.1372 0.0791091 16.0183 0.219924L13.5318 3.16561C12.2499 2.55729 10.8811 2.24667 9.5 2.25071C5.4568 2.25071 2.0976 4.80944 0.0962681 8.60254C0.0333575 8.72173 0 8.85945 0 9C0 9.14055 0.0333575 9.27827 0.0962681 9.39746C1.1438 11.3818 2.56247 13.0286 4.25727 14.1475L2.08493 16.7182C1.96601 16.859 1.8992 17.05 1.8992 17.2491C1.8992 17.4483 1.96601 17.6393 2.08493 17.7801C2.20386 17.9209 2.36515 18 2.53333 18C2.70152 18 2.86281 17.9209 2.98173 17.7801L5.4682 14.8344C6.70447 15.4238 8.05853 15.7493 9.5 15.7493C13.5432 15.7493 16.9024 13.1906 18.9037 9.39746C18.9666 9.27827 19 9.14055 19 9C19 8.85945 18.9666 8.72173 18.9037 8.60254C17.8562 6.61825 16.4375 4.97142 14.7427 3.85254L16.9151 1.28181ZM12.5451 4.33399C11.5637 3.94438 10.5351 3.7473 9.5 3.75055C6.0838 3.75055 3.20467 5.81733 1.38827 9C2.37247 10.7248 3.66827 12.1212 5.19333 13.0391L12.5451 4.33399ZM6.45493 13.6645L13.8067 4.96093C15.3317 5.87883 16.6275 7.27518 17.6117 9C15.7953 12.1827 12.9162 14.2494 9.5 14.2494C8.46491 14.2527 7.43633 14.0556 6.45493 13.666" fill="#45084A" fill-opacity="0.79"/>
</svg>
