<svg width="19" height="14" viewBox="0 0 19 14" fill="none" xmlns="http://www.w3.org/2000/svg">
<path fill-rule="evenodd" clip-rule="evenodd" d="M9.5 12.4444C6.0838 12.4444 3.20467 10.3009 1.38827 7C3.20467 3.69911 6.0838 1.55556 9.5 1.55556C12.9162 1.55556 15.7953 3.69911 17.6117 7C15.7953 10.3009 12.9162 12.4444 9.5 12.4444ZM9.5 0C5.4568 0 2.0976 2.65378 0.0962681 6.58778C0.0333575 6.71139 0 6.85423 0 7C0 7.14577 0.0333575 7.28861 0.0962681 7.41222C2.0976 11.3462 5.4568 14 9.5 14C13.5432 14 16.9024 11.3462 18.9037 7.41222C18.9666 7.28861 19 7.14577 19 7C19 6.85423 18.9666 6.71139 18.9037 6.58778C16.9024 2.65378 13.5432 0 9.5 0ZM9.5 10.1111C10.1719 10.1111 10.8162 9.78333 11.2913 9.19989C11.7664 8.61644 12.0333 7.82512 12.0333 7C12.0333 6.17488 11.7664 5.38356 11.2913 4.80011C10.8162 4.21667 10.1719 3.88889 9.5 3.88889C8.82812 3.88889 8.18375 4.21667 7.70866 4.80011C7.23357 5.38356 6.96667 6.17488 6.96667 7C6.96667 7.82512 7.23357 8.61644 7.70866 9.19989C8.18375 9.78333 8.82812 10.1111 9.5 10.1111Z" fill="#45084A" fill-opacity="0.79"/>
</svg>
