<svg width="131" height="61" viewBox="0 0 131 61" fill="none" xmlns="http://www.w3.org/2000/svg">
<rect y="20.3174" width="126" height="40.8847" rx="20" transform="rotate(-9.27922 0 20.3174)" fill="white"/>
<path d="M41.3958 33.6857L34.6453 34.7886L35.9296 42.6494L31.5181 43.3702L28.3255 23.8292L32.737 23.1085L34.014 30.9248L40.7645 29.8219L39.4875 22.0056L43.8842 21.2872L47.0768 40.8281L42.6801 41.5465L41.3958 33.6857ZM53.188 34.5708C53.2886 35.0002 53.4896 35.3626 53.7912 35.6578C54.0927 35.953 54.4767 36.1639 54.9432 36.2903C55.418 36.4053 55.9564 36.4136 56.5584 36.3152C57.1308 36.2217 57.6343 36.0786 58.0689 35.886C58.5134 35.6918 58.889 35.4785 59.1955 35.246C59.5119 35.0119 59.7485 34.7858 59.9054 34.5676L62.1069 37.0653C61.9037 37.3721 61.5961 37.6909 61.1841 38.0217C60.7803 38.3409 60.2261 38.6392 59.5216 38.9164C58.8171 39.1937 57.9072 39.4234 56.792 39.6056C55.4498 39.8249 54.2145 39.7683 53.0861 39.4359C51.9578 39.1035 51.0128 38.498 50.2511 37.6193C49.4895 36.7406 48.9934 35.5956 48.7628 34.1843C48.5693 33 48.6517 31.8922 49.0101 30.8609C49.3768 29.8182 50.0084 28.9398 50.905 28.2259C51.8 27.5021 52.9433 27.0266 54.3349 26.7992C55.6573 26.5831 56.8417 26.6379 57.8878 26.9635C58.9439 27.2874 59.8117 27.8853 60.4911 28.7572C61.1789 29.6175 61.6388 30.7583 61.871 32.1794C61.8839 32.2584 61.9048 32.4171 61.9336 32.6556C61.9723 32.8924 61.9882 33.052 61.9814 33.1341L53.188 34.5708ZM57.4074 31.4648C57.3459 31.1506 57.2112 30.8535 57.0033 30.5733C56.7938 30.2833 56.5151 30.0654 56.167 29.9196C55.8173 29.764 55.3958 29.7264 54.9023 29.8071C54.4088 29.8877 54.0055 30.0549 53.6924 30.3087C53.3874 30.5511 53.1712 30.8397 53.0435 31.1747C52.9158 31.5097 52.8704 31.8515 52.9071 32.2001L57.4074 31.4648ZM69.6886 37.1337L65.1734 37.8714L61.8453 17.5015L66.3605 16.7638L69.6886 37.1337ZM77.0904 35.9244L72.5753 36.6621L69.2472 16.2922L73.7623 15.5545L77.0904 35.9244ZM86.238 34.7946C84.9056 35.0123 83.677 34.9344 82.552 34.5609C81.4354 34.1759 80.5027 33.5531 79.7542 32.6926C79.0139 31.8205 78.5421 30.7627 78.339 29.5192C78.1358 28.2757 78.2464 27.1228 78.6706 26.0605C79.1031 24.9867 79.7866 24.0847 80.7211 23.3545C81.6655 22.6226 82.8038 22.1478 84.1361 21.9302C85.4685 21.7125 86.6888 21.8019 87.7973 22.1983C88.9057 22.5948 89.8259 23.2348 90.558 24.1183C91.2884 24.9919 91.7552 26.0505 91.9584 27.294C92.1616 28.5376 92.056 29.6897 91.6416 30.7504C91.2256 31.8012 90.5544 32.686 89.6282 33.4047C88.7004 34.1136 87.5703 34.5769 86.238 34.7946ZM85.6333 31.0937C86.1465 31.0098 86.5721 30.8238 86.91 30.5355C87.2479 30.2472 87.4867 29.8789 87.6262 29.4305C87.7657 28.9822 87.7928 28.4965 87.7073 27.9734C87.6202 27.4405 87.4392 26.9837 87.1642 26.603C86.8893 26.2224 86.5449 25.9443 86.1312 25.7687C85.7175 25.5931 85.254 25.5472 84.7408 25.6311C84.2276 25.7149 83.7979 25.9067 83.4517 26.2065C83.1154 26.5046 82.8725 26.8787 82.7231 27.3286C82.5836 27.777 82.5574 28.2677 82.6444 28.8006C82.7299 29.3237 82.9101 29.7755 83.1851 30.1562C83.4699 30.5352 83.8184 30.8076 84.2305 30.9733C84.6525 31.1374 85.1201 31.1775 85.6333 31.0937ZM95.7695 26.3218L92.566 12.4822L97.4217 11.6889L98.7895 25.8284L95.7695 26.3218ZM98.3652 32.8132C97.8816 32.8922 97.4182 32.8463 96.9748 32.6756C96.5299 32.495 96.151 32.2225 95.8382 31.8582C95.5253 31.4938 95.3286 31.065 95.248 30.5715C95.1254 29.8214 95.2821 29.1372 95.7181 28.5188C96.164 27.8988 96.7521 27.5292 97.4824 27.4098C98.2423 27.2857 98.9274 27.4473 99.5375 27.8948C100.148 28.3423 100.514 28.941 100.637 29.6911C100.756 30.4214 100.598 31.0958 100.162 31.7142C99.7239 32.3227 99.1251 32.689 98.3652 32.8132Z" fill="#45084A"/>
</svg>
