<svg width="45" height="44" viewBox="0 0 45 44" fill="none" xmlns="http://www.w3.org/2000/svg">
<path d="M33.3738 32.8718C39.3792 26.8664 39.3792 17.1297 33.3738 11.1243C27.3684 5.11884 17.6316 5.11885 11.6262 11.1243C5.6208 17.1297 5.6208 26.8664 11.6262 32.8718C17.6316 38.8772 27.3684 38.8772 33.3738 32.8718Z" fill="white" stroke="#45084A" stroke-width="5" stroke-linecap="round" stroke-linejoin="round"/>
<path d="M11.7808 11.2334L17.9319 17.3845" stroke="#45084A" stroke-width="5" stroke-linecap="round" stroke-linejoin="round"/>
<path d="M27.1587 17.3845L33.3098 11.2334" stroke="#45084A" stroke-width="5" stroke-linecap="round" stroke-linejoin="round"/>
<path d="M27.1587 26.6113L33.3098 32.7625" stroke="#45084A" stroke-width="5" stroke-linecap="round" stroke-linejoin="round"/>
<path d="M17.9319 26.6113L11.7808 32.7625" stroke="#45084A" stroke-width="5" stroke-linecap="round" stroke-linejoin="round"/>
<path d="M26.8498 26.3476C29.252 23.9454 29.252 20.0507 26.8498 17.6485C24.4476 15.2464 20.553 15.2464 18.1508 17.6485C15.7486 20.0507 15.7486 23.9454 18.1508 26.3476C20.553 28.7497 24.4476 28.7497 26.8498 26.3476Z" fill="white" stroke="#45084A" stroke-width="4" stroke-linecap="round" stroke-linejoin="round"/>
</svg>
