<svg width="77" height="77" viewBox="0 0 77 77" fill="none" xmlns="http://www.w3.org/2000/svg">
<path d="M57.7477 57.7429C68.3779 47.1126 68.3779 29.8776 57.7477 19.2474C47.1174 8.61712 29.8824 8.61712 19.2522 19.2474C8.62191 29.8776 8.62191 47.1126 19.2522 57.7429C29.8824 68.3731 47.1174 68.3731 57.7477 57.7429Z" fill="#EFD5F8" stroke="black" stroke-width="5" stroke-linecap="round" stroke-linejoin="round"/>
<path d="M19.5256 19.4414L30.4138 30.3296" stroke="black" stroke-width="5" stroke-linecap="round" stroke-linejoin="round"/>
<path d="M46.7463 30.3296L57.6345 19.4414" stroke="black" stroke-width="5" stroke-linecap="round" stroke-linejoin="round"/>
<path d="M46.7463 46.6621L57.6345 57.5503" stroke="black" stroke-width="5" stroke-linecap="round" stroke-linejoin="round"/>
<path d="M30.4138 46.6621L19.5256 57.5503" stroke="black" stroke-width="5" stroke-linecap="round" stroke-linejoin="round"/>
<path d="M46.1991 46.1942C50.4512 41.9421 50.4512 35.0481 46.1991 30.796C41.947 26.5439 35.053 26.5439 30.8009 30.796C26.5488 35.0481 26.5488 41.9421 30.8009 46.1942C35.053 50.4463 41.947 50.4463 46.1991 46.1942Z" fill="#EFD5F8" stroke="black" stroke-width="4" stroke-linecap="round" stroke-linejoin="round"/>
</svg>
