<svg width="131" height="61" viewBox="0 0 131 61" fill="none" xmlns="http://www.w3.org/2000/svg">
<rect y="20.3174" width="126" height="40.8847" rx="20" transform="rotate(-9.27922 0 20.3174)" fill="white"/>
<path d="M41.3959 33.686L34.6454 34.7889L35.9297 42.6497L31.5182 43.3704L28.3255 23.8295L32.737 23.1088L34.0141 30.9251L40.7646 29.8222L39.4875 22.0058L43.8842 21.2875L47.0769 40.8284L42.6802 41.5467L41.3959 33.686ZM53.1881 34.5711C53.2886 35.0005 53.4897 35.3628 53.7912 35.6581C54.0928 35.9533 54.4768 36.1641 54.9433 36.2906C55.418 36.4055 55.9564 36.4138 56.5584 36.3155C57.1308 36.2219 57.6344 36.0789 58.069 35.8863C58.5135 35.6921 58.889 35.4787 59.1955 35.2463C59.5119 35.0122 59.7486 34.7861 59.9054 34.5679L62.107 37.0656C61.9038 37.3724 61.5962 37.6912 61.1841 38.0219C60.7803 38.3412 60.2262 38.6395 59.5217 38.9167C58.8171 39.1939 57.9073 39.4237 56.7921 39.6059C55.4499 39.8252 54.2146 39.7686 53.0862 39.4362C51.9578 39.1038 51.0128 38.4982 50.2512 37.6196C49.4895 36.7409 48.9934 35.5959 48.7628 34.1846C48.5693 33.0003 48.6518 31.8925 49.0102 30.8612C49.3768 29.8185 50.0085 28.9401 50.9051 28.2262C51.8001 27.5024 52.9434 27.0268 54.3349 26.7995C55.6574 26.5834 56.8417 26.6382 57.8879 26.9637C58.944 27.2877 59.8117 27.8856 60.4912 28.7574C61.1789 29.6178 61.6389 30.7586 61.8711 32.1797C61.884 32.2587 61.9048 32.4174 61.9337 32.6558C61.9724 32.8927 61.9883 33.0522 61.9815 33.1344L53.1881 34.5711ZM57.4074 31.4651C57.346 31.1509 57.2113 30.8537 57.0034 30.5736C56.7939 30.2836 56.5151 30.0657 56.1671 29.9199C55.8174 29.7642 55.3958 29.7267 54.9024 29.8073C54.4089 29.888 54.0056 30.0552 53.6924 30.309C53.3875 30.5513 53.1712 30.84 53.0436 31.175C52.9159 31.5099 52.8704 31.8517 52.9071 32.2004L57.4074 31.4651ZM69.6886 37.134L65.1735 37.8717L61.8454 17.5018L66.3605 16.7641L69.6886 37.134ZM77.0905 35.9246L72.5754 36.6623L69.2473 16.2924L73.7624 15.5547L77.0905 35.9246ZM86.238 34.7949C84.9057 35.0125 83.6771 34.9346 82.5521 34.5611C81.4354 34.1762 80.5028 33.5534 79.7542 32.6928C79.0139 31.8208 78.5422 30.763 78.339 29.5195C78.1359 28.276 78.2464 27.1231 78.6707 26.0608C79.1032 24.987 79.7867 24.085 80.7212 23.3547C81.6655 22.6229 82.8039 22.1481 84.1362 21.9304C85.4685 21.7128 86.6889 21.8021 87.7973 22.1986C88.9058 22.5951 89.826 23.235 90.5581 24.1186C91.2885 24.9922 91.7553 26.0508 91.9585 27.2943C92.1616 28.5378 92.056 29.6899 91.6416 30.7506C91.2256 31.8015 90.5545 32.6863 89.6283 33.405C88.7004 34.1139 87.5704 34.5772 86.238 34.7949ZM85.6334 31.0939C86.1466 31.0101 86.5721 30.824 86.9101 30.5358C87.248 30.2475 87.4867 29.8792 87.6263 29.4308C87.7658 28.9825 87.7928 28.4967 87.7074 27.9737C87.6203 27.4407 87.4393 26.984 87.1643 26.6033C86.8893 26.2227 86.545 25.9446 86.1312 25.769C85.7175 25.5934 85.2541 25.5475 84.7409 25.6314C84.2277 25.7152 83.798 25.907 83.4518 26.2068C83.1154 26.5049 82.8726 26.8789 82.7232 27.3289C82.5837 27.7773 82.5574 28.2679 82.6445 28.8009C82.73 29.3239 82.9102 29.7758 83.1852 30.1564C83.47 30.5355 83.8185 30.8078 84.2306 30.9735C84.6526 31.1377 85.1202 31.1778 85.6334 31.0939ZM95.7696 26.3221L92.5661 12.4825L97.4217 11.6892L98.7896 25.8286L95.7696 26.3221ZM98.3653 32.8135C97.8817 32.8925 97.4182 32.8466 96.9749 32.6759C96.5299 32.4952 96.1511 32.2228 95.8382 31.8584C95.5254 31.4941 95.3286 31.0652 95.248 30.5718C95.1255 29.8217 95.2822 29.1375 95.7182 28.5191C96.1641 27.8991 96.7521 27.5294 97.4825 27.4101C98.2424 27.2859 98.9274 27.4476 99.5375 27.8951C100.148 28.3426 100.514 28.9413 100.637 29.6914C100.756 30.4217 100.598 31.096 100.162 31.7144C99.724 32.323 99.1252 32.6893 98.3653 32.8135Z" fill="#45084A"/>
</svg>
