<svg width="268" height="121" viewBox="0 0 268 121" fill="none" xmlns="http://www.w3.org/2000/svg">
<path d="M15.3039 22.5241L8.8332 20.3069L6.25134 27.8418L2.0227 26.3929L8.44088 7.66196L12.6695 9.11091L10.1023 16.6033L16.5729 18.8205L19.1402 11.3281L23.3547 12.7722L16.9365 31.5031L12.722 30.059L15.3039 22.5241ZM25.2788 28.8754C25.1646 29.3014 25.1706 29.7157 25.2969 30.1184C25.4232 30.521 25.6621 30.8883 26.0135 31.2201C26.3776 31.5457 26.8482 31.8074 27.4252 32.0051C27.9739 32.1931 28.4853 32.3049 28.9593 32.3405C29.4429 32.3794 29.8746 32.3687 30.2546 32.3087C30.6441 32.2518 30.9594 32.1644 31.2008 32.0462L31.9611 35.2877C31.6371 35.4621 31.2154 35.5977 30.6959 35.6945C30.1892 35.7852 29.5598 35.7862 28.8079 35.6977C28.056 35.6092 27.1456 35.3818 26.0766 35.0155C24.79 34.5747 23.728 33.9412 22.8906 33.1152C22.0531 32.2891 21.5063 31.3089 21.2502 30.1747C20.994 29.0404 21.0977 27.7968 21.5612 26.4441C21.9502 25.3088 22.5463 24.3714 23.3494 23.6318C24.1652 22.886 25.1368 22.4103 26.2644 22.2047C27.3951 21.9896 28.6275 22.1106 29.9613 22.5676C31.229 23.002 32.2469 23.6098 33.0152 24.391C33.7929 25.1755 34.2752 26.1124 34.4622 27.2018C34.6618 28.285 34.5283 29.5078 34.0615 30.87C34.0356 30.9457 33.979 31.0954 33.8917 31.3192C33.8139 31.5463 33.7526 31.6944 33.7078 31.7636L25.2788 28.8754ZM30.4651 28.1313C30.5593 27.8254 30.581 27.4998 30.5302 27.1547C30.4825 26.8001 30.3398 26.4764 30.1019 26.1834C29.8672 25.881 29.5134 25.6488 29.0404 25.4867C28.5674 25.3247 28.1329 25.2815 27.737 25.3572C27.3538 25.4268 27.0268 25.579 26.756 25.8139C26.4852 26.0488 26.2836 26.3286 26.1513 26.6532L30.4651 28.1313ZM41.4506 35.7327L47.314 28.8941L51.5426 30.3431L37.5248 45.1539L33.211 43.6758L37.9298 38.6965L37.0545 25.3787L41.3541 26.852L41.4506 35.7327ZM65.0346 31.2082L60.5647 29.6766L61.8386 25.9588L75.007 30.471L73.7331 34.1888L69.2774 32.662L64.1331 47.6751L59.8903 46.2213L65.0346 31.2082ZM73.7247 45.4754C73.6104 45.9014 73.6165 46.3157 73.7427 46.7184C73.869 47.1211 74.1079 47.4884 74.4593 47.8202C74.8234 48.1458 75.294 48.4075 75.8711 48.6052C76.4197 48.7932 76.9311 48.905 77.4052 48.9406C77.8887 48.9794 78.3205 48.9688 78.7004 48.9087C79.0899 48.8519 79.4053 48.7644 79.6466 48.6463L80.4069 51.8877C80.0829 52.0621 79.6612 52.1977 79.1417 52.2946C78.635 52.3852 78.0057 52.3863 77.2538 52.2978C76.5019 52.2093 75.5914 51.9819 74.5224 51.6156C73.2359 51.1747 72.1739 50.5413 71.3364 49.7152C70.499 48.8891 69.9522 47.909 69.696 46.7747C69.4398 45.6404 69.5435 44.3969 70.0071 43.0441C70.396 41.9089 70.9921 40.9715 71.7952 40.2319C72.611 39.4861 73.5827 39.0103 74.7102 38.8047C75.841 38.5897 77.0733 38.7106 78.4072 39.1677C79.6748 39.6021 80.6928 40.2098 81.461 40.9911C82.2387 41.7755 82.7211 42.7124 82.908 43.8019C83.1077 44.8851 82.9741 46.1078 82.5073 47.47C82.4814 47.5457 82.4248 47.6955 82.3376 47.9193C82.2598 48.1463 82.1984 48.2944 82.1536 48.3636L73.7247 45.4754ZM78.9109 44.7314C79.0052 44.4254 79.0269 44.0999 78.976 43.7548C78.9284 43.4002 78.7856 43.0764 78.5477 42.7835C78.313 42.4811 77.9592 42.2489 77.4862 42.0868C77.0132 41.9247 76.5787 41.8815 76.1828 41.9573C75.7996 42.0268 75.4726 42.179 75.2018 42.414C74.931 42.6489 74.7295 42.9286 74.5971 43.2533L78.9109 44.7314ZM90.103 53.1647C90.6422 53.3494 91.1176 53.4119 91.5292 53.3521C91.9441 53.2828 92.2324 53.2125 92.3943 53.1411L93.3651 56.7401C93.1716 56.8112 92.8563 56.8829 92.4193 56.9552C91.9856 57.018 91.4653 57.0247 90.8585 56.9753C90.2612 56.9292 89.6078 56.7846 88.8983 56.5415C87.5644 56.0844 86.4773 55.4318 85.6369 54.5836C84.7997 53.7259 84.2561 52.7363 84.0062 51.6147C83.7657 50.4964 83.8594 49.3128 84.2873 48.0641C84.7184 46.8059 85.3703 45.8136 86.2428 45.0873C87.1249 44.3641 88.1579 43.9253 89.3419 43.7707C90.5292 43.6067 91.7897 43.7533 93.1236 44.2103C93.8237 44.4502 94.4221 44.7398 94.9189 45.0792C95.4284 45.4123 95.84 45.7383 96.1535 46.0572C96.4704 46.3666 96.6818 46.6134 96.7877 46.7977L93.7614 49.0588C93.7179 48.9699 93.6273 48.8332 93.4897 48.6486C93.3616 48.4673 93.1765 48.2823 92.9346 48.0937C92.6927 47.9051 92.3825 47.746 92.0041 47.6163C91.5406 47.4575 91.0649 47.4266 90.5771 47.5238C90.0987 47.6241 89.6652 47.8403 89.2766 48.1722C88.8881 48.5042 88.6014 48.9398 88.4166 49.479C88.2318 50.0182 88.1895 50.5428 88.2896 51.0528C88.3929 51.5533 88.6027 51.9899 88.919 52.3626C89.2448 52.7385 89.6394 53.0058 90.103 53.1647ZM107.052 48.9829C107.866 49.2617 108.604 49.6995 109.266 50.2964C109.928 50.8933 110.387 51.6372 110.642 52.5279C110.9 53.4092 110.83 54.4317 110.431 55.5953L107.995 62.7045L103.681 61.2264L105.874 54.8266C106.159 53.9942 106.184 53.305 105.948 52.7591C105.725 52.2069 105.292 51.8207 104.649 51.6003C104.223 51.4544 103.778 51.4285 103.312 51.5227C102.849 51.6073 102.426 51.8109 102.04 52.1334C101.668 52.4497 101.392 52.868 101.214 53.3883L99.0696 59.6461L94.7416 58.1632L101.432 38.6376L105.76 40.1206L102.473 49.7131C102.684 49.4366 103.023 49.2038 103.489 49.0148C103.969 48.8196 104.518 48.7119 105.138 48.6918C105.771 48.6655 106.409 48.7625 107.052 48.9829ZM131.398 49.4129C132.562 49.8116 133.535 50.2878 134.318 50.8414C135.1 51.395 135.708 51.9045 136.141 52.3699C136.573 52.8352 136.83 53.1346 136.911 53.2681L133.696 55.9877C133.583 55.8224 133.38 55.5677 133.086 55.2237C132.801 54.8829 132.437 54.5415 131.994 54.1994C131.56 53.8606 131.074 53.5988 130.534 53.414C129.806 53.1644 129.169 53.0942 128.625 53.2035C128.092 53.3066 127.739 53.6136 127.564 54.1244C127.444 54.4744 127.453 54.8319 127.593 55.1967C127.745 55.5553 128.023 55.9466 128.427 56.3706C128.844 56.7884 129.386 57.2751 130.052 57.831C130.664 58.3263 131.218 58.8543 131.713 59.415C132.208 59.9757 132.604 60.5767 132.903 61.218C133.214 61.8531 133.399 62.5298 133.46 63.2482C133.52 63.9666 133.414 64.7231 133.142 65.5177C132.818 66.4637 132.342 67.2203 131.714 67.7874C131.089 68.3451 130.364 68.7359 129.536 68.9599C128.719 69.187 127.847 69.2635 126.921 69.1894C126.001 69.1279 125.087 68.9416 124.179 68.6304C122.892 68.1896 121.788 67.6475 120.867 67.0041C119.955 66.364 119.246 65.7667 118.738 65.2122C118.23 64.6577 117.935 64.3027 117.85 64.147L121.185 61.3098C121.27 61.4338 121.44 61.6455 121.697 61.9449C121.963 62.2476 122.297 62.584 122.699 62.9542C123.104 63.315 123.547 63.657 124.028 63.9805C124.519 64.3071 125.024 64.5596 125.544 64.7379C126.415 65.0361 127.124 65.0942 127.673 64.9122C128.225 64.7208 128.595 64.3507 128.783 63.802C128.922 63.3952 128.91 62.984 128.745 62.5684C128.581 62.1527 128.274 61.709 127.822 61.2372C127.374 60.7559 126.793 60.2135 126.081 59.6098C125.371 58.9967 124.738 58.3305 124.181 57.6111C123.633 56.895 123.259 56.106 123.057 55.2441C122.856 54.3823 122.935 53.4263 123.295 52.3763C123.655 51.3262 124.259 50.5185 125.108 49.9532C125.97 49.3817 126.955 49.0532 128.062 48.9676C129.179 48.8852 130.291 49.0336 131.398 49.4129ZM134.075 71.6406L138.066 59.9906L142.38 61.4687L138.388 73.1188L134.075 71.6406ZM141.102 58.351C140.421 58.1176 139.925 57.6834 139.614 57.0483C139.306 56.4037 139.266 55.7504 139.493 55.0882C139.719 54.426 140.152 53.9347 140.79 53.6143C141.441 53.2877 142.103 53.2394 142.774 53.4696C143.219 53.6219 143.587 53.8748 143.878 54.2283C144.172 54.5723 144.37 54.9677 144.471 55.4144C144.571 55.8611 144.544 56.3116 144.388 56.7656C144.161 57.4278 143.724 57.9175 143.076 58.2347C142.432 58.5424 141.773 58.5811 141.102 58.351ZM150.691 63.9358C151.457 64.1984 152.134 64.5045 152.723 64.8541C153.315 65.1942 153.796 65.5177 154.166 65.8244C154.546 66.1343 154.78 66.3623 154.867 66.5085L152.592 68.5672C152.458 68.3732 152.18 68.0878 151.76 67.7111C151.349 67.3377 150.845 67.0489 150.249 66.8447C149.795 66.6891 149.387 66.6287 149.027 66.6637C148.669 66.6891 148.44 66.8485 148.34 67.1418C148.239 67.435 148.328 67.7299 148.607 68.0263C148.899 68.3165 149.349 68.6397 149.956 68.9958C150.485 69.3038 151 69.6813 151.502 70.1282C152.005 70.5752 152.367 71.1063 152.59 71.7217C152.825 72.3308 152.806 73.0327 152.534 73.8274C152.255 74.6409 151.85 75.2526 151.318 75.6624C150.787 76.0723 150.182 76.325 149.505 76.4205C148.827 76.516 148.133 76.5055 147.423 76.3888C146.709 76.2817 146.035 76.1195 145.401 75.9023C144.512 75.5976 143.764 75.2514 143.157 74.8637C142.559 74.4792 142.093 74.1132 141.757 73.7657C141.422 73.4182 141.195 73.1554 141.076 72.9773L143.439 70.6158C143.614 70.9082 143.935 71.2825 144.402 71.7386C144.873 72.1853 145.42 72.5156 146.044 72.7295C146.65 72.937 147.149 73.0075 147.542 72.9412C147.934 72.875 148.181 72.6952 148.281 72.4019C148.362 72.1654 148.347 71.9487 148.235 71.7517C148.122 71.5547 147.938 71.3539 147.68 71.1493C147.422 70.9448 147.1 70.7286 146.713 70.5009C146.36 70.2955 145.999 70.0395 145.628 69.7328C145.258 69.4261 144.93 69.0708 144.646 68.6668C144.365 68.2533 144.179 67.7932 144.088 67.2865C143.998 66.7797 144.056 66.2236 144.263 65.6182C144.529 64.8425 145 64.2851 145.677 63.946C146.353 63.607 147.132 63.4459 148.015 63.4628C148.9 63.4702 149.792 63.6279 150.691 63.9358ZM156.359 66.2587L158.346 66.9394L159.985 62.1574L164.256 63.6209L162.617 68.403L165.228 69.2976L164.013 72.8452L161.402 71.9505L160.288 75.2C160.123 75.6825 160.059 76.0994 160.098 76.4507C160.139 76.7926 160.349 77.0284 160.727 77.1581C160.983 77.2456 161.22 77.2634 161.438 77.2114C161.657 77.1595 161.792 77.1211 161.843 77.0962L162.268 80.667C162.182 80.701 161.939 80.7338 161.537 80.7652C161.144 80.7999 160.662 80.7879 160.09 80.7294C159.518 80.6708 158.906 80.5297 158.253 80.3061C157.09 79.9074 156.241 79.252 155.708 78.3399C155.178 77.4184 155.148 76.2718 155.618 74.9001L157.13 70.487L155.144 69.8062L156.359 66.2587ZM168.787 78.0488C168.673 78.4747 168.679 78.8891 168.805 79.2917C168.932 79.6944 169.17 80.0617 169.522 80.3935C169.886 80.7191 170.356 80.9808 170.934 81.1785C171.482 81.3665 171.994 81.4783 172.468 81.5139C172.951 81.5527 173.383 81.5421 173.763 81.482C174.152 81.4252 174.468 81.3377 174.709 81.2196L175.469 84.4611C175.145 84.6354 174.724 84.7711 174.204 84.8679C173.697 84.9585 173.068 84.9596 172.316 84.8711C171.564 84.7826 170.654 84.5552 169.585 84.1889C168.298 83.748 167.236 83.1146 166.399 82.2885C165.561 81.4625 165.015 80.4823 164.758 79.348C164.502 78.2137 164.606 76.9702 165.07 75.6174C165.459 74.4822 166.055 73.5448 166.858 72.8052C167.673 72.0594 168.645 71.5837 169.773 71.378C170.903 71.163 172.136 71.284 173.47 71.741C174.737 72.1754 175.755 72.7832 176.523 73.5644C177.301 74.3488 177.784 75.2858 177.97 76.3752C178.17 77.4584 178.037 78.6811 177.57 80.0434C177.544 80.1191 177.487 80.2688 177.4 80.4926C177.322 80.7196 177.261 80.8678 177.216 80.9369L168.787 78.0488ZM173.973 77.3047C174.068 76.9987 174.089 76.6732 174.038 76.3281C173.991 75.9735 173.848 75.6497 173.61 75.3568C173.376 75.0544 173.022 74.8222 172.549 74.6601C172.076 74.498 171.641 74.4549 171.245 74.5306C170.862 74.6001 170.535 74.7524 170.264 74.9873C169.994 75.2222 169.792 75.502 169.66 75.8266L173.973 77.3047ZM181.75 87.9768L177.437 86.4987L181.428 74.8487L185.742 76.3268L185.125 78.1289L185.054 78.1046C185.204 77.913 185.482 77.7018 185.889 77.4712C186.299 77.2311 186.814 77.0694 187.435 76.9861C188.059 76.8932 188.754 76.9781 189.52 77.2407C190.059 77.4254 190.527 77.6808 190.922 78.0066C191.321 78.3231 191.599 78.5926 191.755 78.8153L188.88 81.7465C188.803 81.5403 188.623 81.2937 188.341 81.0067C188.071 80.7135 187.686 80.481 187.184 80.3092C186.607 80.1115 186.079 80.0944 185.6 80.258C185.131 80.4249 184.735 80.6856 184.413 81.0403C184.1 81.3982 183.88 81.7616 183.754 82.1305L181.75 87.9768ZM194.696 94.6325L223.076 104.357L232.801 75.9769L204.42 66.2523L194.696 94.6325ZM223.076 104.357L251.456 114.082L261.181 85.7014L232.801 75.9769L223.076 104.357ZM256.886 106.888L260.601 93.1772L265.255 94.772L259.781 107.88L256.886 106.888ZM256.107 113.836C255.643 113.677 255.257 113.418 254.947 113.058C254.64 112.688 254.434 112.269 254.331 111.8C254.227 111.331 254.257 110.86 254.419 110.387C254.665 109.668 255.126 109.139 255.803 108.8C256.489 108.465 257.182 108.417 257.882 108.656C258.61 108.906 259.137 109.372 259.464 110.055C259.79 110.737 259.83 111.438 259.584 112.157C259.344 112.857 258.886 113.377 258.209 113.716C257.536 114.045 256.835 114.085 256.107 113.836Z" fill="#45084A"/>
</svg>
