<svg width="60" height="55" viewBox="0 0 60 55" fill="none" xmlns="http://www.w3.org/2000/svg">
<path d="M51.278 33.3196C51.9485 29.0036 51.2857 24.5846 49.3793 20.6593C47.4728 16.7341 44.4144 13.4916 40.6171 11.3698C40.6171 11.3129 40.6333 11.2614 40.6333 11.2045C40.6333 8.36417 39.5112 5.6402 37.5139 3.63181C35.5166 1.62342 32.8077 0.495117 29.9831 0.495117C27.1586 0.495117 24.4497 1.62342 22.4524 3.63181C20.4551 5.6402 19.333 8.36417 19.333 11.2045C19.333 11.2587 19.3492 11.3129 19.3492 11.3671C15.5514 13.4891 12.4927 16.732 10.5862 20.6578C8.67971 24.5836 8.01725 29.0031 8.68829 33.3196C6.05636 33.945 3.7603 35.5554 2.26731 37.8229C0.774318 40.0904 0.196587 42.8447 0.651674 45.5254C1.10676 48.2061 2.56047 50.6117 4.71699 52.2528C6.87352 53.8938 9.57082 54.647 12.26 54.359C14.9493 54.071 17.4283 52.7636 19.1928 50.7026C20.9573 48.6417 21.8746 45.9822 21.7581 43.2653C21.6415 40.5483 20.4999 37.9781 18.5655 36.0776C16.6311 34.1771 14.0493 33.0891 11.3454 33.0351C11.1956 32.0885 11.1163 31.1319 11.1083 30.1735C11.1091 26.9932 11.9076 23.8645 13.4301 21.0769C14.9525 18.2894 17.1496 15.933 19.8181 14.226C20.4544 16.4425 21.7899 18.3909 23.6234 19.7777C25.4568 21.1645 27.6889 21.9143 29.9831 21.9143C32.2774 21.9143 34.5095 21.1645 36.3429 19.7777C38.1764 18.3909 39.5119 16.4425 40.1482 14.226C42.8167 15.933 45.0138 18.2894 46.5362 21.0769C48.0587 23.8645 48.8572 26.9932 48.858 30.1735C48.85 31.1319 48.7707 32.0885 48.6209 33.0351C45.9069 33.0881 43.3151 34.1791 41.3729 36.086C39.4307 37.9929 38.2842 40.5723 38.1666 43.2993C38.049 46.0262 38.9693 48.6958 40.7401 50.7645C42.5109 52.8333 44.9991 54.1457 47.6982 54.4348C50.3974 54.7238 53.1047 53.9677 55.269 52.3203C57.4333 50.673 58.892 48.2582 59.3482 45.5675C59.8044 42.8767 59.2237 40.1124 57.7244 37.837C56.2252 35.5616 53.92 33.9462 51.278 33.3196ZM19.0635 43.7227C19.0635 45.3027 18.5976 46.8473 17.7247 48.161C16.8517 49.4747 15.6109 50.4986 14.1593 51.1033C12.7076 51.7079 11.1103 51.8661 9.56917 51.5579C8.0281 51.2496 6.61253 50.4888 5.50147 49.3716C4.39042 48.2543 3.63378 46.8309 3.32724 45.2812C3.0207 43.7316 3.17803 42.1253 3.77933 40.6656C4.38062 39.2059 5.39889 37.9582 6.70535 37.0804C8.01181 36.2026 9.54779 35.7341 11.1191 35.7341C13.2254 35.7362 15.2449 36.5786 16.7343 38.0763C18.2237 39.574 19.0614 41.6047 19.0635 43.7227ZM29.9831 19.1931C28.4119 19.1931 26.8759 18.7246 25.5694 17.8468C24.263 16.969 23.2447 15.7213 22.6434 14.2616C22.0421 12.8019 21.8848 11.1956 22.1913 9.64596C22.4979 8.09631 23.2545 6.67287 24.3656 5.55563C25.4766 4.4384 26.8922 3.67756 28.4333 3.36931C29.9743 3.06107 31.5717 3.21927 33.0234 3.82391C34.475 4.42855 35.7158 5.45248 36.5887 6.76621C37.4617 8.07993 37.9276 9.62446 37.9276 11.2045C37.9255 13.3225 37.0878 15.3532 35.5984 16.8509C34.109 18.3486 32.0895 19.191 29.9831 19.1931ZM48.8472 51.7114C47.276 51.7114 45.74 51.2429 44.4335 50.3651C43.1271 49.4872 42.1088 48.2396 41.5075 46.7799C40.9062 45.3201 40.7489 43.7139 41.0554 42.1642C41.3619 40.6146 42.1186 39.1911 43.2296 38.0739C44.3407 36.9567 45.7563 36.1958 47.2973 35.8876C48.8384 35.5793 50.4358 35.7375 51.8875 36.3422C53.3391 36.9468 54.5799 37.9707 55.4528 39.2845C56.3258 40.5982 56.7917 42.1427 56.7917 43.7227C56.7896 45.8408 55.9519 47.8715 54.4625 49.3692C52.973 50.8669 50.9536 51.7092 48.8472 51.7114Z" fill="#EFD5F8"/>
</svg>
