<svg width="45" height="40" viewBox="0 0 45 40" fill="none" xmlns="http://www.w3.org/2000/svg">
<path d="M38.729 24.3144C39.2404 21.1174 38.7349 17.844 37.2808 14.9365C35.8267 12.0289 33.494 9.62705 30.5978 8.05529C30.5978 8.01314 30.6101 7.975 30.6101 7.93285C30.6101 5.82893 29.7543 3.81118 28.231 2.32348C26.7076 0.83578 24.6415 0 22.4871 0C20.3328 0 18.2667 0.83578 16.7433 2.32348C15.22 3.81118 14.3642 5.82893 14.3642 7.93285C14.3642 7.973 14.3765 8.01314 14.3765 8.05329C11.4799 9.62516 9.14698 12.0273 7.69287 14.9353C6.23876 17.8433 5.73349 21.1171 6.24531 24.3144C4.2379 24.7777 2.48667 25.9706 1.34795 27.6502C0.209225 29.3298 -0.231416 31.3701 0.115683 33.3558C0.462783 35.3415 1.57154 37.1234 3.21635 38.339C4.86116 39.5546 6.91842 40.1125 8.96952 39.8992C11.0206 39.6859 12.9114 38.7174 14.2572 37.1908C15.603 35.6642 16.3027 33.6941 16.2138 31.6816C16.1249 29.669 15.2542 27.7652 13.7788 26.3574C12.3034 24.9496 10.3342 24.1437 8.27194 24.1037C8.15767 23.4025 8.09721 22.6939 8.09106 21.984C8.09166 19.6282 8.70073 17.3106 9.86192 15.2458C11.0231 13.1809 12.6989 11.4355 14.7341 10.171C15.2194 11.8128 16.238 13.2562 17.6365 14.2834C19.0349 15.3106 20.7373 15.8661 22.4871 15.8661C24.237 15.8661 25.9394 15.3106 27.3378 14.2834C28.7362 13.2562 29.7549 11.8128 30.2402 10.171C32.2754 11.4355 33.9512 13.1809 35.1124 15.2458C36.2736 17.3106 36.8826 19.6282 36.8832 21.984C36.8771 22.6939 36.8166 23.4025 36.7024 24.1037C34.6324 24.143 32.6556 24.9511 31.1743 26.3636C29.6929 27.7761 28.8184 29.6868 28.7288 31.7068C28.6391 33.7267 29.341 35.7042 30.6916 37.2366C32.0422 38.769 33.94 39.7412 35.9986 39.9553C38.0573 40.1694 40.1222 39.6093 41.773 38.389C43.4237 37.1688 44.5363 35.38 44.8842 33.3869C45.2321 31.3938 44.7893 29.3461 43.6458 27.6606C42.5023 25.9751 40.744 24.7786 38.729 24.3144ZM14.1586 32.0205C14.1586 33.1908 13.8033 34.3349 13.1374 35.3081C12.4716 36.2812 11.5253 37.0396 10.4181 37.4875C9.3109 37.9354 8.09256 38.0526 6.91717 37.8243C5.74177 37.5959 4.6621 37.0324 3.81468 36.2048C2.96727 35.3772 2.39017 34.3228 2.15637 33.1749C1.92257 32.027 2.04256 30.8372 2.50118 29.7559C2.9598 28.6746 3.73644 27.7504 4.73289 27.1002C5.72935 26.45 6.90086 26.1029 8.09929 26.1029C9.70582 26.1045 11.2461 26.7285 12.3821 27.8379C13.5181 28.9473 14.157 30.4515 14.1586 32.0205ZM22.4871 13.8504C21.2887 13.8504 20.1172 13.5033 19.1208 12.8531C18.1243 12.2029 17.3477 11.2787 16.889 10.1974C16.4304 9.1161 16.3104 7.92629 16.5442 6.7784C16.778 5.63051 17.3551 4.57611 18.2025 3.74853C19.05 2.92095 20.1296 2.35736 21.305 2.12903C22.4804 1.9007 23.6988 2.01789 24.806 2.46577C25.9132 2.91366 26.8595 3.67212 27.5253 4.64525C28.1911 5.61838 28.5465 6.76248 28.5465 7.93285C28.5449 9.50179 27.9059 11.006 26.7699 12.1154C25.634 13.2248 24.0937 13.8488 22.4871 13.8504ZM36.875 37.938C35.6766 37.938 34.5051 37.5909 33.5086 36.9407C32.5122 36.2905 31.7355 35.3663 31.2769 34.285C30.8183 33.2037 30.6983 32.0139 30.9321 30.866C31.1659 29.7181 31.743 28.6637 32.5904 27.8361C33.4378 27.0086 34.5175 26.445 35.6929 26.2166C36.8683 25.9883 38.0866 26.1055 39.1938 26.5534C40.301 27.0013 41.2474 27.7597 41.9132 28.7329C42.579 29.706 42.9344 30.8501 42.9344 32.0205C42.9327 33.5894 42.2938 35.0936 41.1578 36.203C40.0218 37.3124 38.4815 37.9364 36.875 37.938Z" fill="#45084A"/>
</svg>
