<svg width="33" height="31" viewBox="0 0 33 31" fill="none" xmlns="http://www.w3.org/2000/svg">
<path d="M28.4013 18.4858C28.7763 16.088 28.4056 13.633 27.3392 11.4523C26.2729 9.27165 24.5623 7.47029 22.4384 6.29147C22.4384 6.25986 22.4474 6.23125 22.4474 6.19964C22.4474 4.6217 21.8198 3.10838 20.7027 1.99261C19.5856 0.876835 18.0704 0.25 16.4906 0.25C14.9107 0.25 13.3956 0.876835 12.2784 1.99261C11.1613 3.10838 10.5337 4.6217 10.5337 6.19964C10.5337 6.22975 10.5428 6.25986 10.5428 6.28997C8.41858 7.46887 6.70778 9.27048 5.64144 11.4515C4.57509 13.6325 4.20456 16.0878 4.57989 18.4858C3.1078 18.8333 1.82355 19.7279 0.988493 20.9876C0.153432 22.2474 -0.169705 23.7776 0.0848344 25.2668C0.339374 26.7561 1.15247 28.0926 2.35866 29.0042C3.56485 29.9159 5.07351 30.3344 6.57765 30.1744C8.08179 30.0144 9.46839 29.288 10.4553 28.1431C11.4422 26.9981 11.9553 25.5206 11.8901 24.0112C11.8249 22.5018 11.1864 21.0739 10.1045 20.0181C9.0225 18.9622 7.57844 18.3578 6.06609 18.3277C5.98229 17.8019 5.93795 17.2705 5.93345 16.738C5.93388 14.9711 6.38054 13.233 7.23207 11.6843C8.08361 10.1357 9.31251 8.82661 10.805 7.87824C11.1609 9.10963 11.9079 10.1921 12.9334 10.9625C13.9589 11.733 15.2074 12.1496 16.4906 12.1496C17.7738 12.1496 19.0222 11.733 20.0477 10.9625C21.0732 10.1921 21.8202 9.10963 22.1761 7.87824C23.6686 8.82661 24.8975 10.1357 25.7491 11.6843C26.6006 13.233 27.0473 14.9711 27.0477 16.738C27.0432 17.2705 26.9989 17.8019 26.9151 18.3277C25.3971 18.3572 23.9474 18.9633 22.8611 20.0227C21.7748 21.0821 21.1335 22.5151 21.0678 24.0301C21.002 25.5451 21.5167 27.0281 22.5072 28.1774C23.4976 29.3267 24.8893 30.0559 26.399 30.2165C27.9087 30.377 29.423 29.957 30.6335 29.0418C31.8441 28.1266 32.6599 26.785 32.9151 25.2902C33.1702 23.7953 32.8455 22.2596 32.0069 20.9955C31.1683 19.7314 29.879 18.8339 28.4013 18.4858ZM10.383 24.2653C10.383 25.1431 10.1224 26.0012 9.63413 26.731C9.14587 27.4609 8.45189 28.0297 7.63994 28.3656C6.82799 28.7016 5.93455 28.7894 5.07259 28.6182C4.21063 28.447 3.41887 28.0243 2.79743 27.4036C2.176 26.7829 1.75279 25.9921 1.58134 25.1312C1.40988 24.2703 1.49788 23.3779 1.8342 22.5669C2.17052 21.756 2.74006 21.0628 3.47079 20.5752C4.20152 20.0875 5.06063 19.8272 5.93948 19.8272C7.1176 19.8284 8.24713 20.2964 9.0802 21.1284C9.91326 21.9605 10.3818 23.0886 10.383 24.2653ZM16.4906 10.6378C15.6117 10.6378 14.7526 10.3775 14.0219 9.88982C13.2912 9.40215 12.7216 8.709 12.3853 7.89804C12.049 7.08708 11.961 6.19471 12.1324 5.3338C12.3039 4.47288 12.7271 3.68208 13.3485 3.0614C13.97 2.44071 14.7617 2.01802 15.6237 1.84677C16.4856 1.67553 17.3791 1.76342 18.191 2.09933C19.003 2.43524 19.697 3.00409 20.1852 3.73394C20.6735 4.46379 20.9341 5.32186 20.9341 6.19964C20.9329 7.37634 20.4644 8.5045 19.6313 9.33656C18.7982 10.1686 17.6687 10.6366 16.4906 10.6378ZM27.0417 28.7035C26.1628 28.7035 25.3037 28.4432 24.573 27.9555C23.8423 27.4678 23.2727 26.7747 22.9364 25.9637C22.6001 25.1528 22.5121 24.2604 22.6835 23.3995C22.855 22.5386 23.2782 21.7478 23.8996 21.1271C24.5211 20.5064 25.3128 20.0837 26.1748 19.9125C27.0367 19.7412 27.9302 19.8291 28.7421 20.165C29.5541 20.5009 30.2481 21.0698 30.7363 21.7996C31.2246 22.5295 31.4852 23.3876 31.4852 24.2653C31.484 25.442 31.0155 26.5702 30.1824 27.4023C29.3493 28.2343 28.2198 28.7023 27.0417 28.7035Z" fill="#45084A"/>
</svg>
