<svg width="63" height="84" viewBox="0 0 63 84" fill="none" xmlns="http://www.w3.org/2000/svg">
<path d="M46.3729 62.3133C44.7709 62.3133 43.4722 60.7973 43.4722 58.9304C43.4722 57.0634 44.7709 55.5498 46.3729 55.5498C47.9748 55.5498 49.2712 57.0634 49.2712 58.9304C49.2712 60.7973 47.9724 62.3133 46.3729 62.3133Z" fill="#70169E"/>
<path d="M0.0787022 24.8401C0.988304 19.1915 8.7235 12.342 12.4622 9.20976C14.1596 7.78925 15.5658 6.68866 16.3918 6.05122C16.4993 5.88649 16.7619 5.45914 16.6043 5.19653C16.5231 5.06045 16.2868 4.90049 15.4512 5.02464C12.1088 5.52599 8.52773 7.88952 8.52773 7.88952C7.33403 8.68214 5.7846 9.75409 4.03702 11.1101C4.74608 9.69918 7.94998 3.69008 15.1599 1.09974C24.8337 -2.36438 33.1443 3.41314 33.9058 3.95985C31.9548 4.59007 30.0417 5.33219 28.1761 6.18253C25.5499 7.37623 22.1574 9.18588 22.2983 9.52489C22.4582 9.90449 27.0731 8.20705 34.8465 6.66001C38.2175 5.99153 40.9869 5.58806 42.9469 7.13749C43.2191 7.35236 44.5417 8.39804 44.5346 9.83764C44.5346 11.0672 43.5557 11.972 43.1021 12.3802C40.3518 14.8727 38.9695 16.1213 33.9058 18.8883C31.571 20.1632 28.3957 22.362 25.1703 26.3537C30.0355 24.3359 34.7123 21.8912 39.1462 19.0483C42.5196 16.8733 45.967 14.3069 48.6767 15.5531C50.0232 16.1738 50.6034 17.463 50.7418 17.7782C51.8973 20.3637 50.6392 23.9854 47.3995 26.6712C49.2855 25.7831 51.3649 25.9717 52.6518 27.1487C53.8455 28.2589 53.9075 29.8489 53.9219 30.324C54.0054 32.9692 52 34.6834 51.6992 34.9317C51.6299 35.2349 51.5774 35.6479 51.7875 35.8198C52.1074 36.0824 52.7425 35.5596 53.6378 35.328C54.6357 35.0677 55.9249 35.1823 56.7223 35.7577C57.7942 36.536 58.1547 38.2836 57.6462 40.0741C57.7484 40.3909 57.872 40.7004 58.0163 41.0004C58.711 42.4329 59.4296 42.6716 59.9262 43.4666C60.4228 44.2616 60.2318 45.8708 59.802 49.0174C59.5919 50.5525 59.4773 50.8437 59.6182 51.4835C59.8569 52.5889 60.5732 53.4269 61.3252 54.0357C61.7902 54.4211 62.174 54.895 62.4544 55.4299C62.5261 55.9838 62.3637 56.2034 62.2682 56.2918C62.1727 56.3801 62.0557 56.447 61.2202 56.478C60.535 56.5043 60.3559 56.4589 60.2342 56.5998C60.1603 56.7235 60.1267 56.867 60.1378 57.0107C60.1489 57.1543 60.2043 57.291 60.2962 57.4019C60.6615 57.8651 61.4279 57.5165 61.7143 57.9582C61.7704 58.0624 61.7997 58.1789 61.7997 58.2972C61.7997 58.4155 61.7704 58.532 61.7143 58.6362C61.5472 58.9728 60.9981 58.6935 60.4801 59.0683C60.3941 59.1304 60.1363 59.3071 60.1745 59.4766C60.2437 59.7798 61.318 59.6437 61.3897 59.9541C61.435 60.1403 61.0793 60.3695 61.0268 60.4029C60.7164 60.6058 60.4801 60.5533 60.2151 60.6416C59.7161 60.8016 59.4702 61.3292 59.3628 61.5584C59.007 62.3056 59.3914 62.6757 59.1001 63.3728C58.8972 63.8146 58.5516 64.1753 58.1189 64.397C56.9992 64.97 55.6169 64.28 54.8291 63.8861C53.8168 63.3776 53.8216 63.0863 52.9502 62.733C52.3335 62.4857 51.676 62.3561 51.0116 62.351C51.1601 61.7974 51.2355 61.2267 51.236 60.6536C51.236 57.5237 49.0611 54.9859 46.3777 54.9859C43.6942 54.9859 41.5169 57.5237 41.5169 60.6536C41.5169 63.7835 43.6918 66.326 46.3777 66.326C46.5525 66.3258 46.7271 66.3146 46.9005 66.2926C46.5591 67.1163 46.2893 67.9328 46.0745 68.5821C45.1195 71.4972 44.0523 74.7225 45.3917 78.4899C46.1897 80.6654 47.5807 82.5741 49.4073 84H30.7855C32.7355 80.498 34.4171 76.8531 35.8158 73.0967C39.1319 64.2347 39.4852 61.1382 39.49 59.9015C39.481 56.8332 38.8567 53.7979 37.6541 50.975C36.8586 51.2575 36.045 51.4865 35.2189 51.6602C33.2827 52.0661 32.3063 52.2714 31.2057 51.9157C29.5823 51.3928 28.0352 49.767 28.2572 48.5423C28.4291 47.6064 29.6037 47.0692 29.3674 46.4915C29.2671 46.2527 28.9663 46.1358 28.7705 46.0641C28.2776 45.9171 27.7488 45.9475 27.276 46.1501C25.5888 46.7531 23.8617 47.2381 22.1073 47.6016C21.2765 47.7544 18.6384 48.2295 17.3325 46.7899C16.2677 45.6272 16.3942 43.5597 17.0746 42.1273C18.1728 39.8235 20.417 39.864 24.2918 37.8562C27.2402 36.3307 26.8964 35.815 33.1252 31.1524C34.7963 29.9062 37.3246 28.0679 40.5572 25.9407C37.9194 26.9686 35.3389 28.1377 32.8267 29.443C29.0523 31.4055 26.099 32.9406 22.7065 35.6789C20.1019 37.7775 17.1319 39.4271 14.6777 41.7C14.1668 42.1774 12.9755 43.3043 11.5168 43.1515C10.989 43.0779 10.4873 42.8759 10.0556 42.5633C9.62401 42.2507 9.27563 41.8371 9.04102 41.3586C8.44656 40.1362 8.85003 38.7849 9.21053 37.8562C12.3882 29.7128 21.7707 21.1181 21.7707 21.1181C23.8191 19.2464 26.7341 16.668 30.3987 13.7315C28.7613 13.944 27.1459 14.3011 25.5714 14.7987C20.0541 16.5415 16.2605 19.6451 14.1286 21.4166C11.2995 23.7777 7.98818 25.6542 5.62942 28.4713C5.27109 28.9253 4.77788 29.2539 4.22085 29.4096C2.85525 29.7486 1.1411 28.7984 0.420101 27.4448C0.0231362 26.6377 -0.0968488 25.7222 0.0787022 24.8401Z" fill="#70169E"/>
<path d="M39.9126 77.5917L36.5702 78.7854L35.9829 78.0931L37.7018 74.9775L38.2677 75.6436L36.6729 78.4154L36.3577 78.043L39.3492 76.9352L39.9126 77.5917Z" fill="#FFBAFF"/>
<path d="M40.9845 78.5524L38.4849 72.0419L39.2273 71.4141L41.7246 77.9245L40.9845 78.5524Z" fill="#FFBAFF"/>
<path d="M42.6581 75.2647L42.0923 74.5963L43.6751 71.8245L43.9903 72.1993L40.9989 73.3071L40.4354 72.641L43.7897 71.4473L44.377 72.1396L42.6581 75.2647Z" fill="#FFBAFF"/>
</svg>
