<svg width="36" height="36" viewBox="0 0 36 36" fill="none" xmlns="http://www.w3.org/2000/svg">
<g clip-path="url(#clip0_219_1278)">
<path d="M1.16902 34.442H5.84908C6.49474 34.442 7.0181 33.9186 7.0181 33.2729V12.8165C7.0181 12.1708 6.49474 11.6475 5.84908 11.6475H1.16902C0.523292 11.6475 0 12.1708 0 12.8165V33.2729C0 33.9185 0.523292 34.442 1.16902 34.442Z" fill="#005CB2"/>
<path d="M1.16902 8.05158H5.84908C6.49474 8.05158 7.0181 7.52822 7.0181 6.88256V2.72664C7.0181 2.08097 6.49474 1.55762 5.84908 1.55762H1.16902C0.523292 1.55762 0 2.08097 0 2.72664V6.88256C0 7.52822 0.523292 8.05158 1.16902 8.05158Z" fill="#005CB2"/>
<path d="M34.239 14.021C33.5814 13.1553 32.6116 12.4434 31.3294 11.8854C30.0472 11.3278 28.6319 11.0488 27.0834 11.0488C23.9398 11.0488 21.2762 12.2485 19.0924 14.6484C18.6579 15.1259 18.342 15.0215 18.342 14.3758V12.8173C18.342 12.1716 17.8185 11.6483 17.1729 11.6483H12.9923C12.3465 11.6483 11.8232 12.1716 11.8232 12.8173V33.2738C11.8232 33.9194 12.3466 34.4429 12.9923 34.4429H17.6723C18.3181 34.4429 18.8413 33.9194 18.8413 33.2738V26.1596C18.8413 23.1958 19.0203 21.1643 19.3782 20.0654C19.7361 18.9665 20.3981 18.0841 21.3638 17.4181C22.3297 16.752 23.4201 16.4188 24.6358 16.4188C25.5848 16.4188 26.3966 16.652 27.0711 17.1184C27.7454 17.5847 28.2325 18.2379 28.5322 19.0789C28.8321 19.9198 28.9819 21.7722 28.9819 24.6362V33.2737C28.9819 33.9194 29.5052 34.4428 30.1508 34.4428H34.8309C35.4766 34.4428 35.9998 33.9194 35.9998 33.2737V21.6889C35.9998 19.641 35.8708 18.0674 35.6129 16.9685C35.3551 15.8696 34.8971 14.8871 34.239 14.021Z" fill="#005CB2"/>
</g>
<defs>
<clipPath id="clip0_219_1278">
<rect width="36" height="36" fill="white"/>
</clipPath>
</defs>
</svg>
