<svg width="169" height="47" viewBox="0 0 169 47" fill="none" xmlns="http://www.w3.org/2000/svg">
<g clip-path="url(#clip0_176_1068)">
<path d="M163.736 28.6124L168.424 31.2051C166.903 33.0643 163.263 36.2542 156.971 36.2542C149.157 36.2542 143.338 31.2393 143.338 24.8599C143.338 18.0713 149.219 13.4658 156.313 13.4658C163.448 13.4658 166.944 18.1734 168.075 20.7149L168.692 22.0114L150.309 28.3225C151.707 30.6082 153.887 31.7681 156.971 31.7681C160.056 31.7681 162.194 30.5058 163.736 28.6124ZM149.322 24.502L161.598 20.2716C160.919 18.856 158.904 17.8498 156.498 17.8498C153.435 17.8498 149.178 20.1013 149.322 24.502Z" fill="#FF302F"/>
<path d="M134.476 1.85059H140.398V35.2143H134.476V1.85059Z" fill="#20B15A"/>
<path d="M125.141 14.3531H130.857V34.6169C130.857 43.0258 124.873 46.4884 117.8 46.4884C111.138 46.4884 107.128 42.7701 105.627 39.7511L110.871 37.9428C111.816 39.802 114.099 42.0026 117.8 42.0026C122.344 42.0026 125.141 39.6657 125.141 35.2992V33.6618H124.935C123.578 35.0262 120.987 36.2543 117.697 36.2543C110.829 36.2543 104.537 31.2906 104.537 24.8945C104.537 18.4638 110.829 13.4492 117.697 13.4492C120.967 13.4492 123.578 14.6603 124.935 15.9907H125.141V14.3531ZM125.552 24.8945C125.552 20.8689 122.324 17.935 118.211 17.935C114.057 17.935 110.562 20.8689 110.562 24.8945C110.562 28.8685 114.057 31.7512 118.211 31.7512C122.324 31.7684 125.552 28.8685 125.552 24.8945" fill="#3686F7"/>
<path d="M72.0283 24.8085C72.0283 31.3755 65.8598 36.2025 58.2928 36.2025C50.7261 36.2025 44.5573 31.3585 44.5573 24.8085C44.5573 18.2075 50.7261 13.3975 58.2928 13.3975C65.8598 13.3975 72.0283 18.2075 72.0283 24.8085ZM66.0242 24.8085C66.0242 20.715 62.4462 17.9003 58.2928 17.9003C54.1394 17.9003 50.5614 20.715 50.5614 24.8085C50.5614 28.868 54.1394 31.7167 58.2928 31.7167C62.4465 31.7167 66.0242 28.868 66.0242 24.8085Z" fill="#FF302F"/>
<path d="M102.029 24.8599C102.029 31.4269 95.86 36.2539 88.2933 36.2539C80.7262 36.2539 74.5577 31.4266 74.5577 24.8599C74.5577 18.2589 80.7262 13.4658 88.2933 13.4658C95.86 13.4658 102.029 18.2419 102.029 24.8599ZM96.0039 24.8599C96.0039 20.7664 92.4262 17.9516 88.2725 17.9516C84.1188 17.9516 80.5411 20.7664 80.5411 24.8599C80.5411 28.9194 84.1191 31.7681 88.2725 31.7681C92.4466 31.7681 96.0039 28.9024 96.0039 24.8599Z" fill="#FFBA40"/>
<path d="M21.9799 31.2561C13.3642 31.2561 6.62004 25.4908 6.62004 18.3438C6.62004 11.1971 13.3642 5.4318 21.9799 5.4318C26.6271 5.4318 30.0196 6.9498 32.5282 8.8944L36.6614 5.46603C33.1659 2.68577 28.4983 0.570312 21.9799 0.570312C10.1773 0.570586 0.245575 8.5535 0.245575 18.3438C0.245575 28.1342 10.1773 36.1174 21.9799 36.1174C28.3544 36.1174 33.1659 34.3776 36.9288 31.1368C40.7943 27.9299 41.9869 23.4268 41.9869 19.7767C41.9869 18.6338 41.8225 17.457 41.6374 16.5871H21.9799V21.3289H35.9828C35.5715 24.297 34.4407 26.3268 32.7751 27.7081C30.76 29.397 27.5731 31.2561 21.9799 31.2561Z" fill="#3686F7"/>
</g>
<defs>
<clipPath id="clip0_176_1068">
<rect width="169" height="46" fill="white" transform="translate(0 0.5)"/>
</clipPath>
</defs>
</svg>
