<svg width="20" height="20" viewBox="0 0 20 20" fill="none" xmlns="http://www.w3.org/2000/svg">
<g clip-path="url(#clip0_8277_19464)">
<path d="M15.5068 19.8562H4.49251C3.76694 19.8547 3.07153 19.5657 2.55853 19.0526C2.04552 18.5395 1.75673 17.844 1.75537 17.1185V8.92131C1.75673 8.19574 2.04552 7.50026 2.55853 6.98715C3.07153 6.47404 3.76694 6.1851 4.49251 6.18359H15.5068C16.2325 6.18495 16.928 6.47383 17.4412 6.98695C17.9543 7.50008 18.2432 8.19564 18.2445 8.92131V17.1185C18.2432 17.8441 17.9543 18.5397 17.4412 19.0528C16.928 19.5659 16.2325 19.8548 15.5068 19.8562ZM4.49251 7.61217C4.14545 7.61247 3.8127 7.75051 3.56735 7.99597C3.32199 8.24144 3.18409 8.57425 3.18394 8.92131V17.1185C3.18409 17.4655 3.32199 17.7983 3.56735 18.0438C3.8127 18.2892 4.14545 18.4273 4.49251 18.4276H15.5068C15.8539 18.4273 16.1867 18.2893 16.4322 18.0438C16.6776 17.7984 16.8156 17.4656 16.8159 17.1185V8.92131C16.8156 8.57419 16.6776 8.24138 16.4322 7.99594C16.1867 7.75049 15.8539 7.61247 15.5068 7.61217H4.49251Z" fill="black"/>
<path d="M14.5926 7.61123C14.4031 7.61123 14.2214 7.53598 14.0875 7.40202C13.9535 7.26807 13.8783 7.08639 13.8783 6.89695V4.91695C13.873 4.47143 13.7714 4.03231 13.5806 3.6297C13.3897 3.2271 13.1141 2.87051 12.7726 2.58438C12.0043 1.91722 11.0174 1.55599 9.99998 1.56952C7.86055 1.56952 6.11998 3.07123 6.11998 4.91695V6.89695C6.11998 7.08639 6.04472 7.26807 5.91077 7.40202C5.77681 7.53598 5.59513 7.61123 5.40569 7.61123C5.21625 7.61123 5.03457 7.53598 4.90062 7.40202C4.76666 7.26807 4.69141 7.08639 4.69141 6.89695V4.91695C4.68969 2.2838 7.07141 0.140948 9.99998 0.140948C11.3664 0.126249 12.6906 0.614342 13.7206 1.51238C14.2149 1.93161 14.6127 2.45276 14.8868 3.0401C15.1609 3.62744 15.3047 4.2671 15.3086 4.91523V6.89523C15.3088 6.98932 15.2904 7.08253 15.2545 7.1695C15.2186 7.25647 15.1659 7.33549 15.0993 7.40203C15.0328 7.46856 14.9538 7.52129 14.8668 7.55719C14.7798 7.59309 14.6866 7.61146 14.5926 7.61123Z" fill="black"/>
<path d="M9.99993 14.7293C9.81049 14.7293 9.62881 14.654 9.49485 14.5201C9.3609 14.3861 9.28564 14.2044 9.28564 14.015V12.1127C9.28564 11.9233 9.3609 11.7416 9.49485 11.6076C9.62881 11.4737 9.81049 11.3984 9.99993 11.3984C10.1894 11.3984 10.3711 11.4737 10.505 11.6076C10.639 11.7416 10.7142 11.9233 10.7142 12.1127V14.0179C10.7135 14.2068 10.6379 14.3878 10.504 14.5211C10.3701 14.6544 10.1889 14.7293 9.99993 14.7293Z" fill="black"/>
</g>
<defs>
<clipPath id="clip0_8277_19464">
<rect width="20" height="20" fill="white"/>
</clipPath>
</defs>
</svg>
