<svg width="286" height="525" viewBox="0 0 286 525" fill="none" xmlns="http://www.w3.org/2000/svg">
<path d="M270.61 49.9986C274.383 46.2692 276.687 41.3326 277.107 36.0756C277.528 30.8185 276.039 25.5854 272.906 21.3161C269.774 17.0468 265.203 14.0211 260.016 12.7823C254.829 11.5435 249.365 12.1728 244.605 14.5573C240.44 8.77888 234.526 4.45719 227.715 2.21549C220.903 -0.0262133 213.548 -0.0720437 206.708 2.08461C199.869 4.24126 193.9 8.48891 189.661 14.2149C185.423 19.9409 183.135 26.8493 183.126 33.9437C183.126 34.9482 183.126 35.9359 183.279 36.9237C178.909 35.6376 174.31 35.2963 169.795 35.9228C165.28 36.5493 160.954 38.1291 157.112 40.5546C153.27 42.9802 150.001 46.1947 147.528 49.9798C145.054 53.7648 143.435 58.0317 142.778 62.4904C142.122 66.9492 142.445 71.4952 143.725 75.8197C145.005 80.1441 147.212 84.1456 150.196 87.5522C153.18 90.9588 156.871 93.6906 161.019 95.562C165.166 97.4335 169.673 98.4006 174.232 98.3978H175.147C178.246 103.649 182.718 107.979 188.095 110.932C193.472 113.886 199.554 115.354 205.703 115.183C211.852 115.012 217.841 113.207 223.041 109.959C228.241 106.711 232.459 102.139 235.254 96.7237C238.307 99.4735 241.909 101.562 245.828 102.855C249.746 104.148 253.895 104.617 258.008 104.232C262.121 103.846 266.106 102.616 269.709 100.618C273.312 98.6204 276.453 95.9004 278.929 92.6326C281.405 89.3647 283.163 85.6213 284.088 81.6426C285.014 77.6639 285.087 73.5378 284.304 69.5294C283.521 65.5209 281.898 61.7187 279.539 58.3667C277.181 55.0148 274.14 52.1872 270.61 50.0656V49.9986Z" fill="white" stroke="#263238" stroke-linecap="round" stroke-linejoin="round"/>
<path d="M154.732 116.566C158.25 116.566 161.102 113.748 161.102 110.271C161.102 106.795 158.25 103.977 154.732 103.977C151.214 103.977 148.363 106.795 148.363 110.271C148.363 113.748 151.214 116.566 154.732 116.566Z" fill="white" stroke="#263238" stroke-linecap="round" stroke-linejoin="round"/>
<path d="M181.719 96.52C181.719 98.3576 181.168 100.154 180.134 101.682C179.101 103.21 177.633 104.401 175.915 105.104C174.197 105.807 172.306 105.991 170.482 105.633C168.659 105.274 166.983 104.389 165.668 103.09C164.353 101.791 163.458 100.135 163.095 98.3326C162.732 96.5303 162.918 94.662 163.63 92.9643C164.342 91.2665 165.547 89.8154 167.093 88.7944C168.639 87.7735 170.457 87.2285 172.317 87.2285C174.81 87.2285 177.202 88.2074 178.965 89.9499C180.728 91.6924 181.719 94.0557 181.719 96.52Z" fill="white" stroke="#263238" stroke-linecap="round" stroke-linejoin="round"/>
<path d="M141.994 110.265C141.994 110.887 141.807 111.496 141.457 112.013C141.107 112.531 140.61 112.934 140.028 113.172C139.446 113.411 138.805 113.473 138.188 113.351C137.57 113.23 137.002 112.93 136.557 112.49C136.111 112.05 135.808 111.489 135.685 110.879C135.562 110.268 135.625 109.635 135.866 109.06C136.107 108.485 136.516 107.993 137.039 107.648C137.563 107.302 138.179 107.117 138.809 107.117C139.654 107.117 140.464 107.449 141.061 108.039C141.658 108.629 141.994 109.43 141.994 110.265Z" fill="white" stroke="#263238" stroke-linecap="round" stroke-linejoin="round"/>
<path d="M79.5842 245.199C79.5842 245.199 63.2699 283.52 57.7641 306.539C52.2582 329.559 52.6817 377.69 52.6817 381.875C52.6817 386.061 35.7407 409.499 34.4701 423.31C33.1995 437.122 25.1525 491.531 23.4584 497.39C21.7643 503.25 7.36438 520.828 7.78791 522.921C8.21143 525.014 26.4231 523.758 27.6937 523.758C28.9642 523.758 31.5054 499.065 33.1995 495.298C34.8936 491.531 60.3052 440.47 64.964 424.566C69.6228 408.661 71.3169 387.316 71.3169 387.316L98.4226 319.514L108.587 384.805C108.587 384.805 104.776 417.869 107.74 434.192C110.705 450.515 110.705 519.154 111.128 520.41C111.552 521.665 142.893 521.665 142.893 521.665C142.893 521.665 146.281 519.991 139.928 516.643C138.336 515.806 120.022 505.343 118.752 503.668C117.481 501.994 131.034 442.563 132.305 424.566C133.575 406.569 131.881 381.457 131.881 381.457C131.881 381.457 140.352 334.581 138.658 307.376C136.964 280.172 124.681 245.199 124.681 245.199H79.5842Z" fill="white" stroke="#263238" stroke-linecap="round" stroke-linejoin="round"/>
<path d="M124.68 470.136C128.068 452.842 131.761 433.539 132.388 424.566C133.658 406.569 131.964 381.457 131.964 381.457C131.964 381.457 140.435 334.581 138.741 307.376C137.047 280.172 124.68 245.199 124.68 245.199H79.6164C79.6164 245.199 63.2683 283.52 57.7624 306.539C52.2566 329.559 52.6801 377.69 52.6801 381.875C52.6801 386.061 35.739 409.499 34.4685 423.31C33.7061 431.53 30.5551 454.097 27.7767 472.279C32.3692 474.667 37.5159 475.822 42.7018 475.627C50.9691 458.333 62.0485 434.56 64.9624 424.599C69.6212 408.695 71.3153 387.35 71.3153 387.35L98.421 319.547L108.586 384.839C108.586 384.839 104.774 417.903 107.739 434.225C108.891 440.52 109.585 454.633 110.043 469.65C114.875 470.479 119.801 470.643 124.68 470.136Z" fill="#263238" stroke="#263238" stroke-linecap="round" stroke-linejoin="round"/>
<path d="M98.4191 319.516L111.125 300.264" stroke="white" stroke-linecap="round" stroke-linejoin="round"/>
<path d="M109.009 250.463L109.857 282.69C109.857 282.69 114.939 278.923 115.362 275.993C115.786 273.064 114.092 253.811 114.092 253.811" stroke="white" stroke-linecap="round" stroke-linejoin="round"/>
<path d="M27.6935 523.761C28.6083 523.761 30.2008 510.77 31.6577 502.199C30.9275 500.421 29.8706 498.792 28.5405 497.394C26.4229 495.72 23.0347 499.486 23.0347 499.486L22.4417 499.738C18.7486 506.97 7.41502 521.066 7.78773 522.924C8.16043 524.783 26.4229 523.761 27.6935 523.761Z" fill="#A748C8" stroke="#263238" stroke-linecap="round" stroke-linejoin="round"/>
<path d="M138.739 514.633C137.146 513.796 118.833 503.332 117.563 501.658C117.563 501.658 114.174 503.332 114.598 505.006C114.86 506.104 115.002 507.227 115.021 508.355L109.685 509.075C109.77 514.582 109.854 518.132 109.939 518.4C110.363 519.655 141.704 519.655 141.704 519.655C141.704 519.655 145.092 517.981 138.739 514.633Z" fill="#A748C8" stroke="#263238" stroke-linecap="round" stroke-linejoin="round"/>
<path d="M36.6712 187.945C36.6712 187.945 0.180115 230.669 0.501995 233.147C0.823875 235.625 55.0522 261.021 59.9652 261.925C64.8781 262.829 70.3839 264.955 72.5354 264.955C74.687 264.955 82.0394 260.117 82.0394 260.117C82.0394 260.117 93.8981 264.353 94.3047 262.846C94.7113 261.339 86.3255 258.895 86.3255 258.895H97.371C97.371 258.895 100.116 258.292 97.371 257.388C93.8325 256.561 90.2454 255.951 86.6304 255.563L97.676 255.262C97.676 255.262 100.742 254.358 97.676 253.755C94.6096 253.153 87.8671 252.533 87.8671 252.533L96.7442 251.328C96.7442 251.328 98.2858 249.503 96.1343 249.503C93.9828 249.503 83.5641 249.202 82.5815 249.503C81.5989 249.804 75.5509 251.294 75.5509 251.294L81.6836 247.36C81.6836 247.36 79.837 246.138 78.9222 246.758C78.0074 247.377 71.5698 251.596 71.2479 252.5C70.926 253.404 66.352 256.149 66.352 256.149C66.352 256.149 63.2856 255.53 60.5242 255.229C57.7628 254.927 23.1353 226.45 23.1353 226.45L55.6283 196.165L36.6712 187.945Z" fill="white" stroke="#263238" stroke-linecap="round" stroke-linejoin="round"/>
<path d="M124.952 188.249C124.952 188.249 154.074 208.557 159.292 209.461C164.51 210.365 167.559 200.37 162.68 194.008C157.801 187.647 138.454 176.748 138.454 176.748L124.952 188.249Z" fill="white" stroke="#263238" stroke-linecap="round" stroke-linejoin="round"/>
<path d="M76.8194 160.993C76.8194 160.993 61.4877 159.771 55.372 162.5C49.2562 165.229 31.1462 188.248 31.1462 188.248L50.764 201.273L54.7452 199.766C54.7452 199.766 61.5216 213.393 67.0105 219.152C72.4994 224.911 78.9709 233.684 78.9709 238.237C78.9159 240.574 79.1204 242.909 79.5808 245.202H124.678L122.526 225.514C122.526 225.514 132.691 212.255 132.047 204.989C131.465 200.169 129.766 195.546 127.084 191.479L142.449 178.253C142.449 178.253 137.248 161.897 130.811 159.47C124.373 157.042 109.651 159.47 109.651 159.47C109.651 159.47 88.1699 164.324 76.8194 160.993Z" fill="#A748C8" stroke="#263238" stroke-linecap="round" stroke-linejoin="round"/>
<path d="M73.0255 213.459C73.0255 213.459 77.4133 219.938 87.9167 219.938" stroke="#263238" stroke-linecap="round" stroke-linejoin="round"/>
<path d="M60.2018 73.1486C60.2018 73.1486 50.7656 67.9588 50.0372 70.0347C49.3087 72.1107 53.8828 73.1486 52.8324 73.835C51.7821 74.5214 46.8861 74.1698 46.5304 76.2458C46.1746 78.3217 49.6814 79.0081 47.2419 79.3597C44.8024 79.7112 39.1949 79.3596 39.1949 82.122C39.1949 84.8843 43.7351 85.2191 42.7017 86.2571C41.6683 87.295 36.0608 87.6466 35.705 91.4301C35.3493 95.2137 38.1615 95.2304 36.3996 96.9548C34.6377 98.6791 31.8594 100.069 31.1648 103.869C30.4702 107.669 32.2152 108.004 32.8589 109.728C33.5027 111.453 30.4194 113.529 31.8086 117.329C33.1977 121.129 36.7046 121.816 36.7046 123.54C36.7046 125.264 33.2147 125.968 37.7549 130.454C42.2951 134.941 46.1407 134.941 46.1407 134.941C46.1407 134.941 42.9897 138.741 45.0904 141.503C47.1911 144.266 47.1911 142.19 48.5802 143.178C49.9694 144.165 47.8857 146.626 50.6809 147.313C53.4762 147.999 55.5769 143.864 56.2715 146.961C56.9661 150.058 58.3722 153.524 60.1171 152.837C61.862 152.151 63.2512 148.702 63.607 149.723C63.9627 150.745 65.7077 154.227 67.7914 154.227C69.8752 154.227 71.2982 152.151 72.6874 154.227C73.3288 155.202 74.2119 155.998 75.2528 156.54C76.2936 157.082 77.4575 157.352 78.6337 157.324C80.3278 156.972 81.429 154.227 83.1739 154.227C84.9188 154.227 88.0529 156.638 89.1033 155.901C90.1536 155.164 91.5597 152.787 93.6435 154.227C95.7272 155.667 99.9455 156.972 100.979 155.6C102.012 154.227 100.64 151.113 103.08 151.113C105.519 151.113 109.365 151.799 109.721 149.439C110.076 147.078 106.231 144.601 110.415 144.601C114.6 144.601 116.361 145.639 116.361 142.19V135.627C116.361 135.627 117.751 136.314 118.056 133.953C118.5 131.914 119.206 129.939 120.156 128.077C120.156 128.077 122.24 130.839 122.24 126.704C122.24 122.569 119.445 121.179 121.901 120.142C124.358 119.104 125.035 119.104 125.035 117.028C124.89 115.154 124.538 113.301 123.985 111.503C124.835 110.924 125.532 110.152 126.018 109.252C126.504 108.352 126.766 107.35 126.78 106.33C126.872 104.546 126.511 102.768 125.73 101.157C125.73 101.157 129.237 99.0809 125.391 97.3566C121.545 95.6322 123.697 91.8319 123.697 89.756C123.697 87.6801 123.002 86.6589 121.596 86.3073C120.19 85.9557 120.207 83.8965 120.546 82.507C120.885 81.1175 118.852 78.3719 116.7 78.0203C114.549 77.6688 113.905 76.6476 113.905 75.6096C113.905 74.5716 116.361 71.8093 113.566 71.8093C110.771 71.8093 108.67 71.4578 108.314 70.4365C107.959 69.4153 104.825 65.5983 102.724 65.5983C100.623 65.5983 97.8449 62.836 97.8449 62.836C97.7458 62.2606 97.4458 61.7378 96.997 61.3585C96.5481 60.9792 95.9789 60.7674 95.3884 60.76C93.3047 60.76 91.204 57.6629 87.3583 58.3493C83.5127 59.0357 81.7678 61.1116 79.6671 60.4252C77.5664 59.7388 79.3283 57.9977 76.533 59.3872C73.7377 60.7768 73.1278 62.1161 72.1622 62.1161C71.1966 62.1161 71.8064 58.6506 69.7058 61.7645C67.6051 64.8784 66.2159 67.2892 66.2159 67.2892C66.2159 67.2892 66.5717 64.5268 64.5218 64.8784C62.4719 65.23 59.4903 69.6832 60.2018 73.1486Z" fill="#263238" stroke="#263238" stroke-linecap="round" stroke-linejoin="round"/>
<path d="M86.0185 132.516C86.0185 132.516 86.9333 152.505 86.6284 155.836C86.3234 159.168 76.8195 160.993 76.8195 160.993C76.8195 160.993 86.0185 179.776 96.7422 180.68C107.466 181.584 110.854 159.77 110.854 159.77C109.445 159.932 108.022 159.635 106.799 158.925C105.576 158.215 104.621 157.131 104.078 155.836C102.231 151.299 102.841 137.421 102.841 137.421L86.0185 132.516Z" fill="white" stroke="#263238" stroke-linecap="round" stroke-linejoin="round"/>
<path d="M83.7343 95.9964C83.7343 95.9964 79.3804 96.2977 79.7023 97.8379C80.0242 99.3782 85.6147 100.299 81.2609 101.839C76.907 103.379 75.3485 103.061 75.6534 104.903C75.9583 106.744 80.6341 106.443 76.907 109.523C73.18 112.604 72.2313 112.587 72.2313 113.826C72.2313 115.065 74.0948 115.969 72.8581 117.509C71.6214 119.049 71.2995 119.351 71.6214 120.857C71.9433 122.364 74.4167 122.079 73.7899 124.54C73.1631 127.001 74.4167 129.462 82.4976 136.527C90.5785 143.592 105.199 147.275 111.721 145.752C118.243 144.228 118.87 130.383 117.633 120.857C116.397 111.331 107.062 99.3447 107.062 99.3447C105.158 98.668 103.168 98.2566 101.15 98.1225C98.6594 98.1225 99.2862 96.2643 96.7958 96.2643C94.3055 96.2643 94.3055 96.8837 92.137 96.2643C89.9686 95.6448 90.2735 93.502 88.41 93.502C86.5465 93.502 83.7343 95.9964 83.7343 95.9964Z" fill="white" stroke="#263238" stroke-linecap="round" stroke-linejoin="round"/>
<path d="M106.133 120.273C106.193 120.801 106.11 121.334 105.892 121.82C105.675 122.305 105.331 122.725 104.896 123.036C103.337 124.275 101.779 124.877 99.9153 123.655" stroke="#263238" stroke-linecap="round" stroke-linejoin="round"/>
<path d="M107.365 127.967L110.787 124.887" stroke="#263238" stroke-linecap="round" stroke-linejoin="round"/>
<path d="M82.1924 115.674L91.8319 112.912" stroke="#263238" stroke-linecap="round" stroke-linejoin="round"/>
<path d="M98.9804 105.529C98.9804 105.529 100.217 100.004 104.266 98.832" stroke="#263238" stroke-linecap="round" stroke-linejoin="round"/>
<path d="M94.9345 118.433C94.9345 118.737 94.8431 119.035 94.6718 119.288C94.5006 119.542 94.2571 119.739 93.9723 119.856C93.6876 119.972 93.3742 120.003 93.0718 119.943C92.7695 119.884 92.4918 119.737 92.2738 119.522C92.0559 119.306 91.9074 119.032 91.8473 118.733C91.7871 118.434 91.818 118.125 91.936 117.843C92.0539 117.562 92.2537 117.321 92.51 117.152C92.7663 116.983 93.0677 116.893 93.3759 116.893C93.7893 116.893 94.1857 117.055 94.478 117.344C94.7703 117.633 94.9345 118.024 94.9345 118.433Z" fill="#263238"/>
<path d="M106.436 112.592C106.439 112.898 106.35 113.198 106.18 113.454C106.01 113.71 105.767 113.91 105.481 114.028C105.196 114.147 104.881 114.179 104.577 114.12C104.273 114.061 103.994 113.914 103.775 113.698C103.556 113.481 103.407 113.205 103.348 112.905C103.288 112.605 103.32 112.294 103.441 112.011C103.561 111.729 103.763 111.489 104.022 111.321C104.281 111.153 104.584 111.065 104.894 111.068C105.302 111.073 105.691 111.235 105.979 111.519C106.267 111.804 106.431 112.189 106.436 112.592Z" fill="#263238"/>
<path d="M76.2095 130.084C76.2095 130.084 72.8213 125.229 70.3818 129.482C67.9423 133.734 74.6848 136.982 82.4947 136.563L76.2095 130.084Z" fill="white" stroke="#263238" stroke-linecap="round" stroke-linejoin="round"/>
<path d="M117.99 145.728C117.99 145.728 111.756 144.623 110.875 146.38C109.994 148.138 116.432 149.913 120.006 149.243C123.581 148.574 117.99 145.728 117.99 145.728Z" fill="white" stroke="#263238" stroke-linecap="round" stroke-linejoin="round"/>
<path d="M133.236 162.801C131.411 162.968 129.58 162.545 128.018 161.596C126.172 160.073 124.342 154.33 124.342 154.33C124.342 154.33 121.581 156.741 120.056 155.536C118.531 154.33 115.448 145.842 115.448 145.842L124.037 139.782C123.501 138.382 122.778 137.058 121.886 135.848C120.666 134.324 113.906 131.043 114.533 129.151C115.16 127.26 124.952 133.086 124.952 133.086C124.952 133.086 127.103 136.718 128.018 137.924C128.933 139.129 138.742 160.659 138.742 160.659C138.742 160.659 166.034 192.768 168.169 196.1C170.303 199.431 171.862 206.396 169.405 209.125C166.949 211.853 163.577 211.853 157.75 209.426C151.922 206.998 133.236 162.801 133.236 162.801Z" fill="white" stroke="#263238" stroke-linecap="round" stroke-linejoin="round"/>
<path d="M125.577 142.859C125.577 142.859 116.666 147.48 116.886 149.02" stroke="#263238" stroke-linecap="round" stroke-linejoin="round"/>
<path d="M126.678 146.16C126.678 146.16 118.207 149.676 118.207 151.45" stroke="#263238" stroke-linecap="round" stroke-linejoin="round"/>
<path d="M124.238 153.642L123.12 152.537" stroke="#263238" stroke-linecap="round" stroke-linejoin="round"/>
</svg>
