<svg width="44" height="44" viewBox="0 0 44 44" fill="none" xmlns="http://www.w3.org/2000/svg">
<path d="M15.9289 15.929L8.85786 8.85792M8.85786 37.1422L15.929 30.071M30.071 30.071L37.1422 37.142M37.1422 8.85782L30.071 15.9289M43 23C43 34.0456 34.0456 43 23 43C11.9543 43 3 34.0456 3 23C3 11.9543 11.9543 3 23 3C34.0456 3 43 11.9543 43 23ZM33 23C33 28.5228 28.5228 33 23 33C17.4772 33 13 28.5228 13 23C13 17.4772 17.4772 13 23 13C28.5228 13 33 17.4772 33 23Z" stroke="#45084A" stroke-width="2" stroke-linecap="round" stroke-linejoin="round"/>
</svg>
