<svg width="46" height="44" viewBox="0 0 46 44" fill="none" xmlns="http://www.w3.org/2000/svg">
<path d="M16.5 20C20.6421 20 24 16.4183 24 12C24 7.58172 20.6421 4 16.5 4C12.3579 4 9 7.58172 9 12C9 16.4183 12.3579 20 16.5 20Z" stroke="#45084A" stroke-width="2"/>
<path d="M31 37C31 35.1607 30.6248 33.3395 29.8957 31.6403C29.1667 29.9411 28.0981 28.3974 26.7511 27.0972C25.4041 25.7971 23.805 24.7661 22.0452 24.063C20.2855 23.36 18.3996 22.9988 16.4952 23C12.6509 23 8.96394 24.475 6.24555 27.1005C3.52717 29.726 2 33.287 2 37H31Z" stroke="#45084A" stroke-width="2"/>
<path d="M36 19C38.7614 19 41 16.7614 41 14C41 11.2386 38.7614 9 36 9C33.2386 9 31 11.2386 31 14C31 16.7614 33.2386 19 36 19Z" stroke="#45084A" stroke-width="2"/>
<path d="M33.3463 32H45C45 30.6847 44.7356 29.3824 44.2221 28.1675C43.7085 26.9527 42.9557 25.8492 42.007 24.9203C41.0582 23.9914 39.9321 23.2553 38.6931 22.7542C37.454 22.2531 36.1264 21.9968 34.7863 22C33.1174 21.9979 31.4735 22.3991 30 23.1683" stroke="#45084A" stroke-width="2"/>
</svg>
