<svg width="38" height="37" viewBox="0 0 38 37" fill="none" xmlns="http://www.w3.org/2000/svg">
<path d="M14.1935 1C13.2387 1 12.3231 1.36506 11.6479 2.01487C10.9728 2.66468 10.5935 3.54601 10.5935 4.46498C10.5935 5.38395 10.9728 6.26528 11.6479 6.91509C12.3231 7.5649 13.2387 7.92995 14.1935 7.92995H17.7935V4.46498C17.7948 4.01118 17.7032 3.56158 17.524 3.14186C17.3447 2.72213 17.0813 2.3405 16.7489 2.01874C16.4164 1.69699 16.0213 1.44142 15.5862 1.26662C15.1511 1.09183 14.6845 1.00123 14.213 1M14.213 10.2337H4.6C4.12725 10.2337 3.65912 10.3233 3.22234 10.4975C2.78557 10.6716 2.38871 10.9268 2.05442 11.2486C1.72013 11.5703 1.45495 11.9523 1.27403 12.3727C1.09312 12.7931 1 13.2436 1 13.6987C1 14.1537 1.09312 14.6043 1.27403 15.0247C1.45495 15.4451 1.72013 15.827 2.05442 16.1488C2.38871 16.4705 2.78557 16.7258 3.22234 16.8999C3.65912 17.074 4.12725 17.1637 4.6 17.1637H14.1935C15.1483 17.1637 16.064 16.7986 16.7391 16.1488C17.4142 15.499 17.7935 14.6176 17.7935 13.6987C17.7935 12.7797 17.4142 11.8984 16.7391 11.2486C16.064 10.5988 15.1483 10.2337 14.1935 10.2337" stroke="#065095" stroke-width="2" stroke-linecap="round" stroke-linejoin="round"/>
<path d="M37.0001 13.6987C37.0001 12.7797 36.6208 11.8984 35.9457 11.2486C35.2705 10.5988 34.3549 10.2337 33.4001 10.2337C32.4453 10.2337 31.5296 10.5988 30.8545 11.2486C30.1794 11.8984 29.8001 12.7797 29.8001 13.6987V17.1637H33.4001C34.3549 17.1637 35.2705 16.7986 35.9457 16.1488C36.6208 15.499 37.0001 14.6176 37.0001 13.6987ZM27.4066 13.6987V4.46498C27.4066 4.00995 27.3134 3.55938 27.1325 3.13899C26.9516 2.7186 26.6864 2.33662 26.3521 2.01487C26.0178 1.69312 25.621 1.43789 25.1842 1.26376C24.7474 1.08962 24.2793 1 23.8065 1C23.3338 1 22.8657 1.08962 22.4289 1.26376C21.9921 1.43789 21.5953 1.69312 21.261 2.01487C20.9267 2.33662 20.6615 2.7186 20.4806 3.13899C20.2997 3.55938 20.2065 4.00995 20.2065 4.46498V13.6987C20.2065 14.6176 20.5858 15.499 21.261 16.1488C21.9361 16.7986 22.8518 17.1637 23.8065 17.1637C24.7613 17.1637 25.677 16.7986 26.3521 16.1488C27.0273 15.499 27.4066 14.6176 27.4066 13.6987Z" stroke="#0A891B" stroke-width="2" stroke-linecap="round" stroke-linejoin="round"/>
<path d="M23.8065 35.649C24.7613 35.649 25.677 35.2839 26.3521 34.6341C27.0273 33.9843 27.4066 33.103 27.4066 32.184C27.4066 31.2651 27.0273 30.3837 26.3521 29.7339C25.677 29.0841 24.7613 28.719 23.8065 28.719H20.2065V32.184C20.2065 33.103 20.5858 33.9843 21.261 34.6341C21.9361 35.2839 22.8518 35.649 23.8065 35.649ZM23.8065 26.4153H33.4001C33.8728 26.4153 34.341 26.3257 34.7777 26.1515C35.2145 25.9774 35.6114 25.7222 35.9457 25.4004C36.28 25.0787 36.5451 24.6967 36.726 24.2763C36.907 23.8559 37.0001 23.4054 37.0001 22.9503C37.0001 22.4953 36.907 22.0447 36.726 21.6243C36.5451 21.2039 36.28 20.822 35.9457 20.5002C35.6114 20.1785 35.2145 19.9232 34.7777 19.7491C34.341 19.575 33.8728 19.4854 33.4001 19.4854H23.8065C22.8518 19.4854 21.9361 19.8504 21.261 20.5002C20.5858 21.15 20.2065 22.0314 20.2065 22.9503C20.2065 23.8693 20.5858 24.7506 21.261 25.4004C21.9361 26.0502 22.8518 26.4153 23.8065 26.4153Z" stroke="#DBC116" stroke-width="2" stroke-linecap="round" stroke-linejoin="round"/>
<path d="M10.5935 22.9503V32.184C10.5935 33.103 10.9728 33.9843 11.6479 34.6341C12.3231 35.2839 13.2387 35.649 14.1935 35.649C15.1483 35.649 16.064 35.2839 16.7391 34.6341C17.4142 33.9843 17.7935 33.103 17.7935 32.184V22.9503C17.7961 22.4962 17.7054 22.046 17.5266 21.6258C17.3478 21.2055 17.0845 20.8233 16.7517 20.5013C16.419 20.1793 16.0234 19.9238 15.5877 19.7495C15.152 19.5751 14.6848 19.4853 14.213 19.4854C13.2582 19.4854 12.3425 19.8504 11.6674 20.5002C10.9923 21.15 10.613 22.0314 10.613 22.9503M1 22.9503C1 23.8693 1.37929 24.7506 2.05442 25.4004C2.72955 26.0502 3.64522 26.4153 4.6 26.4153C5.55478 26.4153 6.47046 26.0502 7.14559 25.4004C7.82072 24.7506 8.20001 23.8693 8.20001 22.9503V19.4854H4.6C3.64522 19.4854 2.72955 19.8504 2.05442 20.5002C1.37929 21.15 1 22.0314 1 22.9503Z" stroke="#900E31" stroke-width="2" stroke-linecap="round" stroke-linejoin="round"/>
</svg>
