<svg width="327" height="367" viewBox="0 0 327 367" fill="none" xmlns="http://www.w3.org/2000/svg">
<g opacity="0.07">
<path d="M83.7344 1.00488C86.0052 0.933667 88.2357 1.6298 90.0166 2.97852C91.6875 4.24391 92.8619 6.00841 93.3398 7.98926L93.4258 8.38867L93.4268 8.3916L96.9844 27.2842H96.9834C97.2985 28.9373 98.2116 30.4532 99.5869 31.5723C100.964 32.6928 102.719 33.3445 104.562 33.4072H104.561L132.427 34.3311H132.431C134.362 34.4034 136.251 34.8875 137.955 35.7471L138.293 35.9248L138.296 35.9258L186.424 62.1514L186.432 62.1562C188.273 63.1811 190.357 63.7739 192.503 63.8799H192.507L209.999 64.8037C211.697 64.8876 213.378 65.1729 214.999 65.6523L215.69 65.8701L215.696 65.8721L229.689 70.6357L229.69 70.6367C231.32 71.1945 233.075 71.363 234.794 71.127C236.513 70.8909 238.138 70.258 239.521 69.29L274.861 44.5977C276.564 43.3988 278.602 42.7046 280.716 42.5957C282.83 42.4868 284.934 42.9676 286.764 43.9824H286.765L297.471 49.8838V49.8848C299.518 51.0153 301.858 51.6119 304.243 51.6084H319.344C320.401 51.6003 321.442 51.8722 322.35 52.3975C323.26 52.9246 324.001 53.6882 324.479 54.6074C324.958 55.5275 325.151 56.561 325.029 57.5859C324.909 58.6057 324.483 59.5645 323.812 60.3555L323.812 60.3564L297.273 92.4092L297.174 96.7041L296.719 119.291L296.718 119.293L296.469 130.629V132.039L296.187 145.609L296.122 148.748V148.75L295.927 157.222L295.808 163.1L295.807 163.101L294.636 219.18C294.591 221.374 295.154 223.542 296.271 225.477L296.501 225.86L296.502 225.862L311.688 250.239L311.902 250.6C312.931 252.421 313.325 254.51 313.017 256.567C312.708 258.624 311.716 260.523 310.2 262L309.891 262.29L285.17 284.453L285.169 284.454C283.855 285.63 282.312 286.551 280.627 287.167L280.626 287.166L272.059 290.315H272.058C270.739 290.799 269.562 291.558 268.616 292.529C267.671 293.5 266.98 294.656 266.595 295.907L263.906 304.722L263.87 304.837L263.809 304.941L228.556 364.118L228.031 364.997L227.165 364.453L207.488 352.112V352.111L206.839 351.707L206.837 351.705L198.366 346.383V346.384L195.048 344.301V344.302L188.811 340.401L188.8 340.395L185.143 338.044L179.947 334.783H179.946L177.441 333.209V333.208L173.104 330.498L173.103 330.497L170.706 328.994V328.993C170.496 328.87 170.295 328.733 170.106 328.581C166.766 326.295 164.398 322.949 163.454 319.145V319.142C162.663 315.911 161.178 312.861 159.087 310.177C157.126 307.66 154.671 305.513 151.85 303.852L151.28 303.525L25.4531 233.439V233.438C23.8855 232.568 22.5812 231.323 21.6807 229.819C20.7794 228.314 20.3156 226.608 20.3408 224.873L20.5039 213.558L20.5098 213.107L20.8506 212.814C23.9607 210.137 27.5145 207.954 31.3701 206.351L31.8232 206.163L32.249 206.405L46.7324 214.664C38.7331 206.054 32.4134 196.165 28.0928 185.444V185.443C25.9215 180.096 22.6298 171.598 21.2002 163.041L21.1855 162.952L21.1865 162.862L21.3818 149.038L21.5986 133.021L21.5996 133.008V132.994C21.6268 132.314 21.8789 131.666 22.3096 131.139C22.7394 130.613 23.3248 130.234 23.9785 130.043L23.9834 130.041L44.4844 124.171L44.4941 124.168L44.5029 124.165C44.6394 124.129 44.7606 124.066 44.8574 123.983V123.982C44.9538 123.9 45.023 123.803 45.0654 123.702C45.1077 123.601 45.1239 123.495 45.1143 123.392C45.1046 123.288 45.0687 123.183 45.0059 123.087V123.086L42.2646 118.907L42.1748 118.761C41.9741 118.413 41.8478 118.027 41.8066 117.626C41.7597 117.167 41.8256 116.706 41.998 116.278C42.1704 115.851 42.4432 115.473 42.7891 115.17C43.1345 114.867 43.5445 114.646 43.9863 114.521L43.9912 114.52L52.6064 112.104L52.6904 112.068C52.7148 112.054 52.7354 112.037 52.752 112.02C52.7845 111.985 52.8007 111.95 52.8066 111.921C52.8123 111.892 52.8098 111.863 52.7979 111.832C52.7855 111.801 52.7609 111.764 52.7178 111.731L52.7168 111.73L36.8359 99.7754L36.8242 99.7666L36.8125 99.7568C36.3981 99.4244 36.0842 98.9809 35.918 98.4736C35.7516 97.9658 35.7419 97.4222 35.8916 96.9092C36.0412 96.3967 36.341 95.9438 36.7451 95.5986C37.1487 95.254 37.6415 95.0298 38.1641 94.9434L38.1748 94.9414L38.1846 94.9395L50.1885 93.2119L26.9023 53.8711C25.6856 51.8245 25.225 49.45 25.6006 47.123C25.9761 44.7968 27.1633 42.6645 28.9609 41.0557L70.2764 3.97266C72.1217 2.30227 74.5494 1.33882 77.0908 1.25V1.24902L83.7295 1.00488H83.7344Z" fill="#FFBAFF" stroke="white" stroke-width="2"/>
<path d="M210.703 271.737C203.424 271.737 197.523 265.287 197.523 257.344C197.523 249.401 203.424 242.961 210.703 242.961C217.981 242.961 223.871 249.401 223.871 257.344C223.871 265.287 217.97 271.737 210.703 271.737Z" fill="#70169E"/>
<path d="M0.357582 112.301C4.49033 88.2685 39.635 59.1271 56.6216 45.8006C64.3339 39.757 70.7228 35.0745 74.4759 32.3624C74.9641 31.6616 76.1572 29.8434 75.4413 28.7261C75.0725 28.1471 73.9986 27.4666 70.2022 27.9948C55.0162 30.1278 38.7455 40.1836 38.7455 40.1836C33.322 43.5559 26.2822 48.1165 18.3421 53.8859C21.5637 47.8829 36.1205 22.3168 68.8788 11.2961C112.831 -3.44222 150.59 21.1386 154.05 23.4646C145.186 26.1459 136.494 29.3033 128.017 32.9211C116.085 37.9998 100.672 45.6991 101.312 47.1414C102.038 48.7564 123.006 41.5345 158.324 34.9526C173.64 32.1085 186.223 30.3919 195.128 36.984C196.365 37.8982 202.374 42.3471 202.342 48.472C202.342 53.703 197.894 57.5527 195.833 59.2896C183.338 69.8939 177.057 75.2062 154.05 86.9785C143.442 92.4026 129.015 101.757 114.361 118.741C136.465 110.155 157.715 99.7544 177.86 87.6591C193.187 78.4057 208.85 67.4866 221.161 72.7887C227.279 75.4296 229.915 80.9146 230.544 82.2554C235.794 93.2558 230.078 108.664 215.358 120.091C223.928 116.313 233.375 117.115 239.222 122.123C244.645 126.846 244.928 133.611 244.993 135.632C245.372 146.887 236.261 154.18 234.894 155.236C234.579 156.526 234.341 158.283 235.295 159.014C236.749 160.132 239.634 157.907 243.702 156.922C248.236 155.815 254.093 156.302 257.716 158.75C262.587 162.062 264.225 169.497 261.914 177.115C262.378 178.463 262.94 179.779 263.595 181.056C266.752 187.15 270.017 188.166 272.273 191.548C274.529 194.931 273.662 201.777 271.709 215.164C270.755 221.695 270.234 222.935 270.874 225.657C271.959 230.36 275.213 233.925 278.63 236.515C280.742 238.155 282.486 240.171 283.76 242.447C284.086 244.803 283.348 245.738 282.914 246.114C282.48 246.49 281.949 246.774 278.152 246.906C275.039 247.018 274.226 246.825 273.672 247.424C273.337 247.95 273.184 248.561 273.235 249.172C273.285 249.784 273.537 250.365 273.954 250.837C275.614 252.807 279.096 251.324 280.398 253.204C280.652 253.647 280.785 254.143 280.785 254.646C280.785 255.149 280.652 255.645 280.398 256.088C279.638 257.52 277.143 256.332 274.79 257.927C274.399 258.191 273.228 258.942 273.401 259.664C273.716 260.954 278.597 260.375 278.922 261.695C279.128 262.487 277.512 263.462 277.274 263.605C275.863 264.468 274.79 264.245 273.586 264.62C271.319 265.301 270.201 267.546 269.713 268.521C268.097 271.7 269.843 273.275 268.52 276.24C267.598 278.12 266.028 279.655 264.062 280.598C258.975 283.036 252.694 280.1 249.115 278.424C244.515 276.261 244.537 275.022 240.578 273.518C237.776 272.466 234.789 271.915 231.77 271.893C232.445 269.538 232.787 267.11 232.79 264.671C232.79 251.355 222.908 240.558 210.716 240.558C198.524 240.558 188.631 251.355 188.631 264.671C188.631 277.988 198.513 288.805 210.716 288.805C211.51 288.804 212.303 288.756 213.091 288.663C211.54 292.167 210.314 295.641 209.338 298.404C204.999 310.806 200.151 324.529 206.236 340.557C209.862 349.813 216.182 357.933 224.481 364H139.873C148.733 349.1 156.373 333.593 162.728 317.611C177.795 279.907 179.4 266.733 179.422 261.472C179.381 248.417 176.544 235.503 171.08 223.493C167.466 224.695 163.77 225.669 160.016 226.408C151.219 228.135 146.783 229.009 141.782 227.495C134.406 225.271 127.377 218.354 128.386 213.143C129.167 209.161 134.504 206.876 133.43 204.418C132.974 203.402 131.608 202.904 130.718 202.6C128.479 201.974 126.076 202.104 123.928 202.965C116.262 205.531 108.415 207.594 100.444 209.141C96.6691 209.791 84.6831 211.812 78.7497 205.688C73.9119 200.741 74.4868 191.945 77.5782 185.85C82.5679 176.048 92.7642 176.221 110.369 167.679C123.765 161.188 122.203 158.994 150.503 139.157C158.096 133.855 169.583 126.034 184.27 116.983C172.286 121.357 160.561 126.331 149.147 131.884C131.998 140.234 118.58 146.765 103.167 158.415C91.3323 167.344 77.8385 174.362 66.6877 184.032C64.3664 186.064 58.9537 190.858 52.3261 190.208C49.928 189.894 47.6486 189.035 45.6875 187.705C43.7264 186.375 42.1436 184.615 41.0777 182.58C38.3767 177.379 40.2099 171.63 41.8478 167.679C56.2853 133.032 98.9145 96.4655 98.9145 96.4655C108.221 88.5021 121.466 77.5322 138.116 65.0387C130.676 65.9428 123.337 67.4622 116.183 69.579C91.1154 76.9939 73.8793 90.1984 64.1929 97.7352C51.339 107.781 36.2941 115.764 25.5771 127.75C23.949 129.682 21.7082 131.079 19.1773 131.742C12.9728 133.184 5.18455 129.142 1.90872 123.382C0.105119 119.949 -0.44003 116.054 0.357582 112.301Z" fill="#70169E"/>
<path d="M181.354 336.743L166.168 341.822L163.5 338.876L171.31 325.621L173.881 328.455L166.635 340.248L165.203 338.663L178.794 333.95L181.354 336.743Z" fill="#FFBAFF"/>
<path d="M186.212 340.822L174.855 313.123L178.229 310.451L189.575 338.15L186.212 340.822Z" fill="#FFBAFF"/>
<path d="M193.821 326.831L191.25 323.987L198.442 312.195L199.874 313.789L186.283 318.502L183.723 315.669L198.963 310.59L201.631 313.535L193.821 326.831Z" fill="#FFBAFF"/>
</g>
</svg>
