<svg width="133" height="158" viewBox="0 0 133 158" fill="none" xmlns="http://www.w3.org/2000/svg">
<g clip-path="url(#clip0_52_2190)">
<path d="M34.4034 -1.00195C35.4101 -0.990299 36.3861 -0.639462 37.1719 -0.00390625L37.3252 0.125977C38.0289 0.749329 38.5195 1.5781 38.7266 2.49512L38.7666 2.69238V2.69531L40.2207 10.9404L40.2705 11.1631C40.4081 11.6768 40.6956 12.1402 41.0996 12.4912C41.5608 12.8919 42.1454 13.1219 42.7559 13.1445H42.7569L54.1475 13.5488H54.1524L54.5039 13.5732C55.2057 13.6441 55.8887 13.8426 56.5196 14.1582L56.8301 14.3252L56.8321 14.3262L76.5059 25.7754L76.5137 25.7793L76.7686 25.9209C77.286 26.1874 77.8475 26.3581 78.4258 26.4238L78.7159 26.4473L78.7198 26.4482L85.8711 26.8516H85.8701C86.6155 26.8911 87.3525 27.0245 88.0635 27.249L88.3672 27.3516L88.3741 27.3535L94.0938 29.4326L94.0948 29.4336L94.3116 29.5049C94.8194 29.6554 95.355 29.6943 95.8809 29.6172C96.4819 29.529 97.0514 29.2923 97.5381 28.9287H97.5391L111.984 18.1494C112.774 17.5563 113.722 17.2105 114.708 17.1562L115.077 17.1504C115.937 17.1668 116.78 17.4048 117.523 17.8447H117.524L121.9 20.4209L121.901 20.4219L122.185 20.5762C122.857 20.9144 123.601 21.091 124.357 21.0898H130.531C131.079 21.0862 131.616 21.2375 132.081 21.5254L132.253 21.6396C132.642 21.9201 132.957 22.2935 133.168 22.7266L133.251 22.9141C133.405 23.2956 133.475 23.7053 133.459 24.1162L133.443 24.3213C133.383 24.8637 133.171 25.3778 132.833 25.8057L132.834 25.8066L122.097 39.6543L122.061 41.3506L121.874 51.209V51.2109L121.772 56.1592V56.7744L121.657 62.6982L121.63 64.0684V64.0703L121.551 67.7686L121.502 70.333L121.022 94.8135C121.007 95.6216 121.188 96.4198 121.546 97.1406L121.711 97.4453L121.712 97.4473L127.918 108.088H127.919C128.467 109.026 128.682 110.122 128.531 111.198C128.39 112.207 127.934 113.144 127.23 113.876L127.086 114.02L116.981 123.694H116.98C116.388 124.26 115.691 124.705 114.929 125.003L114.928 125.002L111.428 126.377H111.427C110.975 126.554 110.569 126.833 110.242 127.191C109.915 127.55 109.675 127.979 109.54 128.445L109.539 128.444L108.44 132.292L108.409 132.403L108.353 132.504L93.9424 158.336L93.4141 159.284L92.5127 158.68L84.4707 153.294L84.2051 153.116L84.2022 153.115L80.7393 150.792V150.791L79.3848 149.884L76.835 148.182L76.8242 148.174L75.3262 147.146V147.145L73.211 145.729V145.728L72.1866 145.041V145.04L70.4151 143.858L70.4141 143.857L69.4336 143.201V143.2C69.345 143.144 69.2609 143.081 69.1797 143.015L68.9063 142.806C67.5657 141.734 66.6215 140.24 66.2315 138.562L66.2305 138.559C65.9232 137.22 65.3477 135.957 64.5381 134.847C63.7284 133.737 62.7019 132.802 61.5205 132.101H61.5196L10.086 101.506V101.505C9.44643 101.126 8.90411 100.605 8.50003 99.9844L8.33499 99.7119C7.91896 98.9701 7.70527 98.1317 7.71683 97.2812L7.78421 92.3418L7.79007 91.9111L8.10648 91.6191C9.42445 90.4074 10.9321 89.4189 12.5684 88.6924L13.0469 88.4795L13.4942 88.752L16.584 90.6338C14.2306 87.466 12.3218 83.9784 10.9209 80.2666V80.2656C10.0322 77.9282 8.66885 74.1743 8.07523 70.3799L8.06155 70.2959L8.06351 70.2119L8.14261 64.1777L8.23148 57.1855V57.1729L8.23245 57.1611L8.24417 57.0088C8.28475 56.6572 8.41957 56.3217 8.63577 56.0391L8.73245 55.9219C8.96867 55.6582 9.27254 55.4623 9.61234 55.3564L9.61722 55.3555L17.7188 52.877L16.7608 51.3164L16.6602 51.1299C16.5708 50.939 16.5144 50.7334 16.4942 50.5225C16.4673 50.2412 16.5056 49.9576 16.6055 49.6934L16.6905 49.5C16.7871 49.3126 16.9157 49.1428 17.0703 48.998L17.2325 48.8623C17.4019 48.7367 17.5922 48.6408 17.795 48.5791L17.7998 48.5781L20.4756 47.7764L14.6709 43.1104L14.6582 43.1006L14.6465 43.0908C14.393 42.8736 14.2065 42.5886 14.1084 42.2695C14.0104 41.9503 14.0048 41.6092 14.0928 41.2871L14.1299 41.168C14.2263 40.8934 14.3895 40.6462 14.6055 40.4492L14.7012 40.3691C14.9295 40.1888 15.1995 40.0674 15.4873 40.0166L15.5088 40.0127L19.6016 39.3838L10.4678 22.9033V22.9023C9.91173 21.9025 9.7021 20.7465 9.87308 19.6152C10.0442 18.4834 10.5865 17.4403 11.4141 16.6494L28.3018 0.461914C29.1588 -0.365586 30.291 -0.846766 31.4815 -0.891602V-0.892578L34.1953 -0.999023H34.2012L34.4034 -1.00195Z" fill="#FFBAFF" stroke="white" stroke-width="2"/>
<path d="M86.1165 117.744C83.1413 117.744 80.7292 114.928 80.7292 111.461C80.7292 107.994 83.1413 105.183 86.1165 105.183C89.0917 105.183 91.4994 107.994 91.4994 111.461C91.4994 114.928 89.0873 117.744 86.1165 117.744Z" fill="#70169E"/>
<path d="M0.137486 48.1485C1.82683 37.6577 16.1929 24.9367 23.1365 19.1193C26.289 16.4811 28.9006 14.437 30.4348 13.2532C30.6343 12.9472 31.1221 12.1535 30.8294 11.6658C30.6787 11.4131 30.2397 11.116 28.6878 11.3466C22.4802 12.2777 15.8293 16.6673 15.8293 16.6673C13.6123 18.1394 10.7347 20.1303 7.489 22.6488C8.80589 20.0283 14.7563 8.86798 28.1469 4.05712C46.1133 -2.37656 61.5479 8.35364 62.9624 9.36902C59.3388 10.5395 55.7858 11.9178 52.3209 13.497C47.4435 15.714 41.1428 19.075 41.4044 19.7046C41.7015 20.4096 50.2724 17.257 64.7094 14.3838C70.9701 13.1423 76.1135 12.393 79.7538 15.2706C80.2593 15.6697 82.7157 17.6118 82.7024 20.2854C82.7024 22.5689 80.8845 24.2494 80.042 25.0076C74.9341 29.6367 72.3668 31.9556 62.9624 37.0946C58.626 39.4624 52.7288 43.546 46.7385 50.9596C55.7742 47.212 64.4602 42.6716 72.6949 37.3917C78.9601 33.3523 85.3628 28.5858 90.3953 30.9004C92.8961 32.0532 93.9735 34.4475 94.2307 35.0328C96.3768 39.8348 94.0401 46.5611 88.0232 51.5494C91.526 49.8999 95.388 50.2502 97.7779 52.4361C99.9949 54.4979 100.11 57.451 100.137 58.3333C100.292 63.2462 96.5674 66.4297 96.0087 66.8909C95.8801 67.454 95.7826 68.2211 96.1728 68.5403C96.7669 69.0281 97.9464 68.057 99.6091 67.6269C101.463 67.1436 103.857 67.3565 105.338 68.425C107.329 69.8705 107.998 73.1162 107.054 76.4416C107.244 77.03 107.473 77.6048 107.741 78.162C109.031 80.8224 110.366 81.2658 111.288 82.7423C112.21 84.2188 111.856 87.2073 111.058 93.0513C110.667 95.9023 110.455 96.4433 110.716 97.6316C111.16 99.6845 112.49 101.241 113.886 102.371C114.75 103.087 115.463 103.967 115.984 104.961C116.117 105.99 115.815 106.398 115.638 106.562C115.461 106.726 115.243 106.85 113.691 106.907C112.419 106.956 112.086 106.872 111.86 107.134C111.723 107.363 111.661 107.63 111.681 107.897C111.702 108.164 111.805 108.417 111.975 108.623C112.654 109.484 114.077 108.836 114.609 109.656C114.713 109.85 114.768 110.066 114.768 110.286C114.768 110.506 114.713 110.722 114.609 110.916C114.299 111.541 113.279 111.022 112.317 111.718C112.157 111.834 111.678 112.162 111.749 112.477C111.878 113.04 113.873 112.787 114.006 113.363C114.09 113.709 113.43 114.135 113.332 114.197C112.756 114.574 112.317 114.476 111.825 114.64C110.898 114.937 110.441 115.917 110.242 116.343C109.581 117.731 110.295 118.418 109.754 119.713C109.377 120.533 108.735 121.203 107.932 121.615C105.852 122.679 103.285 121.398 101.822 120.666C99.9417 119.722 99.9505 119.181 98.3321 118.524C97.1869 118.065 95.9657 117.825 94.7318 117.815C95.0075 116.787 95.1476 115.727 95.1485 114.662C95.1485 108.85 91.1092 104.136 86.1254 104.136C81.1416 104.136 77.0979 108.85 77.0979 114.662C77.0979 120.475 81.1372 125.198 86.1254 125.198C86.4501 125.197 86.7744 125.176 87.0965 125.135C86.4624 126.665 85.9614 128.182 85.5623 129.388C83.7887 134.802 81.8067 140.792 84.2942 147.789C85.7764 151.829 88.3598 155.374 91.7521 158.022H57.1672C60.7888 151.518 63.9119 144.749 66.5096 137.772C72.6683 121.313 73.3246 115.563 73.3334 113.266C73.3166 107.567 72.1572 101.93 69.9237 96.6871C68.4463 97.2119 66.9353 97.637 65.4011 97.9597C61.8051 98.7135 59.9916 99.0948 57.9476 98.4341C54.9325 97.4631 52.0592 94.4436 52.4716 92.1689C52.7909 90.4308 54.9724 89.4332 54.5334 88.3602C54.3472 87.9168 53.7885 87.6995 53.4249 87.5665C52.5095 87.2934 51.5273 87.3499 50.6492 87.7261C47.5157 88.846 44.3081 89.7468 41.0497 90.4219C39.5067 90.7057 34.6072 91.5881 32.1818 88.9144C30.2042 86.7551 30.4392 82.9152 31.7029 80.2549C33.7425 75.9761 37.9105 76.0515 45.1068 72.3225C50.5827 69.4892 49.9442 68.5314 61.5125 59.8719C64.6162 57.5574 69.3118 54.1432 75.3154 50.1926C70.4165 52.1017 65.6238 54.273 60.9582 56.6972C53.9481 60.3419 48.4633 63.193 42.1626 68.2787C37.3252 72.1762 31.8093 75.24 27.2512 79.4612C26.3023 80.348 24.0898 82.4408 21.3806 82.157C20.4004 82.0203 19.4686 81.6452 18.667 81.0646C17.8653 80.4841 17.2183 79.7158 16.7826 78.8271C15.6785 76.5569 16.4279 74.0473 17.0974 72.3225C22.999 57.1982 40.4245 41.2359 40.4245 41.2359C44.2289 37.7597 49.6427 32.971 56.4489 27.5172C53.4077 27.9119 50.4075 28.5752 47.4834 29.4992C37.2365 32.736 30.1909 38.5002 26.2314 41.7902C20.9771 46.1754 14.8272 49.6605 10.4465 54.8926C9.78095 55.7358 8.86494 56.3459 7.83042 56.6351C5.29419 57.2647 2.1106 55.5 0.771544 52.986C0.0342871 51.487 -0.188553 49.7868 0.137486 48.1485Z" fill="#70169E"/>
<path d="M74.1182 146.122L67.9106 148.339L66.8199 147.053L70.0123 141.267L71.0632 142.504L68.1013 147.652L67.516 146.96L73.0718 144.902L74.1182 146.122Z" fill="#FFBAFF"/>
<path d="M76.1091 147.904L71.4667 135.813L72.8457 134.646L77.4836 146.738L76.1091 147.904Z" fill="#FFBAFF"/>
<path d="M79.2173 141.798L78.1664 140.556L81.1061 135.409L81.6914 136.105L76.1357 138.162L75.0892 136.925L81.319 134.708L82.4097 135.994L79.2173 141.798Z" fill="#FFBAFF"/>
</g>
<defs>
<clipPath id="clip0_52_2190">
<rect width="132.447" height="158" fill="white"/>
</clipPath>
</defs>
</svg>
