<svg width="299" height="357" viewBox="0 0 299 357" fill="none" xmlns="http://www.w3.org/2000/svg">
<g clip-path="url(#clip0_219_1832)">
<path d="M271.77 158.58L270.69 213.79C270.642 216.289 271.286 218.753 272.55 220.91L286.55 244.91C287.53 246.589 287.916 248.549 287.645 250.473C287.375 252.398 286.464 254.176 285.06 255.52L262.27 277.34C261.147 278.413 259.826 279.255 258.38 279.82L250.48 282.92C249.138 283.445 247.935 284.272 246.964 285.337C245.993 286.402 245.28 287.675 244.88 289.06L242.4 297.74L209.9 356L191.76 343.85L191.16 343.45L183.35 338.21L180.29 336.16L174.54 332.32L171.16 330L166.37 326.79L164.06 325.24L160.06 322.57L157.85 321.09C157.673 320.981 157.506 320.858 157.35 320.72C154.437 318.599 152.386 315.5 151.57 311.99C150.809 308.672 149.382 305.543 147.376 302.793C145.37 300.043 142.827 297.728 139.9 295.99L23.9 226.99C22.5907 226.214 21.5092 225.107 20.7647 223.779C20.0203 222.452 19.6392 220.952 19.66 219.43L19.81 208.29C22.6019 205.723 25.7938 203.629 29.26 202.09L48.59 213.86C38.9688 204.355 31.5154 192.883 26.74 180.23C24.74 174.97 21.74 166.69 20.44 158.38L20.62 144.77L20.82 129C20.8368 128.549 20.993 128.115 21.267 127.757C21.541 127.399 21.9194 127.134 22.35 127L41.25 121.22C41.5052 121.148 41.7402 121.017 41.9366 120.839C42.1331 120.661 42.2857 120.44 42.3825 120.193C42.4793 119.946 42.5178 119.68 42.4948 119.416C42.4718 119.152 42.388 118.896 42.25 118.67L39.72 114.55C39.5666 114.301 39.4723 114.021 39.4444 113.73C39.4165 113.439 39.4557 113.145 39.5591 112.872C39.6625 112.599 39.8272 112.353 40.0406 112.153C40.254 111.953 40.5104 111.805 40.79 111.72L48.74 109.34C48.95 109.275 49.1383 109.154 49.2848 108.991C49.4313 108.827 49.5304 108.626 49.5715 108.41C49.6127 108.194 49.5942 107.971 49.5182 107.765C49.4422 107.559 49.3114 107.378 49.14 107.24L34.5 95.47C34.2525 95.258 34.0704 94.98 33.9747 94.6685C33.8791 94.357 33.874 94.0247 33.9599 93.7103C34.0458 93.396 34.2193 93.1125 34.4601 92.8929C34.7008 92.6733 34.9991 92.5267 35.32 92.47L47.75 90.56L25.58 50.56C24.5669 48.7403 24.1861 46.6358 24.4973 44.5764C24.8086 42.517 25.7943 40.6191 27.3 39.18L65.39 2.67001C66.9253 1.18473 68.9553 0.319287 71.09 0.240013L77.21 1.3167e-05C79.0985 -0.0632343 80.9465 0.555944 82.4157 1.74415C83.8849 2.93236 84.8769 4.61007 85.21 6.47001L88.49 25.07C88.8224 26.9352 89.7837 28.6303 91.2138 29.8731C92.644 31.1158 94.4566 31.8311 96.35 31.9L122.04 32.81C123.8 32.8804 125.516 33.3781 127.04 34.26L171.41 60.08C173.233 61.1638 175.292 61.7884 177.41 61.9L193.54 62.81C195.246 62.9 196.93 63.2368 198.54 63.81L211.44 68.5C213.079 69.0993 214.842 69.2806 216.569 69.0274C218.295 68.7742 219.932 68.0946 221.33 67.05L253.91 42.74C255.335 41.6681 257.046 41.0435 258.826 40.9456C260.607 40.8476 262.376 41.2808 263.91 42.19L273.78 48C275.807 49.1951 278.117 49.8237 280.47 49.82H294.39C295.205 49.8119 296.006 50.0352 296.699 50.464C297.393 50.8927 297.95 51.5094 298.307 52.2423C298.664 52.9752 298.806 53.7943 298.716 54.6046C298.627 55.4149 298.309 56.1831 297.8 56.82L273.13 88.64L273.03 93.21L272.61 115.45L272.38 126.61V128L272.12 141.36L272.06 144.45L271.88 152.79L271.77 158.58Z" fill="#FFBAFF"/>
<path d="M194.22 265.55C187.51 265.55 182.07 259.2 182.07 251.38C182.07 243.56 187.51 237.22 194.22 237.22C200.93 237.22 206.36 243.56 206.36 251.38C206.36 259.2 200.92 265.55 194.22 265.55Z" fill="#70169E"/>
<path d="M0.310125 108.59C4.12012 84.93 36.5201 56.24 52.1801 43.12C59.2901 37.17 65.1801 32.56 68.6401 29.89C69.0901 29.2 70.1901 27.41 69.5301 26.31C69.1901 25.74 68.2001 25.07 64.7001 25.59C50.7001 27.69 35.7001 37.59 35.7001 37.59C30.7001 40.91 24.2101 45.4 16.8901 51.08C19.8601 45.17 33.2801 20 63.4801 9.15001C104 -5.35999 138.81 18.84 142 21.13C133.828 23.7698 125.815 26.8782 118 30.44C107 35.44 92.7901 43.02 93.3801 44.44C94.0501 46.03 113.38 38.92 145.94 32.44C160.06 29.64 171.66 27.95 179.87 34.44C181.01 35.34 186.55 39.72 186.52 45.75C186.52 50.9 182.42 54.69 180.52 56.4C169 66.84 163.21 72.07 142 83.66C132.22 89 118.92 98.21 105.41 114.93C125.788 106.478 145.378 96.2379 163.95 84.33C178.08 75.22 192.52 64.47 203.87 69.69C209.51 72.29 211.94 77.69 212.52 79.01C217.36 89.84 212.09 105.01 198.52 116.26C206.42 112.54 215.13 113.33 220.52 118.26C225.52 122.91 225.78 129.57 225.84 131.56C226.19 142.64 217.79 149.82 216.53 150.86C216.24 152.13 216.02 153.86 216.9 154.58C218.24 155.68 220.9 153.49 224.65 152.52C228.83 151.43 234.23 151.91 237.57 154.32C242.06 157.58 243.57 164.9 241.44 172.4C241.868 173.727 242.386 175.023 242.99 176.28C245.9 182.28 248.91 183.28 250.99 186.61C253.07 189.94 252.27 196.68 250.47 209.86C249.59 216.29 249.11 217.51 249.7 220.19C250.7 224.82 253.7 228.33 256.85 230.88C258.798 232.494 260.406 234.479 261.58 236.72C261.88 239.04 261.2 239.96 260.8 240.33C260.4 240.7 259.91 240.98 256.41 241.11C253.54 241.22 252.79 241.03 252.28 241.62C251.971 242.138 251.83 242.74 251.876 243.341C251.923 243.943 252.155 244.515 252.54 244.98C254.07 246.92 257.28 245.46 258.48 247.31C258.715 247.747 258.837 248.234 258.837 248.73C258.837 249.226 258.715 249.713 258.48 250.15C257.78 251.56 255.48 250.39 253.31 251.96C252.95 252.22 251.87 252.96 252.03 253.67C252.32 254.94 256.82 254.37 257.12 255.67C257.31 256.45 255.82 257.41 255.6 257.55C254.3 258.4 253.31 258.18 252.2 258.55C250.11 259.22 249.08 261.43 248.63 262.39C247.14 265.52 248.75 267.07 247.53 269.99C246.68 271.84 245.232 273.351 243.42 274.28C238.73 276.68 232.94 273.79 229.64 272.14C225.4 270.01 225.42 268.79 221.77 267.31C219.187 266.274 216.433 265.732 213.65 265.71C214.272 263.391 214.588 261.001 214.59 258.6C214.59 245.49 205.48 234.86 194.24 234.86C183 234.86 173.88 245.49 173.88 258.6C173.88 271.71 182.99 282.36 194.24 282.36C194.972 282.359 195.704 282.312 196.43 282.22C195 285.67 193.87 289.09 192.97 291.81C188.97 304.02 184.5 317.53 190.11 333.31C193.453 342.422 199.279 350.417 206.93 356.39H128.93C137.098 341.721 144.142 326.454 150 310.72C163.89 273.6 165.37 260.63 165.39 255.45C165.352 242.598 162.737 229.884 157.7 218.06C154.368 219.243 150.96 220.202 147.5 220.93C139.39 222.63 135.3 223.49 130.69 222C123.89 219.81 117.41 213 118.34 207.87C119.06 203.95 123.98 201.7 122.99 199.28C122.57 198.28 121.31 197.79 120.49 197.49C118.426 196.874 116.21 197.002 114.23 197.85C107.163 200.376 99.9289 202.407 92.5801 203.93C89.1001 204.57 78.0501 206.56 72.5801 200.53C68.1201 195.66 68.6501 187 71.5001 181C76.1001 171.35 85.5001 171.52 101.73 163.11C114.08 156.72 112.64 154.56 138.73 135.03C145.73 129.81 156.32 122.11 169.86 113.2C158.811 117.506 148.002 122.403 137.48 127.87C121.67 136.09 109.3 142.52 95.0901 153.99C84.1801 162.78 71.7401 169.69 61.4601 179.21C59.3201 181.21 54.3301 185.93 48.2201 185.29C46.0093 184.982 43.9079 184.136 42.1 182.826C40.292 181.517 38.8328 179.784 37.8501 177.78C35.3601 172.66 37.0501 167 38.5601 163.11C51.8701 129 91.1701 93 91.1701 93C99.7501 85.16 111.96 74.36 127.31 62.06C120.451 62.9502 113.685 64.446 107.09 66.53C83.9801 73.83 68.0901 86.83 59.1601 94.25C47.3101 104.14 33.4401 112 23.5601 123.8C22.0592 125.702 19.9933 127.078 17.6601 127.73C11.9401 129.15 4.76012 125.17 1.74012 119.5C0.0773783 116.119 -0.425197 112.285 0.310125 108.59Z" fill="#70169E"/>
<path d="M167.16 329.55L153.16 334.55L150.7 331.65L157.9 318.6L160.27 321.39L153.59 333L152.27 331.44L164.8 326.8L167.16 329.55Z" fill="#FFBAFF"/>
<path d="M171.65 333.57L161.18 306.3L164.29 303.67L174.75 330.94L171.65 333.57Z" fill="#FFBAFF"/>
<path d="M178.661 319.8L176.291 317L182.921 305.39L184.241 306.96L171.711 311.6L169.351 308.81L183.401 303.81L185.861 306.71L178.661 319.8Z" fill="#FFBAFF"/>
</g>
<defs>
<clipPath id="clip0_219_1832">
<rect width="298.71" height="356.34" fill="white"/>
</clipPath>
</defs>
</svg>
