<svg width="224" height="137" viewBox="0 0 224 137" fill="none" xmlns="http://www.w3.org/2000/svg">
<rect x="23.2563" y="6.10352e-05" width="211.689" height="71.7458" rx="20" transform="rotate(18.9141 23.2563 6.10352e-05)" fill="white"/>
<path d="M51.0469 23.3779L46.577 21.8463L47.8509 18.1285L61.0193 22.6407L59.7454 26.3585L55.2897 24.8317L50.1454 39.8448L45.9026 38.391L51.0469 23.3779ZM59.737 37.6452C59.6227 38.0711 59.6288 38.4855 59.755 38.8881C59.8813 39.2908 60.1202 39.6581 60.4716 39.9899C60.8357 40.3155 61.3063 40.5772 61.8834 40.7749C62.4321 40.9629 62.9434 41.0747 63.4175 41.1103C63.901 41.1491 64.3328 41.1385 64.7127 41.0784C65.1022 41.0216 65.4176 40.9341 65.6589 40.816L66.4192 44.0575C66.0952 44.2318 65.6735 44.3675 65.154 44.4643C64.6473 44.5549 64.018 44.556 63.2661 44.4675C62.5142 44.379 61.6037 44.1516 60.5347 43.7853C59.2482 43.3444 58.1862 42.711 57.3487 41.8849C56.5113 41.0589 55.9645 40.0787 55.7083 38.9444C55.4521 37.8101 55.5558 36.5666 56.0194 35.2138C56.4084 34.0786 57.0044 33.1412 57.8075 32.4016C58.6233 31.6558 59.595 31.1801 60.7225 30.9744C61.8533 30.7594 63.0856 30.8804 64.4195 31.3374C65.6871 31.7718 66.7051 32.3796 67.4733 33.1608C68.251 33.9452 68.7334 34.8822 68.9203 35.9716C69.12 37.0548 68.9864 38.2775 68.5196 39.6398C68.4937 39.7155 68.4371 39.8652 68.3499 40.089C68.2721 40.316 68.2107 40.4642 68.1659 40.5333L59.737 37.6452ZM64.9232 36.9011C65.0175 36.5951 65.0392 36.2696 64.9883 35.9245C64.9407 35.5699 64.7979 35.2461 64.56 34.9532C64.3254 34.6508 63.9715 34.4186 63.4985 34.2565C63.0255 34.0944 62.5911 34.0513 62.1951 34.127C61.8119 34.1965 61.4849 34.3488 61.2141 34.5837C60.9434 34.8186 60.7418 35.0984 60.6094 35.423L64.9232 36.9011ZM76.1153 45.3344C76.6545 45.5191 77.1299 45.5816 77.5415 45.5218C77.9564 45.4525 78.2447 45.3822 78.4066 45.3108L79.3774 48.9099C79.1839 48.981 78.8687 49.0526 78.4316 49.1249C77.9979 49.1877 77.4776 49.1944 76.8708 49.145C76.2735 49.0989 75.6201 48.9543 74.9106 48.7112C73.5768 48.2542 72.4896 47.6015 71.6492 46.7533C70.812 45.8956 70.2684 44.906 70.0185 43.7844C69.778 42.6661 69.8717 41.4825 70.2996 40.2338C70.7307 38.9756 71.3826 37.9833 72.2551 37.257C73.1372 36.5338 74.1702 36.095 75.3542 35.9405C76.5415 35.7765 77.8021 35.923 79.1359 36.38C79.836 36.6199 80.4344 36.9095 80.9312 37.2489C81.4407 37.582 81.8523 37.908 82.1659 38.2269C82.4827 38.5363 82.6941 38.7832 82.8 38.9675L79.7737 41.2286C79.7302 41.1397 79.6396 41.0029 79.502 40.8183C79.3739 40.637 79.1888 40.452 78.9469 40.2634C78.705 40.0748 78.3948 39.9157 78.0164 39.786C77.5529 39.6272 77.0772 39.5964 76.5894 39.6935C76.111 39.7938 75.6775 40.01 75.2889 40.342C74.9004 40.6739 74.6137 41.1095 74.4289 41.6487C74.2441 42.188 74.2018 42.7126 74.3019 43.2225C74.4052 43.7231 74.6151 44.1596 74.9313 44.5323C75.2571 44.9082 75.6517 45.1755 76.1153 45.3344ZM93.0644 41.1526C93.8779 41.4314 94.6159 41.8692 95.2781 42.4662C95.9404 43.0631 96.3991 43.8069 96.6541 44.6977C96.9124 45.579 96.8421 46.6014 96.4434 47.765L94.0074 54.8742L89.6937 53.3961L91.8865 46.9964C92.1718 46.1639 92.1965 45.4747 91.9607 44.9288C91.7377 44.3767 91.3045 43.9904 90.6612 43.77C90.2355 43.6241 89.7898 43.5982 89.3242 43.6924C88.8617 43.7771 88.4379 43.9807 88.0525 44.3032C87.6799 44.6194 87.4044 45.0377 87.2261 45.558L85.0819 51.8159L80.7539 50.3329L87.4444 30.8073L91.7723 32.2903L88.4855 41.8828C88.6965 41.6063 89.0352 41.3735 89.5017 41.1845C89.9808 40.9893 90.5304 40.8816 91.1504 40.8615C91.7831 40.8352 92.4211 40.9322 93.0644 41.1526ZM117.41 41.5826C118.574 41.9813 119.547 42.4575 120.33 43.0111C121.113 43.5648 121.72 44.0742 122.153 44.5396C122.585 45.0049 122.842 45.3043 122.923 45.4378L119.708 48.1575C119.596 47.9921 119.392 47.7374 119.098 47.3934C118.813 47.0526 118.449 46.7112 118.006 46.3691C117.572 46.0303 117.086 45.7685 116.547 45.5837C115.818 45.3341 115.182 45.264 114.637 45.3733C114.105 45.4763 113.751 45.7833 113.576 46.2941C113.456 46.6441 113.466 47.0016 113.605 47.3664C113.757 47.725 114.035 48.1163 114.44 48.5403C114.857 48.9581 115.398 49.4449 116.064 50.0007C116.676 50.496 117.23 51.024 117.725 51.5847C118.22 52.1454 118.617 52.7464 118.915 53.3877C119.226 54.0228 119.412 54.6995 119.472 55.4179C119.532 56.1363 119.426 56.8928 119.154 57.6874C118.83 58.6334 118.354 59.39 117.726 59.9571C117.102 60.5148 116.376 60.9056 115.549 61.1296C114.731 61.3567 113.859 61.4333 112.933 61.3591C112.013 61.2977 111.099 61.1113 110.191 60.8002C108.905 60.3593 107.801 59.8172 106.88 59.1739C105.968 58.5338 105.258 57.9365 104.75 57.382C104.243 56.8275 103.947 56.4724 103.863 56.3167L107.198 53.4795C107.282 53.6035 107.452 53.8152 107.709 54.1147C107.976 54.4173 108.31 54.7537 108.711 55.1239C109.116 55.4847 109.559 55.8268 110.04 56.1502C110.531 56.4768 111.036 56.7293 111.557 56.9076C112.427 57.2058 113.136 57.2639 113.685 57.0819C114.237 56.8905 114.607 56.5204 114.795 55.9717C114.934 55.565 114.922 55.1537 114.758 54.7381C114.594 54.3224 114.286 53.8787 113.834 53.4069C113.386 52.9256 112.806 52.3832 112.093 51.7795C111.383 51.1664 110.75 50.5002 110.193 49.7808C109.646 49.0647 109.271 48.2757 109.07 47.4139C108.868 46.552 108.947 45.5961 109.307 44.546C109.667 43.4959 110.271 42.6882 111.121 42.123C111.982 41.5514 112.967 41.2229 114.075 41.1373C115.192 41.0549 116.304 41.2033 117.41 41.5826ZM120.087 63.8104L124.079 52.1603L128.393 53.6384L124.401 65.2885L120.087 63.8104ZM127.114 50.5207C126.433 50.2873 125.937 49.8531 125.626 49.218C125.318 48.5735 125.278 47.9201 125.505 47.2579C125.732 46.5957 126.164 46.1044 126.803 45.784C127.454 45.4574 128.115 45.4092 128.787 45.6393C129.231 45.7917 129.599 46.0446 129.89 46.398C130.185 46.742 130.382 47.1374 130.483 47.5841C130.584 48.0309 130.556 48.4813 130.4 48.9354C130.174 49.5976 129.736 50.0872 129.088 50.4044C128.444 50.7121 127.786 50.7508 127.114 50.5207ZM136.703 56.1055C137.469 56.3681 138.147 56.6742 138.735 57.0238C139.327 57.364 139.808 57.6874 140.179 57.9941C140.559 58.304 140.792 58.5321 140.88 58.6783L138.604 60.7369C138.47 60.5429 138.193 60.2575 137.772 59.8809C137.361 59.5074 136.857 59.2186 136.261 59.0144C135.807 58.8588 135.4 58.7985 135.039 58.8334C134.681 58.8589 134.452 59.0182 134.352 59.3115C134.251 59.6048 134.341 59.8996 134.62 60.196C134.911 60.4863 135.361 60.8094 135.968 61.1655C136.497 61.4735 137.012 61.851 137.515 62.2979C138.017 62.7449 138.379 63.276 138.602 63.8914C138.837 64.5005 138.819 65.2024 138.546 65.9971C138.267 66.8106 137.862 67.4223 137.331 67.8322C136.799 68.242 136.195 68.4947 135.517 68.5902C134.84 68.6857 134.146 68.6752 133.435 68.5586C132.721 68.4514 132.047 68.2892 131.414 68.072C130.524 67.7673 129.776 67.4211 129.169 67.0334C128.571 66.6489 128.105 66.2829 127.769 65.9354C127.434 65.5879 127.207 65.3251 127.088 65.147L129.451 62.7855C129.626 63.0779 129.947 63.4522 130.414 63.9083C130.885 64.355 131.432 64.6853 132.057 64.8992C132.662 65.1067 133.161 65.1773 133.554 65.111C133.947 65.0447 134.193 64.8649 134.294 64.5716C134.375 64.3351 134.359 64.1184 134.247 63.9214C134.135 63.7244 133.95 63.5236 133.692 63.319C133.435 63.1145 133.112 62.8983 132.725 62.6706C132.373 62.4652 132.011 62.2092 131.641 61.9025C131.27 61.5958 130.943 61.2405 130.658 60.8365C130.377 60.423 130.191 59.9629 130.1 59.4562C130.01 58.9495 130.068 58.3934 130.276 57.7879C130.542 57.0122 131.013 56.4548 131.689 56.1158C132.365 55.7767 133.145 55.6156 134.027 55.6325C134.912 55.6399 135.804 55.7976 136.703 56.1055ZM142.372 58.4284L144.358 59.1092L145.997 54.3271L150.268 55.7906L148.63 60.5727L151.241 61.4674L150.025 65.0149L147.414 64.1202L146.301 67.3697C146.135 67.8522 146.072 68.2691 146.11 68.6205C146.151 68.9623 146.361 69.1981 146.74 69.3278C146.995 69.4153 147.232 69.4331 147.451 69.3812C147.669 69.3292 147.804 69.2908 147.855 69.2659L148.28 72.8367C148.195 72.8708 147.951 72.9035 147.549 72.9349C147.157 72.9696 146.674 72.9577 146.103 72.8991C145.531 72.8406 144.918 72.6995 144.266 72.4758C143.102 72.0771 142.254 71.4217 141.72 70.5096C141.191 69.5881 141.161 68.4415 141.631 67.0698L143.143 62.6567L141.156 61.976L142.372 58.4284ZM154.799 70.2185C154.685 70.6445 154.691 71.0588 154.818 71.4615C154.944 71.8641 155.183 72.2314 155.534 72.5632C155.898 72.8888 156.369 73.1505 156.946 73.3482C157.495 73.5362 158.006 73.648 158.48 73.6836C158.963 73.7225 159.395 73.7118 159.775 73.6518C160.165 73.5949 160.48 73.5074 160.721 73.3893L161.482 76.6308C161.158 76.8052 160.736 76.9408 160.217 77.0376C159.71 77.1283 159.08 77.1293 158.329 77.0408C157.577 76.9523 156.666 76.7249 155.597 76.3586C154.311 75.9178 153.249 75.2843 152.411 74.4583C151.574 73.6322 151.027 72.652 150.771 71.5177C150.515 70.3835 150.618 69.1399 151.082 67.7871C151.471 66.6519 152.067 65.7145 152.87 64.9749C153.686 64.2291 154.657 63.7534 155.785 63.5478C156.916 63.3327 158.148 63.4537 159.482 63.9107C160.75 64.3451 161.768 64.9529 162.536 65.7341C163.314 66.5185 163.796 67.4555 163.983 68.5449C164.182 69.6281 164.049 70.8508 163.582 72.2131C163.556 72.2888 163.5 72.4385 163.412 72.6623C163.335 72.8894 163.273 73.0375 163.228 73.1067L154.799 70.2185ZM159.986 69.4744C160.08 69.1685 160.102 68.8429 160.051 68.4978C160.003 68.1432 159.86 67.8195 159.622 67.5265C159.388 67.2241 159.034 66.9919 158.561 66.8298C158.088 66.6677 157.654 66.6246 157.258 66.7003C156.874 66.7699 156.547 66.9221 156.277 67.157C156.006 67.3919 155.804 67.6717 155.672 67.9963L159.986 69.4744ZM167.763 80.1466L163.449 78.6684L167.441 67.0184L171.755 68.4965L171.137 70.2986L171.066 70.2743C171.216 70.0827 171.495 69.8715 171.901 69.6409C172.311 69.4009 172.827 69.2391 173.447 69.1558C174.071 69.063 174.766 69.1478 175.532 69.4104C176.071 69.5952 176.539 69.8505 176.935 70.1764C177.334 70.4928 177.611 70.7623 177.768 70.985L174.892 73.9162C174.815 73.71 174.635 73.4634 174.353 73.1764C174.083 72.8832 173.698 72.6507 173.196 72.4789C172.619 72.2812 172.091 72.2641 171.613 72.4277C171.143 72.5946 170.747 72.8553 170.425 73.21C170.112 73.5679 169.892 73.9313 169.766 74.3002L167.763 80.1466ZM184.207 72.3827C184.973 72.6452 185.65 72.9513 186.239 73.301C186.83 73.6411 187.311 73.9645 187.682 74.2712C188.062 74.5812 188.296 74.8092 188.383 74.9554L186.108 77.0141C185.974 76.8201 185.696 76.5347 185.276 76.158C184.864 75.7846 184.361 75.4958 183.765 75.2915C183.311 75.136 182.903 75.0756 182.543 75.1106C182.185 75.136 181.956 75.2954 181.855 75.5887C181.755 75.8819 181.844 76.1768 182.123 76.4732C182.415 76.7634 182.864 77.0866 183.472 77.4427C184 77.7507 184.516 78.1282 185.018 78.5751C185.52 79.022 185.883 79.5532 186.105 80.1686C186.341 80.7777 186.322 81.4796 186.05 82.2742C185.771 83.0878 185.366 83.6995 184.834 84.1093C184.303 84.5192 183.698 84.7718 183.021 84.8674C182.343 84.9629 181.649 84.9523 180.938 84.8357C180.225 84.7286 179.551 84.5664 178.917 84.3492C178.028 84.0445 177.28 83.6983 176.673 83.3106C176.075 82.9261 175.608 82.5601 175.273 82.2126C174.937 81.8651 174.71 81.6023 174.592 81.4242L176.955 79.0627C177.129 79.3551 177.45 79.7293 177.918 80.1855C178.388 80.6321 178.936 80.9624 179.56 81.1764C180.166 81.3838 180.665 81.4544 181.057 81.3881C181.45 81.3218 181.697 81.1421 181.797 80.8488C181.878 80.6123 181.863 80.3955 181.75 80.1985C181.638 80.0015 181.453 79.8008 181.196 79.5962C180.938 79.3917 180.616 79.1755 180.229 78.9477C179.876 78.7424 179.515 78.4864 179.144 78.1797C178.774 77.873 178.446 77.5177 178.162 77.1137C177.881 76.7002 177.695 76.2401 177.604 75.7334C177.513 75.2266 177.572 74.6705 177.779 74.0651C178.045 73.2894 178.516 72.732 179.193 72.3929C179.869 72.0539 180.648 71.8928 181.53 71.9097C182.416 71.9171 183.308 72.0747 184.207 72.3827ZM78.639 68.3925L82.4464 80.511L77.3805 78.7751L74.4249 68.6134L71.6194 76.8011L67.3765 75.3472L73.7947 56.6163L78.0376 58.0701L75.4119 65.7328L83.3446 59.8886L88.1267 61.5272L78.639 68.3925ZM88.4363 77.0772C88.3221 77.5032 88.3281 77.9175 88.4544 78.3202C88.5807 78.7228 88.8195 79.0901 89.1709 79.4219C89.5351 79.7475 90.0056 80.0092 90.5827 80.2069C91.1314 80.3949 91.6428 80.5067 92.1168 80.5423C92.6003 80.5811 93.0321 80.5705 93.4121 80.5105C93.8015 80.4536 94.1169 80.3661 94.3583 80.248L95.1186 83.4895C94.7946 83.6639 94.3728 83.7995 93.8534 83.8963C93.3466 83.987 92.7173 83.988 91.9654 83.8995C91.2135 83.811 90.3031 83.5836 89.2341 83.2173C87.9475 82.7765 86.8855 82.143 86.0481 81.3169C85.2106 80.4909 84.6638 79.5107 84.4076 78.3764C84.1515 77.2422 84.2552 75.9986 84.7187 74.6458C85.1077 73.5106 85.7037 72.5732 86.5068 71.8336C87.3227 71.0878 88.2943 70.6121 89.4219 70.4065C90.5526 70.1914 91.7849 70.3124 93.1188 70.7694C94.3865 71.2038 95.4044 71.8116 96.1727 72.5928C96.9504 73.3772 97.4327 74.3142 97.6197 75.4036C97.8193 76.4868 97.6858 77.7095 97.219 79.0718C97.1931 79.1475 97.1365 79.2972 97.0492 79.521C96.9714 79.748 96.9101 79.8962 96.8652 79.9654L88.4363 77.0772ZM93.6225 76.3331C93.7168 76.0272 93.7385 75.7016 93.6876 75.3565C93.64 75.0019 93.4972 74.6781 93.2593 74.3852C93.0247 74.0828 92.6709 73.8506 92.1979 73.6885C91.7249 73.5264 91.2904 73.4833 90.8945 73.559C90.5112 73.6286 90.1842 73.7808 89.9135 74.0157C89.6427 74.2506 89.4411 74.5304 89.3088 74.855L93.6225 76.3331ZM109.581 76.4101C110.394 76.6889 111.132 77.1267 111.794 77.7236C112.457 78.3205 112.915 79.0644 113.17 79.9551C113.429 80.8364 113.358 81.8589 112.96 83.0225L110.524 90.1317L106.196 88.6487L108.389 82.249C108.674 81.4165 108.689 80.7241 108.434 80.1717C108.183 79.6098 107.736 79.2187 107.092 78.9983C106.667 78.8524 106.226 78.8282 105.769 78.9255C105.326 79.0167 104.916 79.2252 104.54 79.5509C104.177 79.8704 103.906 80.2903 103.728 80.8106L101.584 87.0685L97.2702 85.5903L101.262 73.9403L105.576 75.4184L104.988 77.1354C105.208 76.8621 105.551 76.631 106.018 76.442C106.497 76.2468 107.047 76.1391 107.667 76.119C108.299 76.0926 108.937 76.1897 109.581 76.4101ZM120.184 89.2716L126.047 82.433L130.276 83.8819L116.258 98.6927L111.944 97.2146L116.663 92.2354L115.788 78.9176L120.087 80.3908L120.184 89.2716ZM136.675 99.0926L137.322 97.2053C137.172 97.3653 136.86 97.5651 136.387 97.8047C135.924 98.0475 135.358 98.2182 134.69 98.317C134.025 98.4063 133.314 98.3213 132.557 98.062C131.422 97.673 130.523 97.0583 129.859 96.2179C129.199 95.368 128.791 94.3985 128.636 93.3093C128.484 92.2107 128.602 91.0938 128.991 89.9586C129.38 88.8234 129.97 87.8733 130.761 87.1083C131.555 86.3338 132.473 85.8134 133.516 85.547C134.558 85.2806 135.647 85.3418 136.782 85.7308C137.511 85.9804 138.109 86.3175 138.576 86.742C139.047 87.157 139.398 87.5837 139.628 88.0221C139.862 88.4509 140 88.8205 140.041 89.1308L140.625 87.428L144.91 88.8964L140.918 100.546L136.675 99.0926ZM133.22 91.4076C133.038 91.9373 132.998 92.4572 133.098 92.9672C133.201 93.4677 133.416 93.9059 133.741 94.2818C134.077 94.6609 134.495 94.9364 134.996 95.1082C135.517 95.2865 136.016 95.3254 136.494 95.2251C136.973 95.1247 137.397 94.9053 137.766 94.5669C138.149 94.2222 138.431 93.785 138.612 93.2552C138.794 92.7255 138.837 92.2119 138.744 91.7147C138.662 91.2112 138.464 90.7731 138.147 90.4004C137.834 90.0183 137.418 89.7381 136.897 89.5599C136.396 89.3881 135.895 89.3538 135.395 89.4572C134.907 89.5543 134.467 89.7735 134.075 90.115C133.686 90.4469 133.401 90.8778 133.22 91.4076Z" fill="#45084A"/>
</svg>
