<svg width="224" height="137" viewBox="0 0 224 137" fill="none" xmlns="http://www.w3.org/2000/svg">
<rect x="23.2564" width="211.689" height="71.7458" rx="20" transform="rotate(18.9141 23.2564 0)" fill="white"/>
<path d="M51.0468 23.3779L46.5769 21.8462L47.8509 18.1284L61.0192 22.6406L59.7453 26.3584L55.2897 24.8317L50.1454 39.8448L45.9025 38.391L51.0468 23.3779ZM59.7369 37.6451C59.6227 38.0711 59.6287 38.4854 59.755 38.8881C59.8813 39.2908 60.1201 39.658 60.4715 39.9898C60.8357 40.3154 61.3062 40.5771 61.8833 40.7748C62.432 40.9629 62.9434 41.0747 63.4174 41.1102C63.9009 41.1491 64.3327 41.1385 64.7127 41.0784C65.1021 41.0216 65.4175 40.9341 65.6589 40.8159L66.4192 44.0574C66.0952 44.2318 65.6734 44.3674 65.154 44.4642C64.6472 44.5549 64.0179 44.5559 63.266 44.4674C62.5141 44.3789 61.6037 44.1515 60.5347 43.7852C59.2481 43.3444 58.1861 42.7109 57.3486 41.8849C56.5112 41.0588 55.9644 40.0786 55.7082 38.9444C55.4521 37.8101 55.5558 36.5666 56.0193 35.2138C56.4083 34.0786 57.0043 33.1411 57.8074 32.4015C58.6233 31.6557 59.5949 31.18 60.7225 30.9744C61.8532 30.7593 63.0855 30.8803 64.4194 31.3374C65.6871 31.7717 66.705 32.3795 67.4733 33.1607C68.251 33.9452 68.7333 34.8821 68.9203 35.9715C69.1199 37.0547 68.9864 38.2775 68.5196 39.6397C68.4937 39.7154 68.4371 39.8651 68.3498 40.0889C68.272 40.316 68.2107 40.4641 68.1658 40.5333L59.7369 37.6451ZM64.9231 36.901C65.0174 36.5951 65.0391 36.2695 64.9882 35.9244C64.9406 35.5698 64.7978 35.2461 64.5599 34.9531C64.3253 34.6507 63.9715 34.4185 63.4985 34.2564C63.0255 34.0944 62.591 34.0512 62.1951 34.127C61.8118 34.1965 61.4848 34.3487 61.2141 34.5836C60.9433 34.8185 60.7417 35.0983 60.6094 35.4229L64.9231 36.901ZM76.1152 45.3343C76.6544 45.5191 77.1298 45.5816 77.5415 45.5218C77.9563 45.4525 78.2447 45.3822 78.4066 45.3108L79.3774 48.9098C79.1839 48.9809 78.8686 49.0526 78.4316 49.1248C77.9978 49.1876 77.4775 49.1943 76.8708 49.145C76.2735 49.0989 75.6201 48.9543 74.9106 48.7112C73.5767 48.2541 72.4895 47.6015 71.6491 46.7532C70.8119 45.8956 70.2684 44.9059 70.0184 43.7843C69.778 42.666 69.8717 41.4825 70.2995 40.2338C70.7307 38.9756 71.3825 37.9833 72.2551 37.2569C73.1371 36.5338 74.1701 36.0949 75.3542 35.9404C76.5414 35.7764 77.802 35.9229 79.1359 36.38C79.8359 36.6198 80.4343 36.9095 80.9312 37.2488C81.4407 37.582 81.8522 37.908 82.1658 38.2268C82.4826 38.5362 82.694 38.7831 82.8 38.9674L79.7736 41.2285C79.7301 41.1396 79.6395 41.0029 79.5019 40.8183C79.3738 40.637 79.1888 40.452 78.9468 40.2634C78.7049 40.0748 78.3948 39.9156 78.0163 39.786C77.5528 39.6272 77.0771 39.5963 76.5893 39.6934C76.1109 39.7938 75.6775 40.0099 75.2889 40.3419C74.9003 40.6739 74.6136 41.1095 74.4289 41.6487C74.2441 42.1879 74.2018 42.7125 74.3018 43.2225C74.4052 43.723 74.615 44.1596 74.9313 44.5322C75.257 44.9081 75.6517 45.1755 76.1152 45.3343ZM93.0643 41.1526C93.8779 41.4313 94.6158 41.8692 95.2781 42.4661C95.9403 43.063 96.399 43.8068 96.654 44.6976C96.9123 45.5789 96.8421 46.6013 96.4434 47.7649L94.0074 54.8742L89.6936 53.396L91.8865 46.9963C92.1717 46.1638 92.1965 45.4746 91.9607 44.9287C91.7376 44.3766 91.3044 43.9903 90.6611 43.7699C90.2354 43.624 89.7898 43.5982 89.3241 43.6923C88.8617 43.777 88.4378 43.9806 88.0525 44.3031C87.6798 44.6194 87.4044 45.0377 87.2261 45.558L85.0818 51.8158L80.7538 50.3328L87.4443 30.8073L91.7723 32.2902L88.4854 41.8827C88.6964 41.6062 89.0352 41.3735 89.5016 41.1844C89.9808 40.9892 90.5303 40.8816 91.1503 40.8614C91.783 40.8351 92.421 40.9322 93.0643 41.1526ZM117.41 41.5825C118.574 41.9812 119.547 42.4574 120.33 43.0111C121.113 43.5647 121.72 44.0742 122.153 44.5395C122.585 45.0048 122.842 45.3043 122.923 45.4377L119.708 48.1574C119.596 47.992 119.392 47.7373 119.098 47.3933C118.813 47.0526 118.449 46.7111 118.006 46.3691C117.572 46.0302 117.086 45.7684 116.547 45.5837C115.818 45.3341 115.182 45.2639 114.637 45.3732C114.105 45.4763 113.751 45.7832 113.576 46.2941C113.456 46.6441 113.466 47.0015 113.605 47.3664C113.757 47.725 114.035 48.1163 114.44 48.5403C114.857 48.958 115.398 49.4448 116.064 50.0006C116.676 50.4959 117.23 51.0239 117.725 51.5847C118.22 52.1454 118.617 52.7464 118.915 53.3877C119.226 54.0228 119.411 54.6995 119.472 55.4178C119.532 56.1362 119.426 56.8927 119.154 57.6874C118.83 58.6334 118.354 59.3899 117.726 59.9571C117.102 60.5148 116.376 60.9056 115.549 61.1295C114.731 61.3567 113.859 61.4332 112.933 61.359C112.013 61.2976 111.099 61.1113 110.191 60.8001C108.905 60.3592 107.801 59.8172 106.879 59.1738C105.968 58.5337 105.258 57.9364 104.75 57.3819C104.243 56.8274 103.947 56.4723 103.863 56.3167L107.197 53.4794C107.282 53.6035 107.452 53.8152 107.709 54.1146C107.975 54.4173 108.309 54.7537 108.711 55.1239C109.116 55.4846 109.559 55.8267 110.04 56.1501C110.531 56.4768 111.036 56.7293 111.557 56.9075C112.427 57.2058 113.136 57.2639 113.685 57.0819C114.237 56.8904 114.607 56.5204 114.795 55.9717C114.934 55.5649 114.922 55.1537 114.758 54.738C114.594 54.3224 114.286 53.8787 113.834 53.4069C113.386 52.9256 112.806 52.3831 112.093 51.7795C111.383 51.1664 110.75 50.5001 110.193 49.7808C109.646 49.0646 109.271 48.2757 109.07 47.4138C108.868 46.552 108.947 45.596 109.307 44.5459C109.667 43.4959 110.271 42.6882 111.121 42.1229C111.982 41.5514 112.967 41.2228 114.075 41.1372C115.192 41.0548 116.303 41.2033 117.41 41.5825ZM120.087 63.8103L124.079 52.1602L128.392 53.6384L124.401 65.2884L120.087 63.8103ZM127.114 50.5206C126.433 50.2872 125.937 49.853 125.626 49.2179C125.318 48.5734 125.278 47.92 125.505 47.2578C125.732 46.5956 126.164 46.1043 126.803 45.7839C127.454 45.4573 128.115 45.4091 128.787 45.6392C129.231 45.7916 129.599 46.0445 129.89 46.398C130.185 46.742 130.382 47.1373 130.483 47.5841C130.583 48.0308 130.556 48.4812 130.4 48.9353C130.173 49.5975 129.736 50.0872 129.088 50.4043C128.444 50.712 127.786 50.7508 127.114 50.5206ZM136.703 56.1055C137.469 56.368 138.147 56.6741 138.735 57.0237C139.327 57.3639 139.808 57.6873 140.179 57.994C140.559 58.3039 140.792 58.532 140.88 58.6782L138.604 60.7369C138.47 60.5428 138.193 60.2575 137.772 59.8808C137.361 59.5074 136.857 59.2185 136.261 59.0143C135.807 58.8587 135.4 58.7984 135.039 58.8333C134.681 58.8588 134.452 59.0182 134.352 59.3114C134.251 59.6047 134.341 59.8995 134.62 60.196C134.911 60.4862 135.361 60.8094 135.968 61.1655C136.497 61.4735 137.012 61.8509 137.515 62.2979C138.017 62.7448 138.379 63.276 138.602 63.8913C138.837 64.5005 138.818 65.2024 138.546 65.997C138.267 66.8106 137.862 67.4223 137.331 67.8321C136.799 68.2419 136.195 68.4946 135.517 68.5901C134.84 68.6857 134.145 68.6751 133.435 68.5585C132.721 68.4513 132.047 68.2892 131.413 68.072C130.524 67.7673 129.776 67.4211 129.169 67.0333C128.571 66.6488 128.105 66.2829 127.769 65.9353C127.434 65.5878 127.207 65.325 127.088 65.147L129.451 62.7854C129.626 63.0778 129.947 63.4521 130.414 63.9082C130.885 64.3549 131.432 64.6852 132.057 64.8992C132.662 65.1066 133.161 65.1772 133.554 65.1109C133.947 65.0446 134.193 64.8648 134.294 64.5716C134.375 64.3351 134.359 64.1183 134.247 63.9213C134.135 63.7243 133.95 63.5235 133.692 63.319C133.435 63.1144 133.112 62.8983 132.725 62.6705C132.373 62.4652 132.011 62.2092 131.641 61.9025C131.27 61.5958 130.942 61.2404 130.658 60.8364C130.377 60.423 130.191 59.9629 130.1 59.4561C130.01 58.9494 130.068 58.3933 130.276 57.7879C130.541 57.0121 131.013 56.4548 131.689 56.1157C132.365 55.7767 133.145 55.6156 134.027 55.6324C134.912 55.6398 135.804 55.7975 136.703 56.1055ZM142.372 58.4284L144.358 59.1091L145.997 54.327L150.268 55.7906L148.63 60.5726L151.24 61.4673L150.025 65.0148L147.414 64.1202L146.3 67.3697C146.135 67.8521 146.072 68.2691 146.11 68.6204C146.151 68.9623 146.361 69.1981 146.739 69.3277C146.995 69.4152 147.232 69.433 147.451 69.3811C147.669 69.3292 147.804 69.2908 147.855 69.2659L148.28 72.8366C148.195 72.8707 147.951 72.9034 147.549 72.9349C147.157 72.9695 146.674 72.9576 146.102 72.899C145.531 72.8405 144.918 72.6994 144.265 72.4757C143.102 72.077 142.254 71.4216 141.72 70.5096C141.19 69.5881 141.161 68.4414 141.631 67.0697L143.143 62.6566L141.156 61.9759L142.372 58.4284ZM154.799 70.2184C154.685 70.6444 154.691 71.0587 154.817 71.4614C154.944 71.8641 155.183 72.2313 155.534 72.5632C155.898 72.8888 156.369 73.1504 156.946 73.3482C157.494 73.5362 158.006 73.648 158.48 73.6836C158.963 73.7224 159.395 73.7118 159.775 73.6517C160.165 73.5949 160.48 73.5074 160.721 73.3892L161.482 76.6307C161.158 76.8051 160.736 76.9407 160.216 77.0376C159.71 77.1282 159.08 77.1293 158.328 77.0408C157.577 76.9522 156.666 76.7248 155.597 76.3586C154.311 75.9177 153.249 75.2843 152.411 74.4582C151.574 73.6321 151.027 72.652 150.771 71.5177C150.515 70.3834 150.618 69.1399 151.082 67.7871C151.471 66.6519 152.067 65.7145 152.87 64.9749C153.686 64.229 154.657 63.7533 155.785 63.5477C156.916 63.3326 158.148 63.4536 159.482 63.9107C160.75 64.345 161.767 64.9528 162.536 65.734C163.313 66.5185 163.796 67.4554 163.983 68.5448C164.182 69.6281 164.049 70.8508 163.582 72.213C163.556 72.2887 163.5 72.4385 163.412 72.6623C163.334 72.8893 163.273 73.0374 163.228 73.1066L154.799 70.2184ZM159.986 69.4744C160.08 69.1684 160.102 68.8429 160.051 68.4977C160.003 68.1431 159.86 67.8194 159.622 67.5265C159.388 67.2241 159.034 66.9918 158.561 66.8298C158.088 66.6677 157.653 66.6245 157.258 66.7003C156.874 66.7698 156.547 66.922 156.277 67.1569C156.006 67.3919 155.804 67.6716 155.672 67.9962L159.986 69.4744ZM167.763 80.1465L163.449 78.6684L167.441 67.0183L171.754 68.4964L171.137 70.2986L171.066 70.2743C171.216 70.0826 171.495 69.8715 171.901 69.6409C172.311 69.4008 172.827 69.2391 173.447 69.1557C174.071 69.0629 174.766 69.1478 175.532 69.4103C176.071 69.5951 176.539 69.8504 176.935 70.1763C177.334 70.4927 177.611 70.7623 177.767 70.9849L174.892 73.9161C174.815 73.7099 174.635 73.4633 174.353 73.1764C174.083 72.8832 173.698 72.6507 173.196 72.4789C172.619 72.2811 172.091 72.2641 171.612 72.4277C171.143 72.5945 170.747 72.8553 170.425 73.2099C170.112 73.5678 169.892 73.9312 169.766 74.3002L167.763 80.1465ZM184.207 72.3826C184.973 72.6452 185.65 72.9513 186.239 73.3009C186.83 73.6411 187.311 73.9645 187.682 74.2712C188.062 74.5811 188.296 74.8092 188.383 74.9554L186.108 77.014C185.974 76.82 185.696 76.5346 185.275 76.158C184.864 75.7845 184.361 75.4957 183.765 75.2915C183.311 75.1359 182.903 75.0756 182.542 75.1105C182.185 75.136 181.956 75.2953 181.855 75.5886C181.755 75.8819 181.844 76.1767 182.123 76.4731C182.415 76.7634 182.864 77.0865 183.472 77.4426C184 77.7506 184.516 78.1281 185.018 78.575C185.52 79.022 185.883 79.5531 186.105 80.1685C186.341 80.7776 186.322 81.4795 186.05 82.2742C185.771 83.0877 185.366 83.6994 184.834 84.1093C184.303 84.5191 183.698 84.7718 183.021 84.8673C182.343 84.9628 181.649 84.9523 180.938 84.8357C180.225 84.7285 179.551 84.5663 178.917 84.3491C178.028 84.0444 177.28 83.6982 176.672 83.3105C176.075 82.926 175.608 82.56 175.273 82.2125C174.937 81.865 174.71 81.6022 174.592 81.4241L176.955 79.0626C177.129 79.355 177.45 79.7293 177.918 80.1854C178.388 80.6321 178.936 80.9624 179.56 81.1763C180.166 81.3838 180.665 81.4544 181.057 81.3881C181.45 81.3218 181.697 81.142 181.797 80.8487C181.878 80.6122 181.863 80.3955 181.75 80.1985C181.638 80.0015 181.453 79.8007 181.196 79.5961C180.938 79.3916 180.616 79.1754 180.229 78.9477C179.876 78.7423 179.515 78.4863 179.144 78.1796C178.774 77.8729 178.446 77.5176 178.162 77.1136C177.88 76.7001 177.695 76.24 177.604 75.7333C177.513 75.2266 177.572 74.6705 177.779 74.065C178.045 73.2893 178.516 72.7319 179.192 72.3929C179.869 72.0538 180.648 71.8927 181.53 71.9096C182.416 71.917 183.308 72.0747 184.207 72.3826ZM78.639 68.3924L82.4463 80.5109L77.3805 78.7751L74.4248 68.6133L71.6193 76.801L67.3765 75.3472L73.7947 56.6163L78.0375 58.0701L75.4119 65.7327L83.3446 59.8886L88.1266 61.5271L78.639 68.3924ZM88.4363 77.0771C88.322 77.5031 88.328 77.9174 88.4543 78.3201C88.5806 78.7228 88.8195 79.09 89.1709 79.4219C89.535 79.7475 90.0056 80.0091 90.5827 80.2069C91.1313 80.3949 91.6427 80.5067 92.1168 80.5423C92.6003 80.5811 93.032 80.5705 93.412 80.5104C93.8015 80.4536 94.1169 80.3661 94.3582 80.2479L95.1185 83.4894C94.7945 83.6638 94.3728 83.7994 93.8533 83.8963C93.3466 83.9869 92.7173 83.988 91.9654 83.8994C91.2134 83.8109 90.303 83.5835 89.234 83.2172C87.9474 82.7764 86.8854 82.1429 86.048 81.3169C85.2105 80.4908 84.6637 79.5107 84.4076 78.3764C84.1514 77.2421 84.2551 75.9986 84.7187 74.6458C85.1076 73.5106 85.7037 72.5732 86.5068 71.8336C87.3226 71.0877 88.2943 70.612 89.4218 70.4064C90.5526 70.1913 91.7849 70.3123 93.1188 70.7694C94.3864 71.2037 95.4044 71.8115 96.1726 72.5927C96.9503 73.3772 97.4326 74.3141 97.6196 75.4035C97.8193 76.4867 97.6857 77.7095 97.2189 79.0717C97.193 79.1474 97.1364 79.2971 97.0491 79.5209C96.9714 79.748 96.91 79.8961 96.8652 79.9653L88.4363 77.0771ZM93.6225 76.3331C93.7167 76.0271 93.7384 75.7016 93.6876 75.3564C93.6399 75.0018 93.4972 74.6781 93.2593 74.3852C93.0246 74.0828 92.6708 73.8505 92.1978 73.6885C91.7248 73.5264 91.2903 73.4832 90.8944 73.559C90.5112 73.6285 90.1842 73.7807 89.9134 74.0156C89.6426 74.2505 89.4411 74.5303 89.3087 74.8549L93.6225 76.3331ZM109.581 76.41C110.394 76.6888 111.132 77.1266 111.794 77.7236C112.457 78.3205 112.915 79.0643 113.17 79.9551C113.429 80.8364 113.358 81.8588 112.96 83.0224L110.524 90.1316L106.196 88.6486L108.389 82.2489C108.674 81.4164 108.689 80.724 108.434 80.1716C108.183 79.6098 107.736 79.2186 107.092 78.9982C106.667 78.8523 106.226 78.8281 105.769 78.9255C105.326 79.0166 104.916 79.2251 104.54 79.5508C104.177 79.8704 103.906 80.2903 103.728 80.8106L101.584 87.0684L97.2701 85.5903L101.262 73.9402L105.576 75.4183L104.987 77.1353C105.208 76.8621 105.551 76.6309 106.018 76.4419C106.497 76.2467 107.047 76.139 107.667 76.1189C108.299 76.0926 108.937 76.1896 109.581 76.41ZM120.184 89.2716L126.047 82.4329L130.276 83.8819L116.258 98.6927L111.944 97.2146L116.663 92.2353L115.788 78.9175L120.087 80.3908L120.184 89.2716ZM136.675 99.0925L137.322 97.2053C137.172 97.3653 136.86 97.5651 136.387 97.8046C135.923 98.0474 135.358 98.2182 134.689 98.317C134.025 98.4063 133.314 98.3213 132.557 98.0619C131.422 97.673 130.522 97.0583 129.859 96.2178C129.199 95.368 128.791 94.3984 128.636 93.3093C128.484 92.2107 128.602 91.0938 128.991 89.9585C129.38 88.8233 129.97 87.8732 130.761 87.1082C131.555 86.3337 132.473 85.8133 133.516 85.5469C134.558 85.2805 135.647 85.3418 136.782 85.7308C137.511 85.9804 138.109 86.3174 138.576 86.7419C139.047 87.157 139.398 87.5837 139.628 88.022C139.862 88.4509 139.999 88.8204 140.041 89.1307L140.625 87.4279L144.91 88.8963L140.918 100.546L136.675 99.0925ZM133.22 91.4075C133.038 91.9373 132.998 92.4571 133.098 92.9671C133.201 93.4676 133.416 93.9058 133.741 94.2817C134.077 94.6609 134.495 94.9363 134.996 95.1081C135.516 95.2864 136.016 95.3254 136.494 95.225C136.973 95.1246 137.397 94.9052 137.766 94.5668C138.149 94.2221 138.431 93.7849 138.612 93.2552C138.794 92.7254 138.837 92.2119 138.744 91.7146C138.662 91.2111 138.464 90.773 138.147 90.4004C137.834 90.0183 137.418 89.7381 136.897 89.5598C136.396 89.388 135.895 89.3538 135.394 89.4571C134.907 89.5542 134.467 89.7735 134.075 90.1149C133.686 90.4469 133.401 90.8777 133.22 91.4075Z" fill="#45084A"/>
</svg>
