<svg width="40" height="40" viewBox="0 0 40 40" fill="none" xmlns="http://www.w3.org/2000/svg">
<path d="M6.66663 23.4504C8.35829 23.4504 10.7183 22.9471 12.2 24.0337L15.1366 26.1837C16.2283 26.9837 17.41 26.7204 18.6283 26.5304C20.2316 26.2787 21.6666 27.6471 21.6666 29.4271C21.6666 29.9137 18.2116 31.1521 17.7133 31.3871C17.2335 31.6139 16.7008 31.7056 16.1728 31.6521C15.6447 31.5987 15.1412 31.4022 14.7166 31.0837L11.4033 28.6554" stroke="#45084A" stroke-width="2" stroke-linecap="round" stroke-linejoin="round"/>
<path d="M21.6666 28.334L28.485 25.184C29.0863 24.9762 29.7348 24.9467 30.3526 25.099C30.9703 25.2513 31.5308 25.5789 31.9666 26.0423L33.0833 27.2107C33.4833 27.6273 33.39 28.3307 32.895 28.6173L19.805 36.219C19.4183 36.4456 18.989 36.5902 18.544 36.6439C18.099 36.6975 17.6478 36.6589 17.2183 36.5307L6.66663 33.379M20.0033 20.0007C20.0033 20.0007 23.5033 16.269 23.5033 11.6673C23.5033 7.06565 20.0033 3.33398 20.0033 3.33398C20.0033 3.33398 16.5033 7.06565 16.5033 11.6673C16.5033 16.269 20.0033 20.0007 20.0033 20.0007ZM20.0033 20.0007C20.0033 20.0007 25.115 19.8873 28.3366 16.6007C31.5583 13.3123 31.67 8.09565 31.67 8.09565C31.67 8.09565 29.5533 8.14232 27.1866 9.05232M20.0033 20.0007C20.0033 20.0007 14.8916 19.8873 11.67 16.6007C8.44829 13.3123 8.33663 8.09565 8.33663 8.09565C8.33663 8.09565 10.4533 8.14232 12.82 9.05232" stroke="#45084A" stroke-width="2" stroke-linecap="round" stroke-linejoin="round"/>
</svg>
