<svg width="131" height="61" viewBox="0 0 131 61" fill="none" xmlns="http://www.w3.org/2000/svg">
<rect y="20.3174" width="126" height="40.8847" rx="20" transform="rotate(-9.27922 0 20.3174)" fill="white"/>
<path d="M41.3959 33.6857L34.6454 34.7886L35.9297 42.6494L31.5182 43.3702L28.3255 23.8292L32.737 23.1085L34.0141 30.9248L40.7646 29.8219L39.4875 22.0056L43.8842 21.2872L47.0769 40.8281L42.6802 41.5465L41.3959 33.6857ZM53.1881 34.5708C53.2886 35.0002 53.4897 35.3626 53.7912 35.6578C54.0928 35.953 54.4768 36.1639 54.9433 36.2903C55.418 36.4053 55.9564 36.4136 56.5584 36.3152C57.1308 36.2217 57.6344 36.0786 58.069 35.886C58.5135 35.6918 58.889 35.4785 59.1955 35.246C59.5119 35.0119 59.7486 34.7858 59.9054 34.5676L62.107 37.0653C61.9038 37.3721 61.5962 37.6909 61.1841 38.0217C60.7803 38.3409 60.2262 38.6392 59.5217 38.9164C58.8171 39.1937 57.9073 39.4234 56.7921 39.6056C55.4499 39.8249 54.2146 39.7683 53.0862 39.4359C51.9578 39.1035 51.0128 38.498 50.2512 37.6193C49.4895 36.7406 48.9934 35.5956 48.7628 34.1843C48.5693 33 48.6518 31.8922 49.0102 30.8609C49.3768 29.8182 50.0085 28.9398 50.9051 28.2259C51.8001 27.5021 52.9434 27.0266 54.3349 26.7992C55.6574 26.5831 56.8417 26.6379 57.8879 26.9635C58.944 27.2874 59.8117 27.8853 60.4912 28.7572C61.1789 29.6175 61.6389 30.7583 61.8711 32.1794C61.884 32.2584 61.9048 32.4171 61.9337 32.6556C61.9724 32.8924 61.9883 33.052 61.9815 33.1341L53.1881 34.5708ZM57.4074 31.4648C57.346 31.1506 57.2113 30.8535 57.0034 30.5733C56.7939 30.2833 56.5151 30.0654 56.1671 29.9196C55.8174 29.764 55.3958 29.7264 54.9024 29.8071C54.4089 29.8877 54.0056 30.0549 53.6924 30.3087C53.3875 30.5511 53.1712 30.8397 53.0436 31.1747C52.9159 31.5097 52.8704 31.8515 52.9071 32.2001L57.4074 31.4648ZM69.6886 37.1337L65.1735 37.8714L61.8454 17.5015L66.3605 16.7638L69.6886 37.1337ZM77.0905 35.9244L72.5754 36.6621L69.2473 16.2922L73.7624 15.5545L77.0905 35.9244ZM86.238 34.7946C84.9057 35.0123 83.6771 34.9344 82.5521 34.5609C81.4354 34.1759 80.5028 33.5531 79.7542 32.6926C79.0139 31.8205 78.5422 30.7627 78.339 29.5192C78.1359 28.2757 78.2464 27.1228 78.6707 26.0605C79.1032 24.9867 79.7867 24.0847 80.7212 23.3545C81.6655 22.6226 82.8039 22.1478 84.1362 21.9302C85.4685 21.7125 86.6889 21.8019 87.7973 22.1983C88.9058 22.5948 89.826 23.2348 90.5581 24.1183C91.2885 24.9919 91.7553 26.0505 91.9585 27.294C92.1616 28.5376 92.056 29.6897 91.6416 30.7504C91.2256 31.8012 90.5545 32.686 89.6283 33.4047C88.7004 34.1136 87.5704 34.5769 86.238 34.7946ZM85.6334 31.0937C86.1466 31.0098 86.5721 30.8238 86.9101 30.5355C87.248 30.2472 87.4867 29.8789 87.6263 29.4305C87.7658 28.9822 87.7928 28.4965 87.7074 27.9734C87.6203 27.4405 87.4393 26.9837 87.1643 26.603C86.8893 26.2224 86.545 25.9443 86.1312 25.7687C85.7175 25.5931 85.2541 25.5472 84.7409 25.6311C84.2277 25.7149 83.798 25.9067 83.4518 26.2065C83.1154 26.5046 82.8726 26.8787 82.7232 27.3286C82.5837 27.777 82.5574 28.2677 82.6445 28.8006C82.73 29.3237 82.9102 29.7755 83.1852 30.1562C83.47 30.5352 83.8185 30.8076 84.2306 30.9733C84.6526 31.1374 85.1202 31.1775 85.6334 31.0937ZM95.7696 26.3218L92.5661 12.4822L97.4217 11.6889L98.7896 25.8284L95.7696 26.3218ZM98.3653 32.8132C97.8817 32.8922 97.4182 32.8463 96.9749 32.6756C96.5299 32.495 96.1511 32.2225 95.8382 31.8582C95.5254 31.4938 95.3286 31.065 95.248 30.5715C95.1255 29.8214 95.2822 29.1372 95.7182 28.5188C96.1641 27.8988 96.7521 27.5292 97.4825 27.4098C98.2424 27.2857 98.9274 27.4473 99.5375 27.8948C100.148 28.3423 100.514 28.941 100.637 29.6911C100.756 30.4214 100.598 31.0958 100.162 31.7142C99.724 32.3227 99.1252 32.689 98.3653 32.8132Z" fill="#45084A"/>
</svg>
