<svg width="120" height="92" viewBox="0 0 120 92" fill="none" xmlns="http://www.w3.org/2000/svg">
<path d="M52 91.6807C54.25 92.4723 56.6667 90.8265 56.6667 88.4515V9.8265C56.6667 8.9515 56.3333 8.0765 55.625 7.53483C51.5417 4.28483 42.1667 0.118164 30 0.118164C19.4792 0.118164 9.64583 2.889 3.77083 5.139C1.41667 6.05566 0 8.389 0 10.9098V88.0557C0 90.5348 2.66667 92.264 5.02083 91.4932C11.5833 89.3057 21.9792 86.7848 30 86.7848C37.0625 86.7848 46.4583 89.7015 52 91.6807ZM68 91.6807C73.5417 89.7015 82.9375 86.7848 90 86.7848C98.0208 86.7848 108.417 89.3057 114.979 91.4932C117.333 92.2848 120 90.5348 120 88.0557V10.9098C120 8.389 118.583 6.05566 116.229 5.15983C110.354 2.889 100.521 0.118164 90 0.118164C77.8333 0.118164 68.4583 4.28483 64.375 7.53483C63.6875 8.0765 63.3333 8.9515 63.3333 9.8265V88.4515C63.3333 90.8265 65.7708 92.4723 68 91.6807Z" fill="#45084A"/>
</svg>
